<svg class="typst-doc" viewBox="0 0 160.44214103937009 139.73934576377954" width="160.44214103937009pt" height="139.73934576377954pt" xmlns="http://www.w3.org/2000/svg" xmlns:xlink="http://www.w3.org/1999/xlink" xmlns:h5="http://www.w3.org/1999/xhtml">
    <path class="typst-shape" fill="#ffffff" fill-rule="nonzero" d="M 0 0v 139.73935 h 160.44214 v -139.73935 Z "/>
    <g>
        <g class="typst-group" transform="matrix(1 0 0 1 0.5 0.5)">
            <g>
                <path class="typst-shape" fill="none" stroke="#aaaaaa" stroke-width="1" stroke-linecap="butt" stroke-linejoin="miter" stroke-miterlimit="4" transform="matrix(1 0 0 1 2.125984251968504 128.9697000944882)" d="M 0 0h 157.3161 "/>
                <path class="typst-shape" fill="none" stroke="#aaaaaa" stroke-width="1" stroke-linecap="butt" stroke-linejoin="miter" stroke-miterlimit="4" transform="matrix(1 0 0 1 153.7728497007874 126.84371584251969)" d="M 0 0l 5.6692915 2.1259842 l -5.6692915 2.1259842 "/>
                <path class="typst-shape" fill="none" stroke="#aaaaaa" stroke-width="1" stroke-linecap="butt" stroke-linejoin="miter" stroke-miterlimit="4" transform="matrix(1 0 0 1 2.125984251968504 0.0000566242195934968)" d="M 0 0m 0 128.96965 v -128.96965 "/>
                <path class="typst-shape" fill="none" stroke="#aaaaaa" stroke-width="1" stroke-linecap="butt" stroke-linejoin="miter" stroke-miterlimit="4" d="M 0 0m 0 5.6692915 l 2.1259842 -5.6692915 l 2.1259842 5.6692915 "/>
                <path class="typst-shape" fill="none" stroke="#cc342b" stroke-width="0.5" stroke-linecap="butt" stroke-linejoin="miter" stroke-miterlimit="4" transform="matrix(1 0 0 1 2.125984251968504 9.205920566929137)" d="M 0 0m 0 119.76378 l 1.4889048 -0.01222229 l 1.4889048 -0.03665161 l 1.4889047 -0.06110382 l 1.488905 -0.08553314 l 1.4889045 -0.10997772 l 1.488905 -0.13441467 l 1.488905 -0.15885162 l 1.488905 -0.1832962 l 1.488905 -0.20773315 l 1.488904 -0.2321701 l 1.488905 -0.25660706 l 1.488905 -0.28105164 l 1.488905 -0.3054886 l 1.488905 -0.32992554 l 1.488905 -0.35437012 l 1.488905 -0.37880707 l 1.488905 -0.40324402 l 1.488905 -0.42768097 l 1.488903 -0.45212555 l 1.488905 -0.4765625 l 1.488905 -0.50099945 l 1.488905 -0.52544403 l 1.4889069 -0.549881 l 1.488903 -0.57431793 l 1.488903 -0.5987549 l 1.4889069 -0.62319946 l 1.488903 -0.6476364 l 1.4889069 -0.67207336 l 1.488903 -0.69651794 l 1.4889069 -0.72094727 l 1.488903 -0.74539185 l 1.4889069 -0.7698364 l 1.488903 -0.79426575 l 1.4889069 -0.8187103 l 1.488903 -0.8431473 l 1.4889069 -0.86759186 l 1.488903 -0.8920288 l 1.488903 -0.91646576 l 1.4889069 -0.9409027 l 1.488903 -0.9653473 l 1.4889069 -0.9897766 l 1.488903 -1.0142288 l 1.488903 -1.0386581 l 1.4889069 -1.0631027 l 1.4889069 -1.0875397 l 1.4889069 -1.1119766 l 1.4888992 -1.1364212 l 1.4889069 -1.1608582 l 1.4889069 -1.1852951 l 1.4888992 -1.209732 l 1.4889069 -1.2341766 l 1.4889069 -1.2586136 l 1.4889069 -1.2830505 l 1.4888992 -1.3074875 l 1.4889069 -1.3319321 l 1.4889069 -1.356369 l 1.4889069 -1.3808136 l 1.4888992 -1.4052429 l 1.4889069 -1.4296875 l 1.4889069 -1.4541321 l 1.4888992 -1.4785614 l 1.4889069 -1.503006 l 1.4889069 -1.5274429 l 1.4889069 -1.5518799 l 1.4888992 -1.5763245 l 1.4889069 -1.6007614 l 1.4889069 -1.6251984 l 1.4889069 -1.6496391 l 1.4888992 -1.6740761 l 1.4889069 -1.6985168 l 1.4889069 -1.7229576 l 1.4889069 -1.7473946 l 1.4888992 -1.7718353 l 1.4889069 -1.7962723 l 1.4889069 -1.820713 l 1.4888992 -1.84515 l 1.4889069 -1.8695908 l 1.4889069 -1.8940315 l 1.4889069 -1.9184685 l 1.4888992 -1.9429092 l 1.4889069 -1.9673462 l 1.4889069 -1.991787 l 1.4889069 -2.016224 l 1.4888992 -2.0406647 l 1.4889069 -2.0651035 l 1.4888992 -2.0895424 l 1.4889069 -2.1139812 l 1.4889069 -2.13842 l 1.4889069 -2.1628609 l 1.4889069 -2.1872978 l 1.4889069 -2.2117386 l 1.4889069 -2.2361774 l 1.4888916 -2.2606163 l 1.4889069 -2.2850552 l 1.4889069 -2.309494 l 1.4889069 -2.3339334 l 1.4889069 -2.3583727 l 1.4889069 -2.3828118 l 1.4889069 -2.4072506 "/>
                <path class="typst-shape" fill="none" transform="matrix(1 0 0 1 117.87114794400702 4.32192056692913)" d="M 0 0h 31.65641 v 9.768 h -31.65641 v -9.768 Z "/>
                <g class="typst-group">
                    <g>
                        <g class="typst-group" transform="matrix(1 0 0 1 117.87114789326337 4.321920472440949)">
                            <g>
                                <g class="typst-text" transform="matrix(1 0 0 -1 0 7.513000000000001)">
                                    <use xlink:href="#gDC2D78BB32C727F25215D3965BE0A1FA" x="0" y="0" fill="#cc342b" fill-rule="nonzero"/>
                                </g>
                                <g class="typst-text" transform="matrix(1 0 0 -1 8.753555555555556 7.513000000000001)">
                                    <use xlink:href="#g7E389D4670EF3430D1D2A11967DBC89" x="0" y="0" fill="#cc342b" fill-rule="nonzero"/>
                                </g>
                                <g class="typst-text" transform="matrix(1 0 0 -1 20.36711111111111 7.513000000000001)">
                                    <use xlink:href="#g738D4A4AC60728BC0177426F29B6AD2A" x="0" y="0" fill="#cc342b" fill-rule="nonzero"/>
                                </g>
                                <g class="typst-text" transform="matrix(1 0 0 -1 26.65911111111111 3.5200000000000005)">
                                    <use xlink:href="#g3E7B12B0DCCC88C0CEDBD8C4E965462E" x="0" y="0" fill="#cc342b" fill-rule="nonzero"/>
                                </g>
                            </g>
                        </g>
                    </g>
                </g>
                <path class="typst-shape" fill="none" stroke="#aaaaaa" stroke-width="0.5" stroke-linecap="butt" stroke-linejoin="miter" stroke-miterlimit="4" transform="matrix(1 0 0 1 13.46456692913386 126.13505442519686)" d="M 0 0m 0 5.6692915 v -5.6692915 "/>
                <path class="typst-shape" fill="none" transform="matrix(1 0 0 1 11.71456692913386 131.8043457637795)" d="M 0 0h 3.5 v 6.781 h -3.5 v -6.781 Z "/>
                <g class="typst-group">
                    <g>
                        <g class="typst-group" transform="matrix(1 0 0 1 11.714566677165356 131.80434563779525)">
                            <g>
                                <g class="typst-text" transform="matrix(1 0 0 -1 0 6.781)">
                                    <use xlink:href="#gD6BF3B01383B5D4EFB6EF293C0231013" x="0" y="0" fill="#000000" fill-rule="nonzero"/>
                                </g>
                            </g>
                        </g>
                    </g>
                </g>
                <path class="typst-shape" fill="#ff4136" fill-rule="nonzero" transform="matrix(1 0 0 1 11.46456692913386 126.26103867716535)" d="M 0 0m 2 0 c -1.1035681 0 -2 0.896432 -2 2 c 0 1.1035681 0.896432 2 2 2 c 1.1035681 0 2 -0.8964319 2 -2 c 0 -1.1035681 -0.8964319 -2 -2 -2 Z "/>
                <path class="typst-shape" fill="none" stroke="#aaaaaa" stroke-width="0.5" stroke-linecap="butt" stroke-linejoin="miter" stroke-miterlimit="4" transform="matrix(1 0 0 1 24.80314960629921 126.13505442519686)" d="M 0 0m 0 5.6692915 v -5.6692915 "/>
                <path class="typst-shape" fill="none" transform="matrix(1 0 0 1 23.05314960629921 131.8043457637795)" d="M 0 0h 3.5 v 6.781 h -3.5 v -6.781 Z "/>
                <g class="typst-group">
                    <g>
                        <g class="typst-group" transform="matrix(1 0 0 1 23.05314935433071 131.80434563779525)">
                            <g>
                                <g class="typst-text" transform="matrix(1 0 0 -1 0 6.781)">
                                    <use xlink:href="#gA943ED29014B9B6A5991712B382DD4E0" x="0" y="0" fill="#000000" fill-rule="nonzero"/>
                                </g>
                            </g>
                        </g>
                    </g>
                </g>
                <path class="typst-shape" fill="#ff4136" fill-rule="nonzero" transform="matrix(1 0 0 1 22.80314960629921 124.13505442519684)" d="M 0 0m 2 0 c -1.1035681 0 -2 0.896432 -2 2 c 0 1.1035681 0.896432 2 2 2 c 1.1035681 0 2 -0.8964319 2 -2 c 0 -1.1035681 -0.8964319 -2 -2 -2 Z "/>
                <path class="typst-shape" fill="none" stroke="#aaaaaa" stroke-width="0.5" stroke-linecap="butt" stroke-linejoin="miter" stroke-miterlimit="4" transform="matrix(1 0 0 1 36.14173228346458 126.13505442519686)" d="M 0 0m 0 5.6692915 v -5.6692915 "/>
                <path class="typst-shape" fill="none" transform="matrix(1 0 0 1 34.39173228346457 131.8043457637795)" d="M 0 0h 3.5 v 6.935 h -3.5 v -6.935 Z "/>
                <g class="typst-group">
                    <g>
                        <g class="typst-group" transform="matrix(1 0 0 1 34.39173203149607 131.8043456062992)">
                            <g>
                                <g class="typst-text" transform="matrix(1 0 0 -1 0 6.781)">
                                    <use xlink:href="#gABE9B13F62EAAE5DDFEF31EC7FDF3D6A" x="0" y="0" fill="#000000" fill-rule="nonzero"/>
                                </g>
                            </g>
                        </g>
                    </g>
                </g>
                <path class="typst-shape" fill="#ff4136" fill-rule="nonzero" transform="matrix(1 0 0 1 34.14173228346458 120.59174733858268)" d="M 0 0m 2 0 c -1.1035681 0 -2 0.896432 -2 2 c 0 1.1035681 0.896432 2 2 2 c 1.1035681 0 2 -0.8964319 2 -2 c 0 -1.1035681 -0.8964319 -2 -2 -2 Z "/>
                <path class="typst-shape" fill="none" stroke="#aaaaaa" stroke-width="0.5" stroke-linecap="butt" stroke-linejoin="miter" stroke-miterlimit="4" transform="matrix(1 0 0 1 47.48031496062992 126.13505442519686)" d="M 0 0m 0 5.6692915 v -5.6692915 "/>
                <path class="typst-shape" fill="none" transform="matrix(1 0 0 1 45.73031496062992 131.8043457637795)" d="M 0 0h 3.5 v 6.781 h -3.5 v -6.781 Z "/>
                <g class="typst-group">
                    <g>
                        <g class="typst-group" transform="matrix(1 0 0 1 45.73031470866142 131.80434563779525)">
                            <g>
                                <g class="typst-text" transform="matrix(1 0 0 -1 0 6.781)">
                                    <use xlink:href="#g8268719DDC033D34483D65636784F1B9" x="0" y="0" fill="#000000" fill-rule="nonzero"/>
                                </g>
                            </g>
                        </g>
                    </g>
                </g>
                <path class="typst-shape" fill="#ff4136" fill-rule="nonzero" transform="matrix(1 0 0 1 45.48031496062992 115.63111741732283)" d="M 0 0m 2 0 c -1.1035681 0 -2 0.896432 -2 2 c 0 1.1035681 0.896432 2 2 2 c 1.1035681 0 2 -0.8964319 2 -2 c 0 -1.1035681 -0.8964319 -2 -2 -2 Z "/>
                <path class="typst-shape" fill="none" stroke="#aaaaaa" stroke-width="0.5" stroke-linecap="butt" stroke-linejoin="miter" stroke-miterlimit="4" transform="matrix(1 0 0 1 58.81889763779528 126.13505442519686)" d="M 0 0m 0 5.6692915 v -5.6692915 "/>
                <path class="typst-shape" fill="none" transform="matrix(1 0 0 1 57.068897637795274 131.8043457637795)" d="M 0 0h 3.5 v 6.935 h -3.5 v -6.935 Z "/>
                <g class="typst-group">
                    <g>
                        <g class="typst-group" transform="matrix(1 0 0 1 57.06889738582678 131.8043456062992)">
                            <g>
                                <g class="typst-text" transform="matrix(1 0 0 -1 0 6.781)">
                                    <use xlink:href="#g6D6C58FAF7DAB0C365156821FF2469DF" x="0" y="0" fill="#000000" fill-rule="nonzero"/>
                                </g>
                            </g>
                        </g>
                    </g>
                </g>
                <path class="typst-shape" fill="#ff4136" fill-rule="nonzero" transform="matrix(1 0 0 1 56.81889763779528 109.25316466141732)" d="M 0 0m 2 0 c -1.1035681 0 -2 0.896432 -2 2 c 0 1.1035681 0.896432 2 2 2 c 1.1035681 0 2 -0.8964319 2 -2 c 0 -1.1035681 -0.8964319 -2 -2 -2 Z "/>
                <path class="typst-shape" fill="none" stroke="#aaaaaa" stroke-width="0.5" stroke-linecap="butt" stroke-linejoin="miter" stroke-miterlimit="4" transform="matrix(1 0 0 1 70.15748031496065 126.13505442519686)" d="M 0 0m 0 5.6692915 v -5.6692915 "/>
                <path class="typst-shape" fill="none" transform="matrix(1 0 0 1 68.40748031496065 131.8043457637795)" d="M 0 0h 3.5 v 6.935 h -3.5 v -6.935 Z "/>
                <g class="typst-group">
                    <g>
                        <g class="typst-group" transform="matrix(1 0 0 1 68.40748006299214 131.8043456062992)">
                            <g>
                                <g class="typst-text" transform="matrix(1 0 0 -1 0 6.781)">
                                    <use xlink:href="#g3F968EFE1510F51CCF9D41F4CC3A9EC7" x="0" y="0" fill="#000000" fill-rule="nonzero"/>
                                </g>
                            </g>
                        </g>
                    </g>
                </g>
                <path class="typst-shape" fill="#ff4136" fill-rule="nonzero" transform="matrix(1 0 0 1 68.15748031496065 101.45788907086613)" d="M 0 0m 2 0 c -1.1035681 0 -2 0.896432 -2 2 c 0 1.1035681 0.896432 2 2 2 c 1.1035681 0 2 -0.8964319 2 -2 c 0 -1.1035681 -0.8964319 -2 -2 -2 Z "/>
                <path class="typst-shape" fill="none" stroke="#aaaaaa" stroke-width="0.5" stroke-linecap="butt" stroke-linejoin="miter" stroke-miterlimit="4" transform="matrix(1 0 0 1 81.496062992126 126.13505442519686)" d="M 0 0m 0 5.6692915 v -5.6692915 "/>
                <path class="typst-shape" fill="none" transform="matrix(1 0 0 1 79.700562992126 131.8043457637795)" d="M 0 0h 3.591 v 6.935 h -3.591 v -6.935 Z "/>
                <g class="typst-group">
                    <g>
                        <g class="typst-group" transform="matrix(1 0 0 1 79.700562992126 131.8043456062992)">
                            <g>
                                <g class="typst-text" transform="matrix(1 0 0 -1 0 6.781)">
                                    <use xlink:href="#g698A2E510575197F41EF48B8F15D935A" x="0" y="0" fill="#000000" fill-rule="nonzero"/>
                                </g>
                            </g>
                        </g>
                    </g>
                </g>
                <path class="typst-shape" fill="#ff4136" fill-rule="nonzero" transform="matrix(1 0 0 1 79.496062992126 92.24529064566929)" d="M 0 0m 2 0 c -1.1035681 0 -2 0.896432 -2 2 c 0 1.1035681 0.896432 2 2 2 c 1.1035681 0 2 -0.8964319 2 -2 c 0 -1.1035681 -0.8964319 -2 -2 -2 Z "/>
                <path class="typst-shape" fill="none" stroke="#aaaaaa" stroke-width="0.5" stroke-linecap="butt" stroke-linejoin="miter" stroke-miterlimit="4" transform="matrix(1 0 0 1 92.83464566929135 126.13505442519686)" d="M 0 0m 0 5.6692915 v -5.6692915 "/>
                <path class="typst-shape" fill="none" transform="matrix(1 0 0 1 91.08464566929133 131.8043457637795)" d="M 0 0h 3.5 v 6.935 h -3.5 v -6.935 Z "/>
                <g class="typst-group">
                    <g>
                        <g class="typst-group" transform="matrix(1 0 0 1 91.08464541732285 131.8043456062992)">
                            <g>
                                <g class="typst-text" transform="matrix(1 0 0 -1 0 6.781)">
                                    <use xlink:href="#g8502CBFA2B535E964806D0BC041E257E" x="0" y="0" fill="#000000" fill-rule="nonzero"/>
                                </g>
                            </g>
                        </g>
                    </g>
                </g>
                <path class="typst-shape" fill="#ff4136" fill-rule="nonzero" transform="matrix(1 0 0 1 90.83464566929135 81.61536938582677)" d="M 0 0m 2 0 c -1.1035681 0 -2 0.896432 -2 2 c 0 1.1035681 0.896432 2 2 2 c 1.1035681 0 2 -0.8964319 2 -2 c 0 -1.1035681 -0.8964319 -2 -2 -2 Z "/>
                <path class="typst-shape" fill="none" stroke="#aaaaaa" stroke-width="0.5" stroke-linecap="butt" stroke-linejoin="miter" stroke-miterlimit="4" transform="matrix(1 0 0 1 104.17322834645671 126.13505442519686)" d="M 0 0m 0 5.6692915 v -5.6692915 "/>
                <path class="typst-shape" fill="none" transform="matrix(1 0 0 1 102.4232283464567 131.8043457637795)" d="M 0 0h 3.5 v 6.935 h -3.5 v -6.935 Z "/>
                <g class="typst-group">
                    <g>
                        <g class="typst-group" transform="matrix(1 0 0 1 102.42322809448821 131.8043456062992)">
                            <g>
                                <g class="typst-text" transform="matrix(1 0 0 -1 0 6.781)">
                                    <use xlink:href="#gAA8AE50BFE95A9CF91F47E9A7019775A" x="0" y="0" fill="#000000" fill-rule="nonzero"/>
                                </g>
                            </g>
                        </g>
                    </g>
                </g>
                <path class="typst-shape" fill="#ff4136" fill-rule="nonzero" transform="matrix(1 0 0 1 102.17322834645671 69.56812529133857)" d="M 0 0m 2 0 c -1.1035681 0 -2 0.896432 -2 2 c 0 1.1035681 0.896432 2 2 2 c 1.1035681 0 2 -0.8964319 2 -2 c 0 -1.1035681 -0.8964319 -2 -2 -2 Z "/>
                <path class="typst-shape" fill="none" stroke="#aaaaaa" stroke-width="0.5" stroke-linecap="butt" stroke-linejoin="miter" stroke-miterlimit="4" transform="matrix(1 0 0 1 115.51181102362204 126.13505442519686)" d="M 0 0m 0 5.6692915 v -5.6692915 "/>
                <path class="typst-shape" fill="none" transform="matrix(1 0 0 1 112.01181102362204 131.8043457637795)" d="M 0 0h 7 v 6.935 h -7 v -6.935 Z "/>
                <g class="typst-group">
                    <g>
                        <g class="typst-group" transform="matrix(1 0 0 1 112.0118108031496 131.8043456062992)">
                            <g>
                                <g class="typst-text" transform="matrix(1 0 0 -1 0 6.781)">
                                    <use xlink:href="#gD6BF3B01383B5D4EFB6EF293C0231013" x="0" y="0" fill="#000000" fill-rule="nonzero"/>
                                </g>
                                <g class="typst-text" transform="matrix(1 0 0 -1 3.5 6.781)">
                                    <use xlink:href="#g8619915BFDBFFA2C9D0521143AA81600" x="0" y="0" fill="#000000" fill-rule="nonzero"/>
                                </g>
                            </g>
                        </g>
                    </g>
                </g>
                <path class="typst-shape" fill="#ff4136" fill-rule="nonzero" transform="matrix(1 0 0 1 113.51181102362204 56.10355836220472)" d="M 0 0m 2 0 c -1.1035681 0 -2 0.896432 -2 2 c 0 1.1035681 0.896432 2 2 2 c 1.1035681 0 2 -0.8964319 2 -2 c 0 -1.1035681 -0.8964319 -2 -2 -2 Z "/>
                <path class="typst-shape" fill="none" stroke="#aaaaaa" stroke-width="0.5" stroke-linecap="butt" stroke-linejoin="miter" stroke-miterlimit="4" transform="matrix(1 0 0 1 126.85039370078742 126.13505442519686)" d="M 0 0m 0 5.6692915 v -5.6692915 "/>
                <path class="typst-shape" fill="none" transform="matrix(1 0 0 1 123.35039370078742 131.8043457637795)" d="M 0 0h 7 v 6.781 h -7 v -6.781 Z "/>
                <g class="typst-group">
                    <g>
                        <g class="typst-group" transform="matrix(1 0 0 1 123.35039348031498 131.80434563779525)">
                            <g>
                                <g class="typst-text" transform="matrix(1 0 0 -1 0 6.781)">
                                    <use xlink:href="#gD6BF3B01383B5D4EFB6EF293C0231013" x="0" y="0" fill="#000000" fill-rule="nonzero"/>
                                </g>
                                <g class="typst-text" transform="matrix(1 0 0 -1 3.5 6.781)">
                                    <use xlink:href="#gD6BF3B01383B5D4EFB6EF293C0231013" x="0" y="0" fill="#000000" fill-rule="nonzero"/>
                                </g>
                            </g>
                        </g>
                    </g>
                </g>
                <path class="typst-shape" fill="#ff4136" fill-rule="nonzero" transform="matrix(1 0 0 1 124.85039370078741 41.2216685984252)" d="M 0 0m 2 0 c -1.1035681 0 -2 0.896432 -2 2 c 0 1.1035681 0.896432 2 2 2 c 1.1035681 0 2 -0.8964319 2 -2 c 0 -1.1035681 -0.8964319 -2 -2 -2 Z "/>
                <path class="typst-shape" fill="none" stroke="#aaaaaa" stroke-width="0.5" stroke-linecap="butt" stroke-linejoin="miter" stroke-miterlimit="4" transform="matrix(1 0 0 1 138.1889763779528 126.13505442519686)" d="M 0 0m 0 5.6692915 v -5.6692915 "/>
                <path class="typst-shape" fill="none" transform="matrix(1 0 0 1 134.6889763779528 131.8043457637795)" d="M 0 0h 7 v 6.781 h -7 v -6.781 Z "/>
                <g class="typst-group">
                    <g>
                        <g class="typst-group" transform="matrix(1 0 0 1 134.68897615748037 131.80434563779525)">
                            <g>
                                <g class="typst-text" transform="matrix(1 0 0 -1 0 6.781)">
                                    <use xlink:href="#gD6BF3B01383B5D4EFB6EF293C0231013" x="0" y="0" fill="#000000" fill-rule="nonzero"/>
                                </g>
                                <g class="typst-text" transform="matrix(1 0 0 -1 3.5 6.781)">
                                    <use xlink:href="#gA943ED29014B9B6A5991712B382DD4E0" x="0" y="0" fill="#000000" fill-rule="nonzero"/>
                                </g>
                            </g>
                        </g>
                    </g>
                </g>
                <path class="typst-shape" fill="#ff4136" fill-rule="nonzero" transform="matrix(1 0 0 1 136.1889763779528 24.922455999999993)" d="M 0 0m 2 0 c -1.1035681 0 -2 0.896432 -2 2 c 0 1.1035681 0.896432 2 2 2 c 1.1035681 0 2 -0.8964319 2 -2 c 0 -1.1035681 -0.8964319 -2 -2 -2 Z "/>
            </g>
        </g>
    </g>
    <defs id="glyph">
        <symbol id="gDC2D78BB32C727F25215D3965BE0A1FA" overflow="visible">
            <path d="M 0 0m 1.793 4.862 c -0.495 0 -0.88 -0.2750001 -1.155 -0.8249998 c -0.20900002 -0.42900014 -0.319 -0.7260003 -0.319 -0.8910003 c 0 -0.09899998 0.055000007 -0.1539998 0.176 -0.1539998 c 0.15399998 0 0.16499996 0.065999985 0.20899999 0.23099995 c 0.25300002 0.86899996 0.605 1.309 1.056 1.309 c 0.143 0 0.22000003 -0.09899998 0.22000003 -0.29699993 c 0 -0.17600012 -0.055000067 -0.42900014 -0.176 -0.74800014 c -0.41799998 -1.1329999 -0.627 -1.892 -0.627 -2.299 c 0 -0.83599997 0.51699996 -1.331 1.3639998 -1.331 c 0.36300015 0 0.704 0.132 1.0120001 0.396 c -0.385 -1.452 -0.99 -2.178 -1.8149999 -2.178 c -0.37400007 0 -0.6270001 0.12099993 -0.75900006 0.36299992 c 0.44000006 0.022000074 0.65999997 0.23100007 0.65999997 0.62700003 c 0 0.27500004 -0.14299989 0.41799998 -0.43999994 0.41799998 c -0.407 0 -0.649 -0.34099996 -0.649 -0.74799997 c 0 -0.605 0.55 -0.9899999 1.188 -0.9899999 c 1.265 0 2.2990003 1.1659999 2.574 2.244 l 1.0340004 4.158 c 0.032999992 0.12100029 0.043999672 0.20900011 0.043999672 0.26399994 c 0 0.22000027 -0.12099981 0.3300004 -0.35199976 0.3300004 c -0.17600012 0 -0.31900024 -0.0880003 -0.41800022 -0.25300026 c -0.065999985 -0.23099995 -0.12099981 -0.4289999 -0.1539998 -0.59399986 l -0.704 -2.8270001 c -0.11000013 -0.39600003 -0.6930001 -0.89100003 -1.1880002 -0.89100003 c -0.41799998 0 -0.62699986 0.275 -0.62699986 0.83599997 c 0 0.462 0.18700004 1.166 0.54999995 2.112 c 0.14299989 0.385 0.22000003 0.6489999 0.22000003 0.803 c 0 0.53900003 -0.385 0.93499994 -0.924 0.93499994 Z "/>
        </symbol>
        <symbol id="g7E389D4670EF3430D1D2A11967DBC89" overflow="visible">
            <path d="M 0 0m 7.678 4.037 h -6.798 c -0.176 0 -0.264 -0.0880003 -0.264 -0.25300026 c 0 -0.16499996 0.088 -0.25300002 0.264 -0.25300002 h 6.798 c 0.17600012 0 0.26399994 0.08800006 0.26399994 0.25300002 c 0 0.13199997 -0.12099981 0.25300026 -0.26399994 0.25300026 Z m 0 -2.0680003 h -6.798 c -0.176 0 -0.264 -0.08799994 -0.264 -0.25300002 c 0 -0.16499996 0.088 -0.25300002 0.264 -0.25300002 h 6.798 c 0.17600012 0 0.26399994 0.08800006 0.26399994 0.25300002 c 0 0.143 -0.12099981 0.25300002 -0.26399994 0.25300002 Z "/>
        </symbol>
        <symbol id="g738D4A4AC60728BC0177426F29B6AD2A" overflow="visible">
            <path d="M 0 0m 5.797 4.103 c 0 0.50600004 -0.4949999 0.7589998 -1.0450001 0.7589998 c -0.47300005 0 -0.8469999 -0.25299978 -1.1329999 -0.7589998 c -0.23099995 0.50600004 -0.61599994 0.7589998 -1.177 0.7589998 c -0.5389999 0 -0.979 -0.25299978 -1.331 -0.74800014 c -0.29699993 -0.4289999 -0.45099998 -0.7479999 -0.45099998 -0.9569998 c 0 -0.09899998 0.055000007 -0.15400004 0.16500002 -0.15400004 c 0.09900004 0 0.16500002 0.055000067 0.18699998 0.15400004 c 0.20899999 0.638 0.671 1.3859997 1.4080001 1.3859997 c 0.36299992 0 0.5389998 -0.23099995 0.5389998 -0.6819997 c 0 -0.23100019 -0.19799995 -1.089 -0.58299994 -2.5630002 c -0.18700004 -0.737 -0.51699996 -1.1 -0.9899999 -1.1 c -0.15400004 0 -0.29700005 0.033000007 -0.41800004 0.088000014 c 0.28599995 0.109999985 0.42899996 0.30799997 0.42899996 0.594 c 0 0.286 -0.143 0.42900002 -0.43999994 0.42900002 c -0.36300004 0 -0.638 -0.30799997 -0.638 -0.671 c 0 -0.50600004 0.51699996 -0.759 1.056 -0.759 c 0.462 0 0.83599997 0.253 1.1329999 0.759 c 0.20900011 -0.50600004 0.605 -0.759 1.177 -0.759 c 0.5279999 0 0.96799994 0.253 1.3200002 0.74799997 c 0.29699993 0.42900002 0.45099974 0.748 0.45099974 0.957 c 0 0.09899998 -0.05499983 0.15400004 -0.16499996 0.15400004 c -0.09899998 0 -0.1539998 -0.055000067 -0.1869998 -0.15400004 c -0.18700027 -0.627 -0.68200016 -1.386 -1.3970001 -1.386 c -0.36300015 0 -0.54999995 0.21999998 -0.54999995 0.671 c 0 0.14299995 0.05499983 0.45099992 0.17599988 0.9459999 l 0.37400007 1.485 c 0.20899987 0.82500005 0.54999995 1.2429998 1.0340002 1.2429998 c 0.1539998 0 0.29699993 -0.032999992 0.41799974 -0.08799982 c -0.29699993 -0.09899998 -0.44000006 -0.29699993 -0.44000006 -0.59399986 c 0 -0.286 0.15400028 -0.42900014 0.4510002 -0.42900014 c 0.35199976 0 0.62699986 0.319 0.62699986 0.67100024 Z "/>
        </symbol>
        <symbol id="g3E7B12B0DCCC88C0CEDBD8C4E965462E" overflow="visible">
            <path d="M 0 0m 0.9163 3.2648 c 0.24639994 0 0.43119997 0.18479991 0.43119997 0.43120003 c 0 0.27719998 -0.14629996 0.42350006 -0.43119997 0.43120003 c 0.16940004 0.36189985 0.5544 0.6545 1.0548999 0.6545 c 0.6775999 0 1.1242001 -0.50820017 1.1242001 -1.1858001 c 0 -0.36960006 -0.13090014 -0.7238002 -0.40040016 -1.0703001 c -0.1308999 -0.17709994 -0.23099995 -0.30029988 -0.30029988 -0.36960006 l -1.8249 -1.8094999 c -0.10010001 -0.092400014 -0.08470002 -0.1155 -0.08470002 -0.3465 h 3.1724 l 0.23869991 1.4476 h -0.32340002 c -0.053900003 -0.4081 -0.11549997 -0.64680004 -0.18479991 -0.7007 c -0.03850007 -0.023100019 -0.27719998 -0.03850001 -0.7314999 -0.03850001 h -1.3090001 c 0.5159 0.45429993 0.9933001 0.86239994 1.4476 1.2243 c 0.34649992 0.2694999 0.59290004 0.50820005 0.7469001 0.71609986 c 0.23099995 0.30030012 0.34649992 0.6160002 0.34649992 0.94710016 c 0 0.47739983 -0.18479991 0.8547001 -0.56209993 1.1318998 c -0.3311 0.25409985 -0.7469001 0.38500023 -1.2397001 0.38500023 c -0.42349994 0 -0.7853999 -0.12319994 -1.1011 -0.3696003 c -0.3311 -0.26949978 -0.50049996 -0.60829973 -0.50049996 -1.0240998 c 0 -0.26180005 0.19250003 -0.45429993 0.4312 -0.45429993 Z "/>
        </symbol>
        <symbol id="gD6BF3B01383B5D4EFB6EF293C0231013" overflow="visible">
            <path d="M 0 0m 1.883 4.662 c -0.28699994 -0.29400015 -0.707 -0.44099998 -1.26 -0.44099998 v -0.273 c 0.36400002 0 0.66499996 0.055999994 0.896 0.16799998 v -3.5420003 c 0 -0.12599999 -0.027999997 -0.20999998 -0.09099996 -0.245 c -0.06300008 -0.034999996 -0.23800004 -0.055999994 -0.51800007 -0.055999994 h -0.245 v -0.273 c 0.17500001 0.014 0.55300003 0.021000002 1.1340001 0.021000002 c 0.5810001 0 0.9590001 -0.007000001 1.1340001 -0.021000002 v 0.273 h -0.24499989 c -0.28700018 0 -0.46200013 0.020999998 -0.5180001 0.055999994 c -0.055999994 0.035000026 -0.09100008 0.11900002 -0.09100008 0.245 v 3.8780003 c 0 0.16800022 -0.013999939 0.21000004 -0.19599998 0.21000004 Z "/>
        </symbol>
        <symbol id="gA943ED29014B9B6A5991712B382DD4E0" overflow="visible">
            <path d="M 0 0m 1.659 4.662 c -0.357 0 -0.658 -0.12599993 -0.917 -0.37800026 c -0.25900003 -0.25199986 -0.39200002 -0.54599977 -0.39200002 -0.9029999 c 0 -0.23799992 0.17500001 -0.41299987 0.39200002 -0.41299987 c 0.20999998 0 0.38500005 0.18199992 0.38500005 0.39199996 c 0 0.23099995 -0.16800004 0.39199996 -0.39200008 0.39199996 c -0.020999968 0 -0.034999967 0 -0.048999965 -0.0069999695 c 0.13299996 0.34300017 0.44100004 0.6439998 0.882 0.6439998 c 0.5739999 0 0.8959999 -0.49699974 0.8959999 -1.0989997 c 0 -0.4690001 -0.23799992 -0.97300005 -0.714 -1.5050001 l -1.316 -1.4840001 c -0.09099999 -0.10499999 -0.08399999 -0.09799999 -0.08399999 -0.301 h 2.5970001 l 0.20300007 1.26 h -0.23099995 c -0.055999994 -0.35699993 -0.10500002 -0.55999994 -0.14700007 -0.62299997 c -0.035000086 -0.035000026 -0.24499989 -0.049000025 -0.6300001 -0.049000025 h -1.1689999 l 0.679 0.665 c 0.47599995 0.44800007 1.078 0.931 1.281 1.302 c 0.1400001 0.24500012 0.21000004 0.49 0.21000004 0.73500013 c 0 0.826 -0.64400005 1.372 -1.4840001 1.372 Z "/>
        </symbol>
        <symbol id="gABE9B13F62EAAE5DDFEF31EC7FDF3D6A" overflow="visible">
            <path d="M 0 0m 2.121 2.4710002 c 0.46200013 0.17499995 0.89600015 0.61599994 0.89600015 1.211 c 0 0.30099988 -0.14700007 0.546 -0.43400002 0.73500013 c -0.2520001 0.16099977 -0.53900003 0.24499989 -0.8610002 0.24499989 c -0.31499994 0 -0.58799994 -0.08400011 -0.833 -0.24499989 c -0.273 -0.18200016 -0.413 -0.42000008 -0.413 -0.7210002 c 0 -0.23099995 0.15399998 -0.39199996 0.37800002 -0.39199996 c 0.22400004 0 0.37799996 0.16100001 0.37799996 0.385 c 0 0.23099995 -0.13300002 0.35699987 -0.399 0.3709998 c 0.18199998 0.24500036 0.46900004 0.3710003 0.861 0.3710003 c 0.42000008 0 0.6300001 -0.24499989 0.6300001 -0.7420001 c 0 -0.2939999 -0.055999994 -0.53900003 -0.16100001 -0.7420001 c -0.18900001 -0.33599997 -0.44800007 -0.39899993 -0.8820001 -0.39899993 c -0.08399999 -0.013999939 -0.12599993 -0.049000025 -0.12599993 -0.11199999 c 0 -0.10500002 0.048999906 -0.10500002 0.18900001 -0.10500002 h 0.301 c 0.525 0 0.791 -0.37100005 0.791 -1.12 c 0 -0.5950001 -0.21700001 -1.113 -0.7490001 -1.113 c -0.45500004 0 -0.791 0.154 -0.994 0.462 c 0.245 -0.0069999695 0.427 0.17500001 0.427 0.41300005 c 0 0.23800004 -0.17499995 0.413 -0.413 0.413 c -0.273 0 -0.41300002 -0.13999999 -0.41300002 -0.427 c 0 -0.34300005 0.15400001 -0.61600006 0.46200004 -0.83300006 c 0.273 -0.18900001 0.595 -0.28 0.952 -0.28 c 0.39900005 0 0.742 0.133 1.0430001 0.39200002 c 0.30099988 0.259 0.44799995 0.581 0.44799995 0.97300005 c 0 0.658 -0.5180001 1.113 -1.0780001 1.2600001 Z "/>
        </symbol>
        <symbol id="g8268719DDC033D34483D65636784F1B9" overflow="visible">
            <path d="M 0 0m 2.4710002 4.7390003 c -0.0630002 0 -0.1190002 -0.035000324 -0.16100001 -0.09800005 l -2.114 -3.2480001 v -0.25199997 h 1.827 v -0.574 c 0 -0.12600002 -0.027999997 -0.21000001 -0.0769999 -0.24500003 c -0.049000025 -0.034999996 -0.18200004 -0.048999995 -0.4130001 -0.048999995 h -0.17499995 v -0.273 c 0.20299995 0.014 0.525 0.021000002 0.9590001 0.021000002 c 0.43400002 0 0.75600004 -0.007000001 0.9589999 -0.021000002 v 0.273 h -0.17499995 c -0.23099995 0 -0.36400008 0.013999999 -0.41299987 0.048999995 c -0.049000025 0.035000026 -0.07700014 0.11900002 -0.07700014 0.24500003 v 0.574 h 0.6860001 v 0.273 h -0.6860001 v 3.2060003 c 0 0.069999695 -0.049000025 0.11899996 -0.13999987 0.11899996 Z m -0.40600014 -0.86800027 v -2.457 h -1.5960001 Z "/>
        </symbol>
        <symbol id="g6D6C58FAF7DAB0C365156821FF2469DF" overflow="visible">
            <path d="M 0 0m 0.82600003 2.2050002 c 0.034999967 0 0.07700002 0.027999878 0.11199999 0.0769999 c 0.20999998 0.31500006 0.49700004 0.4690001 0.861 0.4690001 c 0.24500012 0 0.43400002 -0.1400001 0.55999994 -0.42700005 c 0.07700014 -0.18900013 0.1190002 -0.47600007 0.1190002 -0.86100006 c 0 -0.44099998 -0.055999994 -0.749 -0.16100001 -0.93100005 c -0.17500019 -0.287 -0.4130001 -0.43400002 -0.7140001 -0.43400002 c -0.46899998 0 -0.84000003 0.33600003 -0.966 0.70000005 c 0.020999968 -0.007000029 0.035000026 0 0.06300002 0 c 0.20999998 0 0.385 0.16100001 0.385 0.371 c 0 0.21700001 -0.17500001 0.36399996 -0.385 0.36399996 c -0.24500003 0 -0.35000002 -0.1329999 -0.35000002 -0.39199996 c 0 -0.70000005 0.56700003 -1.2950001 1.2670001 -1.2950001 c 0.42700005 0 0.7909999 0.154 1.085 0.462 c 0.2939999 0.308 0.44099998 0.679 0.44099998 1.1060001 c 0 0.40600002 -0.11899996 0.75600004 -0.3570001 1.0570002 c -0.25899982 0.329 -0.58099985 0.49 -0.97299993 0.49 c -0.329 0 -0.61600006 -0.10500002 -0.84700006 -0.31500006 v 1.246 c 0.18900007 -0.055999994 0.371 -0.08400011 0.56 -0.08400011 c 0.32200003 0 0.602 0.07700014 0.84000015 0.23799992 c 0.21700001 0.1329999 0.36399984 0.26600027 0.44799995 0.3920002 c 0.042000055 0.055999756 0.062999964 0.09800005 0.062999964 0.11899996 c 0 0.07000017 -0.035000086 0.10500002 -0.10500002 0.10500002 c -0.385 -0.14699984 -0.714 -0.22399998 -0.98 -0.22399998 c -0.31500006 0 -0.61600006 0.062999725 -0.90300006 0.1960001 c -0.034999967 0.013999939 -0.062999964 0.020999908 -0.09099996 0.020999908 c -0.06300002 0 -0.09799999 -0.0630002 -0.09799999 -0.1960001 v -2.0440001 c 0 -0.14699984 0 -0.2099998 0.12599999 -0.2099998 Z "/>
        </symbol>
        <symbol id="g3F968EFE1510F51CCF9D41F4CC3A9EC7" overflow="visible">
            <path d="M 0 0m 2.681 3.528 c 0.23100019 0 0.34300017 0.11899996 0.34300017 0.3570001 c 0 0.5039997 -0.37800002 0.77699995 -0.89600015 0.77699995 c -0.581 0 -1.043 -0.27300024 -1.3859999 -0.826 c -0.30100003 -0.47600007 -0.44800004 -1.0150001 -0.44800004 -1.6240001 c 0 -0.88900006 0.16100001 -1.5120001 0.49000004 -1.8830001 c 0.27999997 -0.322 0.602 -0.48299998 0.97300005 -0.48299998 c 0.42699993 0 0.77700007 0.161 1.0500001 0.48299998 c 0.25899982 0.30800003 0.39199996 0.679 0.39199996 1.1060001 c 0 0.42700005 -0.12599993 0.791 -0.37800002 1.0920001 c -0.26600003 0.3219998 -0.60899997 0.49 -1.0220001 0.49 c -0.36399996 0 -0.64399993 -0.20300007 -0.833 -0.595 v 0.041999817 c 0 0.7910001 0.19600004 1.463 0.616 1.7710001 c 0.18200004 0.1329999 0.37100005 0.1960001 0.55999994 0.1960001 c 0.2520001 0 0.43400002 -0.07000017 0.5530002 -0.21700001 c -0.23800015 0 -0.3570001 -0.1329999 -0.3570001 -0.34300017 c 0 -0.19599986 0.14700007 -0.34299994 0.34299994 -0.34299994 Z m -0.273 -1.148 c 0.07700014 -0.16100001 0.1190002 -0.47600007 0.1190002 -0.9380001 c 0 -0.45499998 -0.035000086 -0.756 -0.11200023 -0.91 c -0.13999987 -0.287 -0.35699987 -0.43400002 -0.6579999 -0.43400002 c -0.20300007 0 -0.357 0.07000001 -0.4690001 0.21 c -0.09099996 0.11200002 -0.15399992 0.21000001 -0.18199992 0.28700003 c -0.08399999 0.21700001 -0.12600005 0.546 -0.12600005 0.9940001 c 0 0.19599998 0.027999997 0.385 0.07700002 0.56700003 c 0.09099996 0.329 0.35000002 0.63699985 0.735 0.63699985 c 0.273 0 0.48300004 -0.13999987 0.61599994 -0.41299987 Z "/>
        </symbol>
        <symbol id="g698A2E510575197F41EF48B8F15D935A" overflow="visible">
            <path d="M 0 0m 3.325 4.228 c 0.049000025 0.0630002 0.07000017 0.1539998 0.07000017 0.2800002 h -1.6940001 c -0.48300004 0 -0.75600004 0.027999878 -0.80500007 0.0909996 c -0.021000028 0.021000385 -0.041999996 0.07000017 -0.055999994 0.13300037 h -0.21700001 l -0.238 -1.4840002 h 0.23099998 c 0.07000005 0.39199996 0.12600005 0.602 0.16800004 0.6370001 c 0.020999968 0.020999908 0.23800004 0.034999847 0.651 0.034999847 h 1.3720001 l -0.7420001 -1.05 c -0.56700003 -0.80500007 -0.847 -1.6730001 -0.847 -2.618 c 0 -0.273 0.11199999 -0.40600002 0.34299994 -0.40600002 c 0.23100007 0 0.34300005 0.133 0.34300005 0.40600002 v 0.35700002 c 0 1.0640001 0.16799998 1.8340001 0.49699998 2.3030002 Z "/>
        </symbol>
        <symbol id="g8502CBFA2B535E964806D0BC041E257E" overflow="visible">
            <path d="M 0 0m 1.75 4.662 c -0.34299994 0 -0.64399993 -0.11199999 -0.89599997 -0.33599997 c -0.25200003 -0.22399998 -0.37800002 -0.5040002 -0.37800002 -0.8470001 c 0 -0.28699994 0.10500002 -0.546 0.315 -0.77699995 c 0.049000025 -0.055999994 0.20300001 -0.17499995 0.462 -0.3570001 c -0.637 -0.329 -0.959 -0.7559999 -0.959 -1.274 c 0 -0.37099993 0.15400001 -0.67199993 0.455 -0.903 c 0.28000003 -0.21700001 0.609 -0.32200003 0.994 -0.32200003 c 0.39199996 0 0.73500013 0.126 1.0220001 0.37800002 c 0.28699994 0.252 0.43400002 0.581 0.43400002 0.9660001 c 0 0.32200003 -0.11199999 0.60899997 -0.34299994 0.86800003 c -0.08400011 0.09100008 -0.30100012 0.2520001 -0.64400005 0.4690001 c 0.53900003 0.28699994 0.80500007 0.651 0.80500007 1.0779998 c 0 0.6370001 -0.6090002 1.0570002 -1.2670002 1.0570002 Z m 0.9030001 -1.0570002 c 0 -0.36399984 -0.21700001 -0.6789999 -0.651 -0.93799996 l -0.83300006 0.546 c -0.21700001 0.1400001 -0.329 0.32200003 -0.329 0.53900003 c 0 0.41999984 0.45500004 0.67900014 0.903 0.67900014 c 0.48300004 0 0.9100001 -0.34299994 0.9100001 -0.8260002 Z m -0.9030001 -3.507 c -0.574 0 -1.0569999 0.41300005 -1.0569999 0.973 c 0 0.4690001 0.259 0.8470001 0.777 1.1340002 l 0.826 -0.5250001 c 0.33599997 -0.21700001 0.5040002 -0.462 0.5040002 -0.74200004 c 0 -0.504 -0.5250001 -0.84000003 -1.0500002 -0.84000003 Z "/>
        </symbol>
        <symbol id="gAA8AE50BFE95A9CF91F47E9A7019775A" overflow="visible">
            <path d="M 0 0m 0.81200004 0.98 c -0.231 0 -0.34300002 -0.11900002 -0.34300002 -0.357 c 0 -0.52500004 0.42700002 -0.777 0.98 -0.777 c 0.56000006 0 1.008 0.28 1.337 0.847 c 0.273 0.46900004 0.4130001 1.0080001 0.4130001 1.6099999 c 0 0.8890002 -0.16100001 1.519 -0.48300004 1.8900003 c -0.273 0.31500006 -0.58800006 0.46899986 -0.94500005 0.46899986 c -0.413 0 -0.75600004 -0.14699984 -1.029 -0.44799995 c -0.30100003 -0.31500006 -0.44800004 -0.6930001 -0.44800004 -1.1340001 c 0 -0.42700005 0.12600002 -0.7910001 0.37800005 -1.0920001 c 0.26599997 -0.32200003 0.60899997 -0.48300004 1.022 -0.48300004 c 0.36400008 0 0.64400005 0.1960001 0.8330002 0.5880002 v -0.09100008 c 0 -0.763 -0.13300014 -1.2810001 -0.40600014 -1.5610001 c -0.21700001 -0.231 -0.44799995 -0.343 -0.679 -0.343 c -0.27999997 0 -0.48299998 0.06299999 -0.616 0.196 c 0.21699995 0 0.32900006 0.12600002 0.32900006 0.34300002 c 0 0.19599998 -0.14700007 0.343 -0.34300005 0.343 Z m 0.88900006 0.742 c -0.273 0 -0.47600007 0.1400001 -0.61600006 0.41999996 c -0.07700002 0.16100001 -0.11900002 0.47600007 -0.11900002 0.93100023 c 0 0.45499992 0.048999965 0.763 0.14000005 0.93799996 c 0.15399992 0.2800002 0.37800002 0.42000008 0.66499996 0.42000008 c 0.28700006 0 0.4970001 -0.17500019 0.63 -0.5250001 c 0.07700014 -0.18900013 0.12600017 -0.5109999 0.12600017 -0.9660001 c 0 -0.60899997 -0.273 -1.218 -0.8260001 -1.218 Z "/>
        </symbol>
        <symbol id="g8619915BFDBFFA2C9D0521143AA81600" overflow="visible">
            <path d="M 0 0m 1.743 -0.154 c 0.987 0 1.477 0.798 1.477 2.394 c 0 1.0710001 -0.22399998 1.7850001 -0.66499996 2.135 c -0.24499989 0.18900013 -0.5179999 0.28700018 -0.80500007 0.28700018 c -0.987 0 -1.477 -0.80500007 -1.477 -2.4220002 c 0 -1.288 0.343 -2.394 1.47 -2.394 Z m 0.78400016 3.8220003 c 0.048999786 -0.24500012 0.06999993 -0.6930001 0.06999993 -1.3440001 c 0 -0.64400005 -0.028000116 -1.1200001 -0.07700014 -1.4280001 c -0.09099984 -0.56 -0.3499999 -0.84000003 -0.77699995 -0.84000003 c -0.16100001 0 -0.32200003 0.063 -0.46899998 0.18200001 c -0.18900001 0.16100001 -0.301 0.49000004 -0.35000002 0.99399996 c -0.020999968 0.17500007 -0.027999997 0.53900003 -0.027999997 1.0920001 c 0 0.60899997 0.021000028 1.036 0.055999994 1.267 c 0.062999964 0.385 0.18900001 0.6300001 0.385 0.73500013 c 0.15400004 0.08400011 0.28700006 0.12599993 0.40600002 0.12599993 c 0.45499992 0 0.707 -0.3709998 0.78400016 -0.7839999 Z "/>
        </symbol>
    </defs>
</svg>
