<svg class="typst-doc" viewBox="0 0 183.11930639370078 192.33190481889764" width="183.11930639370078pt" height="192.33190481889764pt" xmlns="http://www.w3.org/2000/svg" xmlns:xlink="http://www.w3.org/1999/xlink" xmlns:h5="http://www.w3.org/1999/xhtml">
    <path class="typst-shape" fill="#ffffff" fill-rule="nonzero" d="M 0 0v 192.33191 h 183.11931 v -192.33191 Z "/>
    <g>
        <g class="typst-group" transform="matrix(1 0 0 1 0.5 0.5)">
            <g>
                <path class="typst-shape" fill="none" stroke="#aaaaaa" stroke-width="1" stroke-linecap="butt" stroke-linejoin="miter" stroke-miterlimit="4" transform="matrix(1 0 0 1 2.125984251968504 21.253164661417323)" d="M 0 0h 179.99327 "/>
                <path class="typst-shape" fill="none" stroke="#aaaaaa" stroke-width="1" stroke-linecap="butt" stroke-linejoin="miter" stroke-miterlimit="4" transform="matrix(1 0 0 1 176.4500150551181 19.127180409448822)" d="M 0 0l 5.6692915 2.1259842 l -5.6692915 2.1259842 "/>
                <path class="typst-shape" fill="none" stroke="#aaaaaa" stroke-width="1" stroke-linecap="butt" stroke-linejoin="miter" stroke-miterlimit="4" transform="matrix(1 0 0 1 2.125984251968504 0.0000566242195934968)" d="M 0 0m 0 191.33185 v -191.33185 "/>
                <path class="typst-shape" fill="none" stroke="#aaaaaa" stroke-width="1" stroke-linecap="butt" stroke-linejoin="miter" stroke-miterlimit="4" d="M 0 0m 0 5.6692915 l 2.1259842 -5.6692915 l 2.1259842 5.6692915 "/>
                <path class="typst-shape" fill="none" stroke="#aaaaaa" stroke-width="0.5" stroke-linecap="butt" stroke-linejoin="miter" stroke-miterlimit="4" transform="matrix(1 0 0 1 13.46456692913386 18.418518992125982)" d="M 0 0m 0 5.6692915 v -5.6692915 "/>
                <path class="typst-shape" fill="#ff4136" fill-rule="nonzero" transform="matrix(1 0 0 1 11.46456692913386 19.253164661417323)" d="M 0 0m 2 0 c -1.1035681 0 -2 0.896432 -2 2 c 0 1.1035681 0.896432 2 2 2 c 1.1035681 0 2 -0.8964319 2 -2 c 0 -1.1035681 -0.8964319 -2 -2 -2 Z "/>
                <path class="typst-shape" fill="none" stroke="#aaaaaa" stroke-width="0.5" stroke-linecap="butt" stroke-linejoin="miter" stroke-miterlimit="4" transform="matrix(1 0 0 1 24.80314960629921 18.418518992125982)" d="M 0 0m 0 5.6692915 v -5.6692915 "/>
                <path class="typst-shape" fill="#ff4136" fill-rule="nonzero" transform="matrix(1 0 0 1 22.80314960629921 41.93033001574803)" d="M 0 0m 2 0 c -1.1035681 0 -2 0.896432 -2 2 c 0 1.1035681 0.896432 2 2 2 c 1.1035681 0 2 -0.8964319 2 -2 c 0 -1.1035681 -0.8964319 -2 -2 -2 Z "/>
                <path class="typst-shape" fill="none" stroke="#aaaaaa" stroke-width="0.5" stroke-linecap="butt" stroke-linejoin="miter" stroke-miterlimit="4" transform="matrix(1 0 0 1 36.14173228346458 18.418518992125982)" d="M 0 0m 0 5.6692915 v -5.6692915 "/>
                <path class="typst-shape" fill="#ff4136" fill-rule="nonzero" transform="matrix(1 0 0 1 34.14173228346458 19.253164661417323)" d="M 0 0m 2 0 c -1.1035681 0 -2 0.896432 -2 2 c 0 1.1035681 0.896432 2 2 2 c 1.1035681 0 2 -0.8964319 2 -2 c 0 -1.1035681 -0.8964319 -2 -2 -2 Z "/>
                <path class="typst-shape" fill="none" stroke="#aaaaaa" stroke-width="0.5" stroke-linecap="butt" stroke-linejoin="miter" stroke-miterlimit="4" transform="matrix(1 0 0 1 47.48031496062992 18.418518992125982)" d="M 0 0m 0 5.6692915 v -5.6692915 "/>
                <path class="typst-shape" fill="#ff4136" fill-rule="nonzero" transform="matrix(1 0 0 1 45.48031496062992 64.60749537007875)" d="M 0 0m 2 0 c -1.1035681 0 -2 0.896432 -2 2 c 0 1.1035681 0.896432 2 2 2 c 1.1035681 0 2 -0.8964319 2 -2 c 0 -1.1035681 -0.8964319 -2 -2 -2 Z "/>
                <path class="typst-shape" fill="none" stroke="#aaaaaa" stroke-width="0.5" stroke-linecap="butt" stroke-linejoin="miter" stroke-miterlimit="4" transform="matrix(1 0 0 1 58.81889763779528 18.418518992125982)" d="M 0 0m 0 5.6692915 v -5.6692915 "/>
                <path class="typst-shape" fill="#ff4136" fill-rule="nonzero" transform="matrix(1 0 0 1 56.81889763779528 19.253164661417323)" d="M 0 0m 2 0 c -1.1035681 0 -2 0.896432 -2 2 c 0 1.1035681 0.896432 2 2 2 c 1.1035681 0 2 -0.8964319 2 -2 c 0 -1.1035681 -0.8964319 -2 -2 -2 Z "/>
                <path class="typst-shape" fill="none" stroke="#aaaaaa" stroke-width="0.5" stroke-linecap="butt" stroke-linejoin="miter" stroke-miterlimit="4" transform="matrix(1 0 0 1 70.15748031496065 18.418518992125982)" d="M 0 0m 0 5.6692915 v -5.6692915 "/>
                <path class="typst-shape" fill="#ff4136" fill-rule="nonzero" transform="matrix(1 0 0 1 68.15748031496065 87.28466072440946)" d="M 0 0m 2 0 c -1.1035681 0 -2 0.896432 -2 2 c 0 1.1035681 0.896432 2 2 2 c 1.1035681 0 2 -0.8964319 2 -2 c 0 -1.1035681 -0.8964319 -2 -2 -2 Z "/>
                <path class="typst-shape" fill="none" stroke="#aaaaaa" stroke-width="0.5" stroke-linecap="butt" stroke-linejoin="miter" stroke-miterlimit="4" transform="matrix(1 0 0 1 81.496062992126 18.418518992125982)" d="M 0 0m 0 5.6692915 v -5.6692915 "/>
                <path class="typst-shape" fill="#ff4136" fill-rule="nonzero" transform="matrix(1 0 0 1 79.496062992126 19.253164661417323)" d="M 0 0m 2 0 c -1.1035681 0 -2 0.896432 -2 2 c 0 1.1035681 0.896432 2 2 2 c 1.1035681 0 2 -0.8964319 2 -2 c 0 -1.1035681 -0.8964319 -2 -2 -2 Z "/>
                <path class="typst-shape" fill="none" stroke="#aaaaaa" stroke-width="0.5" stroke-linecap="butt" stroke-linejoin="miter" stroke-miterlimit="4" transform="matrix(1 0 0 1 92.83464566929135 18.418518992125982)" d="M 0 0m 0 5.6692915 v -5.6692915 "/>
                <path class="typst-shape" fill="#ff4136" fill-rule="nonzero" transform="matrix(1 0 0 1 90.83464566929135 109.96182607874017)" d="M 0 0m 2 0 c -1.1035681 0 -2 0.896432 -2 2 c 0 1.1035681 0.896432 2 2 2 c 1.1035681 0 2 -0.8964319 2 -2 c 0 -1.1035681 -0.8964319 -2 -2 -2 Z "/>
                <path class="typst-shape" fill="none" stroke="#aaaaaa" stroke-width="0.5" stroke-linecap="butt" stroke-linejoin="miter" stroke-miterlimit="4" transform="matrix(1 0 0 1 104.17322834645671 18.418518992125982)" d="M 0 0m 0 5.6692915 v -5.6692915 "/>
                <path class="typst-shape" fill="#ff4136" fill-rule="nonzero" transform="matrix(1 0 0 1 102.17322834645671 19.253164661417323)" d="M 0 0m 2 0 c -1.1035681 0 -2 0.896432 -2 2 c 0 1.1035681 0.896432 2 2 2 c 1.1035681 0 2 -0.8964319 2 -2 c 0 -1.1035681 -0.8964319 -2 -2 -2 Z "/>
                <path class="typst-shape" fill="none" stroke="#aaaaaa" stroke-width="0.5" stroke-linecap="butt" stroke-linejoin="miter" stroke-miterlimit="4" transform="matrix(1 0 0 1 115.51181102362204 18.418518992125982)" d="M 0 0m 0 5.6692915 v -5.6692915 "/>
                <path class="typst-shape" fill="#ff4136" fill-rule="nonzero" transform="matrix(1 0 0 1 113.51181102362204 132.63899143307086)" d="M 0 0m 2 0 c -1.1035681 0 -2 0.896432 -2 2 c 0 1.1035681 0.896432 2 2 2 c 1.1035681 0 2 -0.8964319 2 -2 c 0 -1.1035681 -0.8964319 -2 -2 -2 Z "/>
                <path class="typst-shape" fill="none" stroke="#aaaaaa" stroke-width="0.5" stroke-linecap="butt" stroke-linejoin="miter" stroke-miterlimit="4" transform="matrix(1 0 0 1 126.85039370078742 18.418518992125982)" d="M 0 0m 0 5.6692915 v -5.6692915 "/>
                <path class="typst-shape" fill="#ff4136" fill-rule="nonzero" transform="matrix(1 0 0 1 124.85039370078741 19.253164661417323)" d="M 0 0m 2 0 c -1.1035681 0 -2 0.896432 -2 2 c 0 1.1035681 0.896432 2 2 2 c 1.1035681 0 2 -0.8964319 2 -2 c 0 -1.1035681 -0.8964319 -2 -2 -2 Z "/>
                <path class="typst-shape" fill="none" stroke="#aaaaaa" stroke-width="0.5" stroke-linecap="butt" stroke-linejoin="miter" stroke-miterlimit="4" transform="matrix(1 0 0 1 138.1889763779528 18.418518992125982)" d="M 0 0m 0 5.6692915 v -5.6692915 "/>
                <path class="typst-shape" fill="#ff4136" fill-rule="nonzero" transform="matrix(1 0 0 1 136.1889763779528 155.31615678740158)" d="M 0 0m 2 0 c -1.1035681 0 -2 0.896432 -2 2 c 0 1.1035681 0.896432 2 2 2 c 1.1035681 0 2 -0.8964319 2 -2 c 0 -1.1035681 -0.8964319 -2 -2 -2 Z "/>
                <path class="typst-shape" fill="none" stroke="#aaaaaa" stroke-width="0.5" stroke-linecap="butt" stroke-linejoin="miter" stroke-miterlimit="4" transform="matrix(1 0 0 1 149.5275590551181 18.418518992125982)" d="M 0 0m 0 5.6692915 v -5.6692915 "/>
                <path class="typst-shape" fill="#ff4136" fill-rule="nonzero" transform="matrix(1 0 0 1 147.5275590551181 19.253164661417323)" d="M 0 0m 2 0 c -1.1035681 0 -2 0.896432 -2 2 c 0 1.1035681 0.896432 2 2 2 c 1.1035681 0 2 -0.8964319 2 -2 c 0 -1.1035681 -0.8964319 -2 -2 -2 Z "/>
                <path class="typst-shape" fill="none" stroke="#aaaaaa" stroke-width="0.5" stroke-linecap="butt" stroke-linejoin="miter" stroke-miterlimit="4" transform="matrix(1 0 0 1 160.8661417322835 18.418518992125982)" d="M 0 0m 0 5.6692915 v -5.6692915 "/>
                <path class="typst-shape" fill="#ff4136" fill-rule="nonzero" transform="matrix(1 0 0 1 158.86614173228347 177.9933221417323)" d="M 0 0m 2 0 c -1.1035681 0 -2 0.896432 -2 2 c 0 1.1035681 0.896432 2 2 2 c 1.1035681 0 2 -0.8964319 2 -2 c 0 -1.1035681 -0.8964319 -2 -2 -2 Z "/>
            </g>
        </g>
    </g>
</svg>
