<svg class="typst-doc" viewBox="0 0 109.35427183307087 140.65382677165354" width="109.35427183307087pt" height="140.65382677165354pt" xmlns="http://www.w3.org/2000/svg" xmlns:xlink="http://www.w3.org/1999/xlink" xmlns:h5="http://www.w3.org/1999/xhtml">
    <path class="typst-shape" fill="#ffffff00" fill-rule="nonzero" d="M 0 0v 140.65382 h 109.35427 v -140.65382 Z "/>
    <g>
        <g class="typst-group" transform="matrix(1 0 0 1 0.5 5)">
            <g>
                <path class="typst-shape" fill="#000000" fill-rule="nonzero" stroke="#000000" stroke-width="1.2" stroke-linecap="butt" stroke-linejoin="miter" stroke-miterlimit="4" transform="matrix(1 0 0 1 0 14.979015141744917)" d="M 0 0m 0 107.54081 l 21.508162 -107.54081 "/>
                <path class="typst-shape" fill="#000000" fill-rule="nonzero" stroke="#000000" stroke-width="1.2" stroke-linecap="butt" stroke-linejoin="miter" stroke-miterlimit="4" transform="matrix(1 0 0 1 19.145503587401574 10.809616881889777)" d="M 0 0m 3.1965387 0 l -3.1965387 5.1422577 l 2.362659 -0.9728594 l 1.8067393 1.8067389 l -0.9728596 -5.976137 Z "/>
                <path class="typst-shape" fill="none" transform="matrix(1 0 0 1 0.5195826771653539 62.009913385826785)" d="M 0 0h 10.819 v 7.634 h -10.819 v -7.634 Z "/>
                <g class="typst-group">
                    <g>
                        <g class="typst-group" transform="matrix(1 0 0 1 0.5195826456692911 62.00991332283466)">
                            <g>
                                <g class="typst-text" transform="matrix(1 0 0 -1 6.061 7.513000000000001)">
                                    <use xlink:href="#gF05301C3D4D8F4F9C066BF7FDA57A4BB" x="0" y="0" fill="#000000" fill-rule="nonzero"/>
                                </g>
                                <g class="typst-text" transform="matrix(1 0 0 -1 0 7.513000000000001)">
                                    <use xlink:href="#gE685B5C7579FE947A98B45FDFB684C99" x="0" y="0" fill="#000000" fill-rule="nonzero"/>
                                </g>
                            </g>
                        </g>
                    </g>
                </g>
                <path class="typst-shape" fill="#000000" fill-rule="nonzero" stroke="#000000" stroke-width="1.2" stroke-linecap="butt" stroke-linejoin="miter" stroke-miterlimit="4" transform="matrix(1 0 0 1 0 122.51982677165356)" d="M 0 0h 79.0786 "/>
                <path class="typst-shape" fill="#000000" fill-rule="nonzero" stroke="#000000" stroke-width="1.2" stroke-linecap="butt" stroke-linejoin="miter" stroke-miterlimit="4" transform="matrix(1 0 0 1 77.66127779527558 120.39384251968505)" d="M 0 0m 5.6692915 2.1259842 l -5.6692915 -2.1259842 l 1.4173229 2.1259842 l -1.4173229 2.1259842 l 5.6692915 -2.1259842 Z "/>
                <path class="typst-shape" fill="none" transform="matrix(1 0 0 1 40.08318503937007 122.51982677165356)" d="M 0 0h 4.873 v 12.634 h -4.873 v -12.634 Z "/>
                <g class="typst-group">
                    <g>
                        <g class="typst-group" transform="matrix(1 0 0 1 40.08318491338583 122.51982655118111)">
                            <g>
                                <g class="typst-text" transform="matrix(1 0 0 -1 5.137 9.829000000000002)">
                                    <use xlink:href="#gF05301C3D4D8F4F9C066BF7FDA57A4BB" x="0" y="0" fill="#000000" fill-rule="nonzero"/>
                                </g>
                                <g class="typst-text" transform="matrix(1 0 0 -1 0 12.513)">
                                    <use xlink:href="#g1FFE8B52BC002B0C1344C02CA9BA09EB" x="0" y="0" fill="#000000" fill-rule="nonzero"/>
                                </g>
                            </g>
                        </g>
                    </g>
                </g>
                <path class="typst-shape" fill="#aaaaaa" fill-rule="nonzero" stroke="#aaaaaa" stroke-width="1.2" stroke-linecap="butt" stroke-linejoin="miter" stroke-miterlimit="4" transform="matrix(1 0 0 1 22.677165354330707 9.134000000000013)" d="M 0 0h 79.0786 "/>
                <path class="typst-shape" fill="#aaaaaa" fill-rule="nonzero" stroke="#aaaaaa" stroke-width="1.2" stroke-linecap="butt" stroke-linejoin="miter" stroke-miterlimit="4" transform="matrix(1 0 0 1 100.3384431496063 7.008015748031504)" d="M 0 0m 5.6692915 2.1259842 l -5.6692915 -2.1259842 l 1.4173229 2.1259842 l -1.4173229 2.1259842 l 5.6692915 -2.1259842 Z "/>
                <path class="typst-shape" fill="none" transform="matrix(1 0 0 1 62.76035039370078 0)" d="M 0 0h 4.873 v 9.134 h -4.873 v -9.134 Z "/>
                <g class="typst-group">
                    <g>
                        <g class="typst-group" transform="matrix(1 0 0 1 62.76035026771654 -0.00000025196849792981687)">
                            <g>
                                <g class="typst-text" transform="matrix(1 0 0 -1 5.137 4.8290000000000015)">
                                    <use xlink:href="#gF05301C3D4D8F4F9C066BF7FDA57A4BB" x="0" y="0" fill="#aaaaaa" fill-rule="nonzero"/>
                                </g>
                                <g class="typst-text" transform="matrix(1 0 0 -1 0 7.513000000000001)">
                                    <use xlink:href="#g1FFE8B52BC002B0C1344C02CA9BA09EB" x="0" y="0" fill="#aaaaaa" fill-rule="nonzero"/>
                                </g>
                            </g>
                        </g>
                    </g>
                </g>
                <path class="typst-shape" fill="#aaaaaa" fill-rule="nonzero" stroke="#aaaaaa" stroke-width="1.2" stroke-linecap="butt" stroke-linejoin="miter" stroke-miterlimit="4" transform="matrix(1 0 0 1 85.03937007874016 14.979015141744917)" d="M 0 0m 0 107.54081 l 21.508162 -107.54081 "/>
                <path class="typst-shape" fill="#aaaaaa" fill-rule="nonzero" stroke="#aaaaaa" stroke-width="1.2" stroke-linecap="butt" stroke-linejoin="miter" stroke-miterlimit="4" transform="matrix(1 0 0 1 104.18487366614173 10.809616881889777)" d="M 0 0m 3.1965387 0 l -3.1965387 5.1422577 l 2.362659 -0.9728594 l 1.8067393 1.8067389 l -0.9728596 -5.976137 Z "/>
                <path class="typst-shape" fill="none" transform="matrix(1 0 0 1 96.37795275590551 62.009913385826785)" d="M 0 0h 8.319 v 7.634 h -8.319 v -7.634 Z "/>
                <g class="typst-group">
                    <g>
                        <g class="typst-group" transform="matrix(1 0 0 1 96.37795266141732 62.00991332283466)">
                            <g>
                                <g class="typst-text" transform="matrix(1 0 0 -1 8.560999999999998 7.513000000000001)">
                                    <use xlink:href="#gF05301C3D4D8F4F9C066BF7FDA57A4BB" x="0" y="0" fill="#aaaaaa" fill-rule="nonzero"/>
                                </g>
                                <g class="typst-text" transform="matrix(1 0 0 -1 2.5 7.513000000000001)">
                                    <use xlink:href="#gE685B5C7579FE947A98B45FDFB684C99" x="0" y="0" fill="#aaaaaa" fill-rule="nonzero"/>
                                </g>
                            </g>
                        </g>
                    </g>
                </g>
                <path class="typst-shape" fill="#ff4136" fill-rule="nonzero" stroke="#ff4136" stroke-width="1.2" stroke-linecap="butt" stroke-linejoin="miter" stroke-miterlimit="4" transform="matrix(1 0 0 1 0 13.455554332212385)" d="M 0 0m 0 109.06427 l 103.61106 -109.06427 "/>
                <path class="typst-shape" fill="#ff4136" fill-rule="nonzero" stroke="#ff4136" stroke-width="1.2" stroke-linecap="butt" stroke-linejoin="miter" stroke-miterlimit="4" transform="matrix(1 0 0 1 101.09354090314962 10.372879622047261)" d="M 0 0m 5.4460588 0 l -5.4460588 2.6459625 l 2.5175178 0.43671227 l 0.56515694 2.4918287 l 2.363384 -5.5745034 Z "/>
                <path class="typst-shape" fill="none" transform="matrix(1 0 0 1 53.85826771653543 65.82691338582678)" d="M 0 0h 29.13889 v 8.426 h -29.13889 v -8.426 Z "/>
                <g class="typst-group">
                    <g>
                        <g class="typst-group" transform="matrix(1 0 0 1 53.85826753105863 65.82691332283466)">
                            <g>
                                <g class="typst-text" transform="matrix(1 0 0 -1 11.060999999999998 7.513000000000001)">
                                    <use xlink:href="#gF05301C3D4D8F4F9C066BF7FDA57A4BB" x="0" y="0" fill="#ff4136" fill-rule="nonzero"/>
                                </g>
                                <g class="typst-text" transform="matrix(1 0 0 -1 5 7.513000000000001)">
                                    <use xlink:href="#gE685B5C7579FE947A98B45FDFB684C99" x="0" y="0" fill="#ff4136" fill-rule="nonzero"/>
                                </g>
                                <g class="typst-text" transform="matrix(1 0 0 -1 13.263444444444445 7.513000000000001)">
                                    <use xlink:href="#g96D1E66403C173BC66CB668974AD6FD" x="0" y="0" fill="#ff4136" fill-rule="nonzero"/>
                                </g>
                                <g class="typst-text" transform="matrix(1 0 0 -1 29.402888888888885 4.8290000000000015)">
                                    <use xlink:href="#gF05301C3D4D8F4F9C066BF7FDA57A4BB" x="0" y="0" fill="#ff4136" fill-rule="nonzero"/>
                                </g>
                                <g class="typst-text" transform="matrix(1 0 0 -1 24.265888888888888 7.513000000000001)">
                                    <use xlink:href="#g1FFE8B52BC002B0C1344C02CA9BA09EB" x="0" y="0" fill="#ff4136" fill-rule="nonzero"/>
                                </g>
                            </g>
                        </g>
                    </g>
                </g>
            </g>
        </g>
    </g>
    <defs id="glyph">
        <symbol id="gF05301C3D4D8F4F9C066BF7FDA57A4BB" overflow="visible">
            <path d="M 0 0m -0.759 6.5889997 c 0.09900004 0.032999992 0.143 0.0880003 0.143 0.18700027 c 0 0.09899998 -0.04399997 0.1539998 -0.143 0.1869998 c -0.39599997 0.13199997 -0.682 0.37400007 -0.858 0.737 c -0.032999992 0.07700014 -0.09899998 0.12100029 -0.176 0.12100029 c -0.143 0 -0.20900011 -0.065999985 -0.20900011 -0.19799995 c 0 -0.16499996 0.14300013 -0.38500023 0.42900014 -0.64900017 h -3.4099998 c -0.14300013 0 -0.20900011 -0.065999985 -0.20900011 -0.19799995 c 0 -0.13199997 0.065999985 -0.19799995 0.20900011 -0.19799995 h 3.4099998 c -0.286 -0.26399994 -0.42900014 -0.4840002 -0.42900014 -0.64900017 c 0 -0.13199997 0.066000104 -0.19799995 0.20900011 -0.19799995 c 0.07700002 0 0.143 0.04400015 0.176 0.12099981 c 0.176 0.3630004 0.462 0.605 0.858 0.737 Z "/>
        </symbol>
        <symbol id="gE685B5C7579FE947A98B45FDFB684C99" overflow="visible">
            <path d="M 0 0m 5.478 1.584 c 0 0.09899998 -0.055000305 0.15400004 -0.17600012 0.15400004 c -0.0880003 0 -0.15400028 -0.07700002 -0.18700027 -0.23100007 c -0.21999979 -0.86899996 -0.48399973 -1.309 -0.78099966 -1.309 c -0.18700027 0 -0.28600025 0.154 -0.28600025 0.46199995 c 0 0.143 0.04400015 0.40700006 0.14300013 0.79200006 l 0.62699986 2.475 c 0.055000305 0.20900011 0.07700014 0.32999992 0.07700014 0.38499975 c 0 0.22000027 -0.12099981 0.3300004 -0.36299992 0.3300004 c -0.23099995 0 -0.38500023 -0.13200045 -0.4619999 -0.38500023 c -0.23100019 0.40700006 -0.5610001 0.605 -0.9790001 0.605 c -0.71500015 0 -1.3420001 -0.36299992 -1.8920001 -1.089 c -0.506 -0.6819999 -0.759 -1.3859999 -0.759 -2.1230001 c 0 -0.95699996 0.56100005 -1.771 1.4849999 -1.771 c 0.47300005 0 0.93499994 0.253 1.375 0.759 c 0.12100005 -0.418 0.49500012 -0.759 1.0119998 -0.759 c 0.7590003 0 0.99000025 0.891 1.1660004 1.705 Z m -1.7270002 2.5299997 c 0.09899998 -0.23099995 0.15400004 -0.38499975 0.15400004 -0.48399997 c 0 -0.04399991 -0.010999918 -0.09899998 -0.022000074 -0.17599988 l -0.53900003 -2.112 c -0.032999992 -0.12100005 -0.109999895 -0.25300002 -0.20899987 -0.385 c -0.40700006 -0.50600004 -0.803 -0.759 -1.188 -0.759 c -0.42900002 0 -0.64900005 0.32999998 -0.64900005 0.97900003 c 0 0.26399994 0.065999985 0.65999997 0.19800007 1.188 c 0.23099995 0.93499994 0.5609999 1.562 0.96799994 1.9030001 c 0.22000003 0.1869998 0.4289999 0.27499962 0.638 0.27499962 c 0.29699993 0 0.51699996 -0.14299965 0.6489999 -0.4289999 Z "/>
        </symbol>
        <symbol id="g1FFE8B52BC002B0C1344C02CA9BA09EB" overflow="visible">
            <path d="M 0 0m 3.091 4.895 c -0.39600015 0 -0.79200006 -0.1869998 -1.177 -0.5609999 l 0.75900006 3.1349998 c -0.022000074 0.09899998 -0.055000067 0.16499996 -0.18700004 0.16499996 c -0.36300015 0 -1.1660001 -0.09899998 -1.309 -0.10999966 c -0.16500008 -0.022000313 -0.25300002 -0.09899998 -0.25300002 -0.26400042 c 0 -0.10999966 0.09899998 -0.16499996 0.30799997 -0.16499996 c 0.20899999 0 0.495 0.011000156 0.495 -0.14299965 c 0 -0.04400015 -0.055000067 -0.26400042 -0.15400004 -0.671 l -0.87999994 -3.542 c -0.12099999 -0.46200013 -0.176 -0.8360001 -0.176 -1.1110001 c 0 -0.94600004 0.506 -1.7490001 1.408 -1.7490001 c 0.7149999 0 1.342 0.363 1.892 1.1 c 0.4949999 0.68200004 0.74800014 1.397 0.74800014 2.1339998 c 0 0.95700026 -0.5609999 1.7820001 -1.474 1.7820001 Z m -0.022000074 -0.32999992 c 0.4289999 0 0.638 -0.32999992 0.638 -0.9790001 c 0 -0.29699993 -0.065999985 -0.6930001 -0.19799995 -1.188 c -0.2420001 -0.93500006 -0.5610001 -1.573 -0.9460001 -1.914 c -0.22000003 -0.187 -0.4289999 -0.275 -0.638 -0.275 c -0.45099998 0 -0.671 0.352 -0.671 1.056 c 0 0.24199998 0.055000067 0.605 0.16500008 1.0890001 l 0.24199998 0.9899998 c 0.032999992 0.1650002 0.08799994 0.286 0.15399992 0.37400007 c 0.42900002 0.5609999 0.847 0.8470001 1.2540001 0.8470001 Z "/>
        </symbol>
        <symbol id="g96D1E66403C173BC66CB668974AD6FD" overflow="visible">
            <path d="M 0 0m 7.678 3.014 h -3.1350002 v 3.1350002 c 0 0.17599964 -0.08799982 0.26399994 -0.26399994 0.26399994 c -0.17599964 0 -0.26399994 -0.0880003 -0.26399994 -0.26399994 v -3.1350002 h -3.1349998 c -0.176 0 -0.264 -0.08800006 -0.264 -0.26399994 c 0 -0.17600012 0.088 -0.26399994 0.264 -0.26399994 h 3.1349998 v -3.135 c 0 -0.176 0.0880003 -0.264 0.26399994 -0.264 c 0.17600012 0 0.26399994 0.088 0.26399994 0.264 v 3.135 h 3.1350002 c 0.17600012 0 0.26399994 0.08799982 0.26399994 0.26399994 c 0 0.14299989 -0.12099981 0.26399994 -0.26399994 0.26399994 Z "/>
        </symbol>
    </defs>
</svg>
