<svg class="typst-doc" viewBox="0 0 156.53654403849518 229.2770964409449" width="156.53654403849518pt" height="229.2770964409449pt" xmlns="http://www.w3.org/2000/svg" xmlns:xlink="http://www.w3.org/1999/xlink" xmlns:h5="http://www.w3.org/1999/xhtml">
    <path class="typst-shape" fill="#ffffff00" fill-rule="nonzero" d="M 0 0v 229.2771 h 156.53654 v -229.2771 Z "/>
    <g>
        <g class="typst-group" transform="matrix(1 0 0 1 0.5 5)">
            <g>
                <path class="typst-shape" fill="#000000" fill-rule="nonzero" stroke="#000000" stroke-width="1.2" stroke-linecap="butt" stroke-linejoin="miter" stroke-miterlimit="4" transform="matrix(1 0 0 1 7.68043388976378 61.04064997639057)" d="M 0 0m 0 107.54081 l 21.508162 -107.54081 "/>
                <path class="typst-shape" fill="#000000" fill-rule="nonzero" stroke="#000000" stroke-width="1.2" stroke-linecap="butt" stroke-linejoin="miter" stroke-miterlimit="4" transform="matrix(1 0 0 1 26.825937477165358 56.87125171653543)" d="M 0 0m 3.1965387 0 l -3.1965387 5.1422577 l 2.362659 -0.9728594 l 1.8067393 1.8067389 l -0.9728596 -5.976137 Z "/>
                <path class="typst-shape" fill="none" transform="matrix(1 0 0 1 8.200016566929134 108.07154822047244)" d="M 0 0h 10.819 v 7.634 h -10.819 v -7.634 Z "/>
                <g class="typst-group">
                    <g>
                        <g class="typst-group" transform="matrix(1 0 0 1 8.200016535433072 108.07154815748032)">
                            <g>
                                <g class="typst-text" transform="matrix(1 0 0 -1 6.061 7.513000000000001)">
                                    <use xlink:href="#gF7A93C981DE997C9F0688CBD57C41035" x="0" y="0" fill="#000000" fill-rule="nonzero"/>
                                </g>
                                <g class="typst-text" transform="matrix(1 0 0 -1 0 7.513000000000001)">
                                    <use xlink:href="#gA16A906D9E7B323B76AFDFF5C51D72C4" x="0" y="0" fill="#000000" fill-rule="nonzero"/>
                                </g>
                            </g>
                        </g>
                    </g>
                </g>
                <path class="typst-shape" fill="#000000" fill-rule="nonzero" stroke="#000000" stroke-width="1.2" stroke-linecap="butt" stroke-linejoin="miter" stroke-miterlimit="4" transform="matrix(1 0 0 1 7.68043388976378 168.58146160629923)" d="M 0 0h 79.0786 "/>
                <path class="typst-shape" fill="#000000" fill-rule="nonzero" stroke="#000000" stroke-width="1.2" stroke-linecap="butt" stroke-linejoin="miter" stroke-miterlimit="4" transform="matrix(1 0 0 1 85.34171168503936 166.4554773543307)" d="M 0 0m 5.6692915 2.1259842 l -5.6692915 -2.1259842 l 1.4173229 2.1259842 l -1.4173229 2.1259842 l 5.6692915 -2.1259842 Z "/>
                <path class="typst-shape" fill="none" transform="matrix(1 0 0 1 47.76361892913386 168.58146160629923)" d="M 0 0h 4.873 v 12.634 h -4.873 v -12.634 Z "/>
                <g class="typst-group">
                    <g>
                        <g class="typst-group" transform="matrix(1 0 0 1 47.763618803149605 168.58146138582677)">
                            <g>
                                <g class="typst-text" transform="matrix(1 0 0 -1 5.137 9.829000000000002)">
                                    <use xlink:href="#gF7A93C981DE997C9F0688CBD57C41035" x="0" y="0" fill="#000000" fill-rule="nonzero"/>
                                </g>
                                <g class="typst-text" transform="matrix(1 0 0 -1 0 12.513)">
                                    <use xlink:href="#gFE0984E5F0B2BFA99725B2182C251FB0" x="0" y="0" fill="#000000" fill-rule="nonzero"/>
                                </g>
                            </g>
                        </g>
                    </g>
                </g>
                <path class="typst-shape" fill="#aaaaaa" fill-rule="nonzero" stroke="#aaaaaa" stroke-width="1.2" stroke-linecap="butt" stroke-linejoin="miter" stroke-miterlimit="4" stroke-dashoffset="0" stroke-dasharray="3 3" transform="matrix(1 0 0 1 30.357599244094494 55.195634834645666)" d="M 0 0h 85.03937 "/>
                <path class="typst-shape" fill="#aaaaaa" fill-rule="nonzero" stroke="#aaaaaa" stroke-width="1.2" stroke-linecap="butt" stroke-linejoin="miter" stroke-miterlimit="4" stroke-dashoffset="0" stroke-dasharray="3 3" transform="matrix(1 0 0 1 92.71980396850394 55.195634834645666)" d="M 0 0m 0 113.385826 l 22.677166 -113.385826 "/>
                <path class="typst-shape" fill="#aaaaaa" fill-rule="nonzero" stroke="#aaaaaa" stroke-width="1.2" stroke-linecap="butt" stroke-linejoin="miter" stroke-miterlimit="4" stroke-dashoffset="0" stroke-dasharray="3 3" transform="matrix(1 0 0 1 30.357599244094494 55.195634834645666)" d="M 0 0m 62.362206 113.385826 l -62.362206 -113.385826 "/>
                <path class="typst-shape" fill="#aaaaaa" fill-rule="nonzero" stroke="#aaaaaa" stroke-width="1.2" stroke-linecap="butt" stroke-linejoin="miter" stroke-miterlimit="4" stroke-dashoffset="0" stroke-dasharray="3 3" transform="matrix(1 0 0 1 7.68043388976378 55.195634834645666)" d="M 0 0m 0 113.385826 l 107.71654 -113.385826 "/>
                <path class="typst-shape" fill="#0074d9" fill-rule="nonzero" stroke="#0074d9" stroke-width="1.2" stroke-linecap="butt" stroke-linejoin="miter" stroke-miterlimit="4" transform="matrix(1 0 0 1 2.0491033479760787 3.725642296248563)" d="M 0 0m 28.308496 51.469994 l -28.308496 -51.469994 "/>
                <path class="typst-shape" fill="#0074d9" fill-rule="nonzero" stroke="#0074d9" stroke-width="1.2" stroke-linecap="butt" stroke-linejoin="miter" stroke-miterlimit="4" d="M 0 0l 0.8693166 5.992075 l 1.1797867 -2.2664325 l 2.545856 0.21732926 l -4.5949593 -3.9429717 Z "/>
                <path class="typst-shape" fill="none" transform="matrix(1 0 0 1 14.767048062992128 20.496678141732282)" d="M 0 0h 47.22619 v 12.705 h -47.22619 v -12.705 Z "/>
                <g class="typst-group">
                    <g>
                        <g class="typst-group" transform="matrix(1 0 0 1 14.767048019247595 20.496677952755903)">
                            <g>
                                <g class="typst-group">
                                    <g>
                                        <g class="typst-text" transform="matrix(1 0 0 -1 6.1000000000000005 3.1790000000000003)">
                                            <use xlink:href="#gC9BFE12195FCEE1B18930B3CD3CE46C9" x="0" y="0" fill="#0074d9" fill-rule="nonzero"/>
                                        </g>
                                        <g class="typst-text" transform="matrix(1 0 0 -1 6.1000000000000005 11.308)">
                                            <use xlink:href="#gD935041A1B807A5888A1A4FAF8244DE9" x="0" y="0" fill="#0074d9" fill-rule="nonzero"/>
                                        </g>
                                        <path class="typst-shape" fill="none" stroke="#0074d9" stroke-width="0.528" stroke-linecap="butt" stroke-linejoin="miter" stroke-miterlimit="4" transform="matrix(1 0 0 1 6.1000000000000005 4.763000000000001)" d="M 0 0h 4.3813 "/>
                                        <g class="typst-text" transform="matrix(1 0 0 -1 11.5813 7.513000000000001)">
                                            <use xlink:href="#gFD3522B328A239FDD59EF2015C026DFE" x="0" y="0" fill="#0074d9" fill-rule="nonzero"/>
                                        </g>
                                        <g class="typst-text" transform="matrix(1 0 0 -1 23.3953 7.513000000000001)">
                                            <use xlink:href="#gF7A93C981DE997C9F0688CBD57C41035" x="0" y="0" fill="#0074d9" fill-rule="nonzero"/>
                                        </g>
                                        <g class="typst-text" transform="matrix(1 0 0 -1 17.3343 7.513000000000001)">
                                            <use xlink:href="#gA16A906D9E7B323B76AFDFF5C51D72C4" x="0" y="0" fill="#0074d9" fill-rule="nonzero"/>
                                        </g>
                                        <g class="typst-text" transform="matrix(1 0 0 -1 25.59774444444444 7.513000000000001)">
                                            <use xlink:href="#g8C67362B31F31B9A4F65B3ABEF11E5A6" x="0" y="0" fill="#0074d9" fill-rule="nonzero"/>
                                        </g>
                                        <g class="typst-text" transform="matrix(1 0 0 -1 41.73718888888889 4.8290000000000015)">
                                            <use xlink:href="#gF7A93C981DE997C9F0688CBD57C41035" x="0" y="0" fill="#0074d9" fill-rule="nonzero"/>
                                        </g>
                                        <g class="typst-text" transform="matrix(1 0 0 -1 36.60018888888889 7.513000000000001)">
                                            <use xlink:href="#gFE0984E5F0B2BFA99725B2182C251FB0" x="0" y="0" fill="#0074d9" fill-rule="nonzero"/>
                                        </g>
                                        <g class="typst-text" transform="matrix(1 0 0 -1 41.473188888888885 7.513000000000001)">
                                            <use xlink:href="#g5A009F9C8A4B3ABFE72798E4D8DD3347" x="0" y="0" fill="#0074d9" fill-rule="nonzero"/>
                                        </g>
                                    </g>
                                </g>
                            </g>
                        </g>
                    </g>
                </g>
                <path class="typst-shape" fill="#0074d9" fill-rule="nonzero" stroke="#0074d9" stroke-width="1.2" stroke-linecap="butt" stroke-linejoin="miter" stroke-miterlimit="4" transform="matrix(1 0 0 1 64.41130807238552 117.1114690679021)" d="M 0 0m 28.308496 51.469994 l -28.308496 -51.469994 "/>
                <path class="typst-shape" fill="#0074d9" fill-rule="nonzero" stroke="#0074d9" stroke-width="1.2" stroke-linecap="butt" stroke-linejoin="miter" stroke-miterlimit="4" transform="matrix(1 0 0 1 62.36220472440946 113.38582677165354)" d="M 0 0l 0.8693166 5.992075 l 1.1797867 -2.2664325 l 2.545856 0.21732926 l -4.5949593 -3.9429717 Z "/>
                <path class="typst-shape" fill="none" transform="matrix(1 0 0 1 77.12925278740157 133.88250491338582)" d="M 0 0h 47.22619 v 12.705 h -47.22619 v -12.705 Z "/>
                <g class="typst-group">
                    <g>
                        <g class="typst-group" transform="matrix(1 0 0 1 77.12925274365703 133.88250472440947)">
                            <g>
                                <g class="typst-group">
                                    <g>
                                        <g class="typst-text" transform="matrix(1 0 0 -1 6.1000000000000005 3.1790000000000003)">
                                            <use xlink:href="#gC9BFE12195FCEE1B18930B3CD3CE46C9" x="0" y="0" fill="#0074d9" fill-rule="nonzero"/>
                                        </g>
                                        <g class="typst-text" transform="matrix(1 0 0 -1 6.1000000000000005 11.308)">
                                            <use xlink:href="#gD935041A1B807A5888A1A4FAF8244DE9" x="0" y="0" fill="#0074d9" fill-rule="nonzero"/>
                                        </g>
                                        <path class="typst-shape" fill="none" stroke="#0074d9" stroke-width="0.528" stroke-linecap="butt" stroke-linejoin="miter" stroke-miterlimit="4" transform="matrix(1 0 0 1 6.1000000000000005 4.763000000000001)" d="M 0 0h 4.3813 "/>
                                        <g class="typst-text" transform="matrix(1 0 0 -1 11.5813 7.513000000000001)">
                                            <use xlink:href="#gFD3522B328A239FDD59EF2015C026DFE" x="0" y="0" fill="#0074d9" fill-rule="nonzero"/>
                                        </g>
                                        <g class="typst-text" transform="matrix(1 0 0 -1 23.3953 7.513000000000001)">
                                            <use xlink:href="#gF7A93C981DE997C9F0688CBD57C41035" x="0" y="0" fill="#0074d9" fill-rule="nonzero"/>
                                        </g>
                                        <g class="typst-text" transform="matrix(1 0 0 -1 17.3343 7.513000000000001)">
                                            <use xlink:href="#gA16A906D9E7B323B76AFDFF5C51D72C4" x="0" y="0" fill="#0074d9" fill-rule="nonzero"/>
                                        </g>
                                        <g class="typst-text" transform="matrix(1 0 0 -1 25.59774444444444 7.513000000000001)">
                                            <use xlink:href="#g8C67362B31F31B9A4F65B3ABEF11E5A6" x="0" y="0" fill="#0074d9" fill-rule="nonzero"/>
                                        </g>
                                        <g class="typst-text" transform="matrix(1 0 0 -1 41.73718888888889 4.8290000000000015)">
                                            <use xlink:href="#gF7A93C981DE997C9F0688CBD57C41035" x="0" y="0" fill="#0074d9" fill-rule="nonzero"/>
                                        </g>
                                        <g class="typst-text" transform="matrix(1 0 0 -1 36.60018888888889 7.513000000000001)">
                                            <use xlink:href="#gFE0984E5F0B2BFA99725B2182C251FB0" x="0" y="0" fill="#0074d9" fill-rule="nonzero"/>
                                        </g>
                                        <g class="typst-text" transform="matrix(1 0 0 -1 41.473188888888885 7.513000000000001)">
                                            <use xlink:href="#g5A009F9C8A4B3ABFE72798E4D8DD3347" x="0" y="0" fill="#0074d9" fill-rule="nonzero"/>
                                        </g>
                                    </g>
                                </g>
                            </g>
                        </g>
                    </g>
                </g>
                <path class="typst-shape" fill="#ff4136" fill-rule="nonzero" stroke="#ff4136" stroke-width="1.2" stroke-linecap="butt" stroke-linejoin="miter" stroke-miterlimit="4" transform="matrix(1 0 0 1 30.357599244094494 55.195634834645666)" d="M 0 0l 28.308496 51.469994 "/>
                <path class="typst-shape" fill="#ff4136" fill-rule="nonzero" stroke="#ff4136" stroke-width="1.2" stroke-linecap="butt" stroke-linejoin="miter" stroke-miterlimit="4" transform="matrix(1 0 0 1 56.120239466929135 104.39919472677165)" d="M 0 0m 4.5949593 5.992075 l -0.8693168 -5.992075 l -1.1797867 2.2664325 l -2.5458558 -0.21732926 l 4.5949593 3.9429717 Z "/>
                <path class="typst-shape" fill="none" transform="matrix(1 0 0 1 45.94815042519686 77.18959152755905)" d="M 0 0h 55.784187 v 12.705 h -55.784187 v -12.705 Z "/>
                <g class="typst-group">
                    <g>
                        <g class="typst-group" transform="matrix(1 0 0 1 45.94815041294836 77.18959133858267)">
                            <g>
                                <g class="typst-group">
                                    <g>
                                        <g class="typst-text" transform="matrix(1 0 0 -1 5 7.513000000000001)">
                                            <use xlink:href="#g8C67362B31F31B9A4F65B3ABEF11E5A6" x="0" y="0" fill="#ff4136" fill-rule="nonzero"/>
                                        </g>
                                        <g class="typst-text" transform="matrix(1 0 0 -1 14.658 3.1790000000000003)">
                                            <use xlink:href="#gC9BFE12195FCEE1B18930B3CD3CE46C9" x="0" y="0" fill="#ff4136" fill-rule="nonzero"/>
                                        </g>
                                        <g class="typst-text" transform="matrix(1 0 0 -1 14.658 11.308)">
                                            <use xlink:href="#gD935041A1B807A5888A1A4FAF8244DE9" x="0" y="0" fill="#ff4136" fill-rule="nonzero"/>
                                        </g>
                                        <path class="typst-shape" fill="none" stroke="#ff4136" stroke-width="0.528" stroke-linecap="butt" stroke-linejoin="miter" stroke-miterlimit="4" transform="matrix(1 0 0 1 14.658 4.763000000000001)" d="M 0 0h 4.3813 "/>
                                        <g class="typst-text" transform="matrix(1 0 0 -1 20.1393 7.513000000000001)">
                                            <use xlink:href="#gFD3522B328A239FDD59EF2015C026DFE" x="0" y="0" fill="#ff4136" fill-rule="nonzero"/>
                                        </g>
                                        <g class="typst-text" transform="matrix(1 0 0 -1 31.9533 7.513000000000001)">
                                            <use xlink:href="#gF7A93C981DE997C9F0688CBD57C41035" x="0" y="0" fill="#ff4136" fill-rule="nonzero"/>
                                        </g>
                                        <g class="typst-text" transform="matrix(1 0 0 -1 25.8923 7.513000000000001)">
                                            <use xlink:href="#gA16A906D9E7B323B76AFDFF5C51D72C4" x="0" y="0" fill="#ff4136" fill-rule="nonzero"/>
                                        </g>
                                        <g class="typst-text" transform="matrix(1 0 0 -1 34.15574444444444 7.513000000000001)">
                                            <use xlink:href="#g8C67362B31F31B9A4F65B3ABEF11E5A6" x="0" y="0" fill="#ff4136" fill-rule="nonzero"/>
                                        </g>
                                        <g class="typst-text" transform="matrix(1 0 0 -1 50.29518888888889 4.8290000000000015)">
                                            <use xlink:href="#gF7A93C981DE997C9F0688CBD57C41035" x="0" y="0" fill="#ff4136" fill-rule="nonzero"/>
                                        </g>
                                        <g class="typst-text" transform="matrix(1 0 0 -1 45.15818888888888 7.513000000000001)">
                                            <use xlink:href="#gFE0984E5F0B2BFA99725B2182C251FB0" x="0" y="0" fill="#ff4136" fill-rule="nonzero"/>
                                        </g>
                                        <g class="typst-text" transform="matrix(1 0 0 -1 50.031188888888884 7.513000000000001)">
                                            <use xlink:href="#g5A009F9C8A4B3ABFE72798E4D8DD3347" x="0" y="0" fill="#ff4136" fill-rule="nonzero"/>
                                        </g>
                                    </g>
                                </g>
                            </g>
                        </g>
                    </g>
                </g>
                <path class="typst-shape" fill="#ff4136" fill-rule="nonzero" stroke="#ff4136" stroke-width="1.2" stroke-linecap="butt" stroke-linejoin="miter" stroke-miterlimit="4" transform="matrix(1 0 0 1 92.71980396850394 168.58146160629923)" d="M 0 0l 28.308496 51.469994 "/>
                <path class="typst-shape" fill="#ff4136" fill-rule="nonzero" stroke="#ff4136" stroke-width="1.2" stroke-linecap="butt" stroke-linejoin="miter" stroke-miterlimit="4" transform="matrix(1 0 0 1 118.48244419133859 217.7850214984252)" d="M 0 0m 4.5949593 5.992075 l -0.8693168 -5.992075 l -1.1797867 2.2664325 l -2.5458558 -0.21732926 l 4.5949593 3.9429717 Z "/>
                <path class="typst-shape" fill="none" transform="matrix(1 0 0 1 108.3103551496063 190.5754182992126)" d="M 0 0h 47.22619 v 12.705 h -47.22619 v -12.705 Z "/>
                <g class="typst-group">
                    <g>
                        <g class="typst-group" transform="matrix(1 0 0 1 108.31035510586176 190.57541811023623)">
                            <g>
                                <g class="typst-group">
                                    <g>
                                        <g class="typst-text" transform="matrix(1 0 0 -1 6.1000000000000005 3.1790000000000003)">
                                            <use xlink:href="#gC9BFE12195FCEE1B18930B3CD3CE46C9" x="0" y="0" fill="#ff4136" fill-rule="nonzero"/>
                                        </g>
                                        <g class="typst-text" transform="matrix(1 0 0 -1 6.1000000000000005 11.308)">
                                            <use xlink:href="#gD935041A1B807A5888A1A4FAF8244DE9" x="0" y="0" fill="#ff4136" fill-rule="nonzero"/>
                                        </g>
                                        <path class="typst-shape" fill="none" stroke="#ff4136" stroke-width="0.528" stroke-linecap="butt" stroke-linejoin="miter" stroke-miterlimit="4" transform="matrix(1 0 0 1 6.1000000000000005 4.763000000000001)" d="M 0 0h 4.3813 "/>
                                        <g class="typst-text" transform="matrix(1 0 0 -1 11.5813 7.513000000000001)">
                                            <use xlink:href="#gFD3522B328A239FDD59EF2015C026DFE" x="0" y="0" fill="#ff4136" fill-rule="nonzero"/>
                                        </g>
                                        <g class="typst-text" transform="matrix(1 0 0 -1 22.4713 4.8290000000000015)">
                                            <use xlink:href="#gF7A93C981DE997C9F0688CBD57C41035" x="0" y="0" fill="#ff4136" fill-rule="nonzero"/>
                                        </g>
                                        <g class="typst-text" transform="matrix(1 0 0 -1 17.3343 7.513000000000001)">
                                            <use xlink:href="#gFE0984E5F0B2BFA99725B2182C251FB0" x="0" y="0" fill="#ff4136" fill-rule="nonzero"/>
                                        </g>
                                        <g class="typst-text" transform="matrix(1 0 0 -1 24.651744444444443 7.513000000000001)">
                                            <use xlink:href="#g8C67362B31F31B9A4F65B3ABEF11E5A6" x="0" y="0" fill="#ff4136" fill-rule="nonzero"/>
                                        </g>
                                        <g class="typst-text" transform="matrix(1 0 0 -1 41.71518888888889 7.513000000000001)">
                                            <use xlink:href="#gF7A93C981DE997C9F0688CBD57C41035" x="0" y="0" fill="#ff4136" fill-rule="nonzero"/>
                                        </g>
                                        <g class="typst-text" transform="matrix(1 0 0 -1 35.65418888888889 7.513000000000001)">
                                            <use xlink:href="#gA16A906D9E7B323B76AFDFF5C51D72C4" x="0" y="0" fill="#ff4136" fill-rule="nonzero"/>
                                        </g>
                                        <g class="typst-text" transform="matrix(1 0 0 -1 41.47318888888889 7.513000000000001)">
                                            <use xlink:href="#g5A009F9C8A4B3ABFE72798E4D8DD3347" x="0" y="0" fill="#ff4136" fill-rule="nonzero"/>
                                        </g>
                                    </g>
                                </g>
                            </g>
                        </g>
                    </g>
                </g>
            </g>
        </g>
    </g>
    <defs id="glyph">
        <symbol id="gF7A93C981DE997C9F0688CBD57C41035" overflow="visible">
            <path d="M 0 0m -0.759 6.5889997 c 0.09900004 0.032999992 0.143 0.0880003 0.143 0.18700027 c 0 0.09899998 -0.04399997 0.1539998 -0.143 0.1869998 c -0.39599997 0.13199997 -0.682 0.37400007 -0.858 0.737 c -0.032999992 0.07700014 -0.09899998 0.12100029 -0.176 0.12100029 c -0.143 0 -0.20900011 -0.065999985 -0.20900011 -0.19799995 c 0 -0.16499996 0.14300013 -0.38500023 0.42900014 -0.64900017 h -3.4099998 c -0.14300013 0 -0.20900011 -0.065999985 -0.20900011 -0.19799995 c 0 -0.13199997 0.065999985 -0.19799995 0.20900011 -0.19799995 h 3.4099998 c -0.286 -0.26399994 -0.42900014 -0.4840002 -0.42900014 -0.64900017 c 0 -0.13199997 0.066000104 -0.19799995 0.20900011 -0.19799995 c 0.07700002 0 0.143 0.04400015 0.176 0.12099981 c 0.176 0.3630004 0.462 0.605 0.858 0.737 Z "/>
        </symbol>
        <symbol id="gA16A906D9E7B323B76AFDFF5C51D72C4" overflow="visible">
            <path d="M 0 0m 5.478 1.584 c 0 0.09899998 -0.055000305 0.15400004 -0.17600012 0.15400004 c -0.0880003 0 -0.15400028 -0.07700002 -0.18700027 -0.23100007 c -0.21999979 -0.86899996 -0.48399973 -1.309 -0.78099966 -1.309 c -0.18700027 0 -0.28600025 0.154 -0.28600025 0.46199995 c 0 0.143 0.04400015 0.40700006 0.14300013 0.79200006 l 0.62699986 2.475 c 0.055000305 0.20900011 0.07700014 0.32999992 0.07700014 0.38499975 c 0 0.22000027 -0.12099981 0.3300004 -0.36299992 0.3300004 c -0.23099995 0 -0.38500023 -0.13200045 -0.4619999 -0.38500023 c -0.23100019 0.40700006 -0.5610001 0.605 -0.9790001 0.605 c -0.71500015 0 -1.3420001 -0.36299992 -1.8920001 -1.089 c -0.506 -0.6819999 -0.759 -1.3859999 -0.759 -2.1230001 c 0 -0.95699996 0.56100005 -1.771 1.4849999 -1.771 c 0.47300005 0 0.93499994 0.253 1.375 0.759 c 0.12100005 -0.418 0.49500012 -0.759 1.0119998 -0.759 c 0.7590003 0 0.99000025 0.891 1.1660004 1.705 Z m -1.7270002 2.5299997 c 0.09899998 -0.23099995 0.15400004 -0.38499975 0.15400004 -0.48399997 c 0 -0.04399991 -0.010999918 -0.09899998 -0.022000074 -0.17599988 l -0.53900003 -2.112 c -0.032999992 -0.12100005 -0.109999895 -0.25300002 -0.20899987 -0.385 c -0.40700006 -0.50600004 -0.803 -0.759 -1.188 -0.759 c -0.42900002 0 -0.64900005 0.32999998 -0.64900005 0.97900003 c 0 0.26399994 0.065999985 0.65999997 0.19800007 1.188 c 0.23099995 0.93499994 0.5609999 1.562 0.96799994 1.9030001 c 0.22000003 0.1869998 0.4289999 0.27499962 0.638 0.27499962 c 0.29699993 0 0.51699996 -0.14299965 0.6489999 -0.4289999 Z "/>
        </symbol>
        <symbol id="gFE0984E5F0B2BFA99725B2182C251FB0" overflow="visible">
            <path d="M 0 0m 3.091 4.895 c -0.39600015 0 -0.79200006 -0.1869998 -1.177 -0.5609999 l 0.75900006 3.1349998 c -0.022000074 0.09899998 -0.055000067 0.16499996 -0.18700004 0.16499996 c -0.36300015 0 -1.1660001 -0.09899998 -1.309 -0.10999966 c -0.16500008 -0.022000313 -0.25300002 -0.09899998 -0.25300002 -0.26400042 c 0 -0.10999966 0.09899998 -0.16499996 0.30799997 -0.16499996 c 0.20899999 0 0.495 0.011000156 0.495 -0.14299965 c 0 -0.04400015 -0.055000067 -0.26400042 -0.15400004 -0.671 l -0.87999994 -3.542 c -0.12099999 -0.46200013 -0.176 -0.8360001 -0.176 -1.1110001 c 0 -0.94600004 0.506 -1.7490001 1.408 -1.7490001 c 0.7149999 0 1.342 0.363 1.892 1.1 c 0.4949999 0.68200004 0.74800014 1.397 0.74800014 2.1339998 c 0 0.95700026 -0.5609999 1.7820001 -1.474 1.7820001 Z m -0.022000074 -0.32999992 c 0.4289999 0 0.638 -0.32999992 0.638 -0.9790001 c 0 -0.29699993 -0.065999985 -0.6930001 -0.19799995 -1.188 c -0.2420001 -0.93500006 -0.5610001 -1.573 -0.9460001 -1.914 c -0.22000003 -0.187 -0.4289999 -0.275 -0.638 -0.275 c -0.45099998 0 -0.671 0.352 -0.671 1.056 c 0 0.24199998 0.055000067 0.605 0.16500008 1.0890001 l 0.24199998 0.9899998 c 0.032999992 0.1650002 0.08799994 0.286 0.15399992 0.37400007 c 0.42900002 0.5609999 0.847 0.8470001 1.2540001 0.8470001 Z "/>
        </symbol>
        <symbol id="gC9BFE12195FCEE1B18930B3CD3CE46C9" overflow="visible">
            <path d="M 0 0m 2.3331 5.1128 c -0.3311 -0.32340002 -0.8239001 -0.48510027 -1.4938002 -0.48510027 v -0.33879995 c 0.4543 0 0.81619996 0.069300175 1.0934 0.20020008 v -3.8346 c 0 -0.10010004 -0.0077000856 -0.16170001 -0.030800104 -0.1925 c -0.03849995 -0.08470002 -0.2694999 -0.13090003 -0.69299996 -0.13090003 h -0.3157 v -0.3311 l 1.3706 0.0308 l 1.3783002 -0.0308 v 0.3311 h -0.31570005 c -0.42350006 0 -0.6545 0.046200007 -0.70070004 0.13090003 c -0.015399933 0.030799985 -0.0230999 0.092399955 -0.0230999 0.1925 v 4.2118998 c 0 0.20790005 -0.030800104 0.24640036 -0.26950002 0.24640036 Z "/>
        </symbol>
        <symbol id="gD935041A1B807A5888A1A4FAF8244DE9" overflow="visible">
            <path d="M 0 0m 0.9163 3.2648 c 0.24639994 0 0.43119997 0.18479991 0.43119997 0.43120003 c 0 0.27719998 -0.14629996 0.42350006 -0.43119997 0.43120003 c 0.16940004 0.36189985 0.5544 0.6545 1.0548999 0.6545 c 0.6775999 0 1.1242001 -0.50820017 1.1242001 -1.1858001 c 0 -0.36960006 -0.13090014 -0.7238002 -0.40040016 -1.0703001 c -0.1308999 -0.17709994 -0.23099995 -0.30029988 -0.30029988 -0.36960006 l -1.8249 -1.8094999 c -0.10010001 -0.092400014 -0.08470002 -0.1155 -0.08470002 -0.3465 h 3.1724 l 0.23869991 1.4476 h -0.32340002 c -0.053900003 -0.4081 -0.11549997 -0.64680004 -0.18479991 -0.7007 c -0.03850007 -0.023100019 -0.27719998 -0.03850001 -0.7314999 -0.03850001 h -1.3090001 c 0.5159 0.45429993 0.9933001 0.86239994 1.4476 1.2243 c 0.34649992 0.2694999 0.59290004 0.50820005 0.7469001 0.71609986 c 0.23099995 0.30030012 0.34649992 0.6160002 0.34649992 0.94710016 c 0 0.47739983 -0.18479991 0.8547001 -0.56209993 1.1318998 c -0.3311 0.25409985 -0.7469001 0.38500023 -1.2397001 0.38500023 c -0.42349994 0 -0.7853999 -0.12319994 -1.1011 -0.3696003 c -0.3311 -0.26949978 -0.50049996 -0.60829973 -0.50049996 -1.0240998 c 0 -0.26180005 0.19250003 -0.45429993 0.4312 -0.45429993 Z "/>
        </symbol>
        <symbol id="gFD3522B328A239FDD59EF2015C026DFE" overflow="visible">
            <path d="M 0 0m 4.884 -5.192 c 0.12100029 0 0.18700027 0.065999985 0.18700027 0.1869998 c 0 0.065999985 -0.022000313 0.11000013 -0.07700014 0.14300013 c -0.7919998 0.605 -1.4189999 1.628 -1.892 3.058 c -0.40700006 1.221 -0.61599994 2.431 -0.61599994 3.608 v 1.8920001 c 0 1.177 0.20899987 2.376 0.61599994 3.6079998 c 0.47300005 1.4189997 1.1000001 2.4420004 1.892 3.0579996 c 0.05499983 0.032999992 0.07700014 0.07700062 0.07700014 0.1430006 c 0 0.12100029 -0.065999985 0.18700027 -0.18700027 0.18700027 c -0.043999672 0 -0.076999664 -0.011000633 -0.10999966 -0.044000626 c -0.8910003 -0.69299984 -1.6390002 -1.7489996 -2.2220001 -3.1569996 c -0.5610001 -1.3310003 -0.8360001 -2.5960002 -0.8360001 -3.795 v -1.8920001 c 0 -1.199 0.27499998 -2.464 0.8360001 -3.795 c 0.58299994 -1.4190001 1.3309999 -2.464 2.2220001 -3.1569998 c 0.032999992 -0.032999992 0.065999985 -0.04400015 0.10999966 -0.04400015 Z "/>
        </symbol>
        <symbol id="g8C67362B31F31B9A4F65B3ABEF11E5A6" overflow="visible">
            <path d="M 0 0m 7.678 2.97 h -6.798 c -0.176 0 -0.264 -0.07700014 -0.264 -0.22000003 c 0 -0.14300013 0.088 -0.22000003 0.264 -0.22000003 h 6.798 c 0.17600012 0 0.26399994 0.0769999 0.26399994 0.22000003 c 0 0.13199997 -0.13199997 0.22000003 -0.26399994 0.22000003 Z "/>
        </symbol>
        <symbol id="g5A009F9C8A4B3ABFE72798E4D8DD3347" overflow="visible">
            <path d="M 0 0m 0.979 -5.148 c 0.89100003 0.69299984 1.639 1.7379997 2.2220001 3.1569998 c 0.5610001 1.331 0.8360002 2.596 0.8360002 3.795 v 1.8920001 c 0 1.1989999 -0.2750001 2.4639997 -0.8360002 3.795 c -0.58299994 1.4189997 -1.331 2.4639997 -2.2220001 3.1569996 c -0.04399997 0.032999992 -0.07699996 0.044000626 -0.109999955 0.044000626 c -0.12099999 0 -0.18700004 -0.065999985 -0.18700004 -0.18700027 c 0 -0.055000305 0.022000015 -0.11000061 0.066000044 -0.1430006 c 0.79199994 -0.60499954 1.43 -1.6169996 1.903 -3.0579996 c 0.40700006 -1.2319999 0.61599994 -2.4309998 0.61599994 -3.6079998 v -1.8920001 c 0 -1.177 -0.20899987 -2.376 -0.61599994 -3.608 c -0.47300005 -1.4409999 -1.1110001 -2.453 -1.903 -3.058 c -0.04400003 -0.032999992 -0.066000044 -0.08799982 -0.066000044 -0.14300013 c 0 -0.12099981 0.066000044 -0.1869998 0.18700004 -0.1869998 c 0.032999992 0 0.07699996 0.011000156 0.109999955 0.04400015 Z "/>
        </symbol>
    </defs>
</svg>
