<svg class="typst-doc" viewBox="0 0 224.3540516535433 42.780582677165356" width="224.3540516535433pt" height="42.780582677165356pt" xmlns="http://www.w3.org/2000/svg" xmlns:xlink="http://www.w3.org/1999/xlink" xmlns:h5="http://www.w3.org/1999/xhtml">
    <path class="typst-shape" fill="#ffffff00" fill-rule="nonzero" d="M 0 0v 42.780582 h 224.35405 v -42.780582 Z "/>
    <g>
        <g class="typst-group" transform="matrix(1 0 0 1 0.5 5)">
            <g>
                <path class="typst-shape" fill="#000000" fill-rule="nonzero" stroke="#000000" stroke-width="1.2" stroke-linecap="butt" stroke-linejoin="miter" stroke-miterlimit="4" transform="matrix(1 0 0 1 111.67702582677165 9.634)" d="M 0 0h 107.42506 "/>
                <path class="typst-shape" fill="#000000" fill-rule="nonzero" stroke="#000000" stroke-width="1.2" stroke-linecap="butt" stroke-linejoin="miter" stroke-miterlimit="4" transform="matrix(1 0 0 1 217.6847603149606 7.508015748031496)" d="M 0 0m 5.6692915 2.1259842 l -5.6692915 -2.1259842 l 1.4173229 2.1259842 l -1.4173229 2.1259842 l 5.6692915 -2.1259842 Z "/>
                <path class="typst-shape" fill="none" transform="matrix(1 0 0 1 165.46043921259843 0)" d="M 0 0h 5.819 v 9.634 h -5.819 v -9.634 Z "/>
                <g class="typst-group">
                    <g>
                        <g class="typst-group" transform="matrix(1 0 0 1 165.46043905511812 -0.00000012598425165042427)">
                            <g>
                                <g class="typst-text" transform="matrix(1 0 0 -1 6.061 7.513000000000001)">
                                    <use xlink:href="#gF05301C3D4D8F4F9C066BF7FDA57A4BB" x="0" y="0" fill="#000000" fill-rule="nonzero"/>
                                </g>
                                <g class="typst-text" transform="matrix(1 0 0 -1 0 7.513000000000001)">
                                    <use xlink:href="#gE685B5C7579FE947A98B45FDFB684C99" x="0" y="0" fill="#000000" fill-rule="nonzero"/>
                                </g>
                            </g>
                        </g>
                    </g>
                </g>
                <path class="typst-shape" fill="#000000" fill-rule="nonzero" stroke="#000000" stroke-width="1.2" stroke-linecap="butt" stroke-linejoin="miter" stroke-miterlimit="4" transform="matrix(1 0 0 1 111.67702582677165 20.972582677165356)" d="M 0 0h 50.732143 "/>
                <path class="typst-shape" fill="#000000" fill-rule="nonzero" stroke="#000000" stroke-width="1.2" stroke-linecap="butt" stroke-linejoin="miter" stroke-miterlimit="4" transform="matrix(1 0 0 1 160.99184692913386 18.846598425196852)" d="M 0 0m 5.6692915 2.1259842 l -5.6692915 -2.1259842 l 1.4173229 2.1259842 l -1.4173229 2.1259842 l 5.6692915 -2.1259842 Z "/>
                <path class="typst-shape" fill="none" transform="matrix(1 0 0 1 133.82333251968504 20.972582677165356)" d="M 0 0h 12.4003 v 16.308 h -12.4003 v -16.308 Z "/>
                <g class="typst-group">
                    <g>
                        <g class="typst-group" transform="matrix(1 0 0 1 133.82333234645668 20.972582677165356)">
                            <g>
                                <g class="typst-text" transform="matrix(1 0 0 -1 1.1000000000000003 8.179000000000002)">
                                    <use xlink:href="#gC7B68ECADF81C139719BF2F5FC30EFDD" x="0" y="0" fill="#000000" fill-rule="nonzero"/>
                                </g>
                                <g class="typst-text" transform="matrix(1 0 0 -1 1.1000000000000003 16.308)">
                                    <use xlink:href="#gED804E3E4C5D05653A2B347634DB8278" x="0" y="0" fill="#000000" fill-rule="nonzero"/>
                                </g>
                                <path class="typst-shape" fill="none" stroke="#000000" stroke-width="0.528" stroke-linecap="butt" stroke-linejoin="miter" stroke-miterlimit="4" transform="matrix(1 0 0 1 1.1000000000000003 9.763)" d="M 0 0h 4.3813 "/>
                                <g class="typst-text" transform="matrix(1 0 0 -1 12.642299999999999 12.513)">
                                    <use xlink:href="#gF05301C3D4D8F4F9C066BF7FDA57A4BB" x="0" y="0" fill="#000000" fill-rule="nonzero"/>
                                </g>
                                <g class="typst-text" transform="matrix(1 0 0 -1 6.581300000000001 12.513)">
                                    <use xlink:href="#gE685B5C7579FE947A98B45FDFB684C99" x="0" y="0" fill="#000000" fill-rule="nonzero"/>
                                </g>
                            </g>
                        </g>
                    </g>
                </g>
                <path class="typst-shape" fill="#000000" fill-rule="nonzero" stroke="#000000" stroke-width="1.2" stroke-linecap="butt" stroke-linejoin="miter" stroke-miterlimit="4" transform="matrix(1 0 0 1 4.251968308118626 32.31116535433071)" d="M 0 0m 107.42506 0 h -107.42506 "/>
                <path class="typst-shape" fill="#000000" fill-rule="nonzero" stroke="#000000" stroke-width="1.2" stroke-linecap="butt" stroke-linejoin="miter" stroke-miterlimit="4" transform="matrix(1 0 0 1 0 30.185181102362208)" d="M 0 0m 0 2.1259842 l 5.6692915 2.1259842 l -1.4173231 -2.1259842 l 1.4173231 -2.1259842 l -5.6692915 2.1259842 Z "/>
                <path class="typst-shape" fill="none" transform="matrix(1 0 0 1 47.79561244094487 19.677165354330704)" d="M 0 0h 14.377 v 12.634 h -14.377 v -12.634 Z "/>
                <g class="typst-group">
                    <g>
                        <g class="typst-group" transform="matrix(1 0 0 1 47.79561231496063 19.677165133858264)">
                            <g>
                                <g class="typst-text" transform="matrix(1 0 0 -1 0 7.513000000000001)">
                                    <use xlink:href="#g780223D1A6325A5B163178F8505F9322" x="0" y="0" fill="#000000" fill-rule="nonzero"/>
                                </g>
                                <g class="typst-text" transform="matrix(1 0 0 -1 14.618999999999998 7.513000000000001)">
                                    <use xlink:href="#gF05301C3D4D8F4F9C066BF7FDA57A4BB" x="0" y="0" fill="#000000" fill-rule="nonzero"/>
                                </g>
                                <g class="typst-text" transform="matrix(1 0 0 -1 8.558 7.513000000000001)">
                                    <use xlink:href="#gE685B5C7579FE947A98B45FDFB684C99" x="0" y="0" fill="#000000" fill-rule="nonzero"/>
                                </g>
                            </g>
                        </g>
                    </g>
                </g>
            </g>
        </g>
    </g>
    <defs id="glyph">
        <symbol id="gF05301C3D4D8F4F9C066BF7FDA57A4BB" overflow="visible">
            <path d="M 0 0m -0.759 6.5889997 c 0.09900004 0.032999992 0.143 0.0880003 0.143 0.18700027 c 0 0.09899998 -0.04399997 0.1539998 -0.143 0.1869998 c -0.39599997 0.13199997 -0.682 0.37400007 -0.858 0.737 c -0.032999992 0.07700014 -0.09899998 0.12100029 -0.176 0.12100029 c -0.143 0 -0.20900011 -0.065999985 -0.20900011 -0.19799995 c 0 -0.16499996 0.14300013 -0.38500023 0.42900014 -0.64900017 h -3.4099998 c -0.14300013 0 -0.20900011 -0.065999985 -0.20900011 -0.19799995 c 0 -0.13199997 0.065999985 -0.19799995 0.20900011 -0.19799995 h 3.4099998 c -0.286 -0.26399994 -0.42900014 -0.4840002 -0.42900014 -0.64900017 c 0 -0.13199997 0.066000104 -0.19799995 0.20900011 -0.19799995 c 0.07700002 0 0.143 0.04400015 0.176 0.12099981 c 0.176 0.3630004 0.462 0.605 0.858 0.737 Z "/>
        </symbol>
        <symbol id="gE685B5C7579FE947A98B45FDFB684C99" overflow="visible">
            <path d="M 0 0m 5.478 1.584 c 0 0.09899998 -0.055000305 0.15400004 -0.17600012 0.15400004 c -0.0880003 0 -0.15400028 -0.07700002 -0.18700027 -0.23100007 c -0.21999979 -0.86899996 -0.48399973 -1.309 -0.78099966 -1.309 c -0.18700027 0 -0.28600025 0.154 -0.28600025 0.46199995 c 0 0.143 0.04400015 0.40700006 0.14300013 0.79200006 l 0.62699986 2.475 c 0.055000305 0.20900011 0.07700014 0.32999992 0.07700014 0.38499975 c 0 0.22000027 -0.12099981 0.3300004 -0.36299992 0.3300004 c -0.23099995 0 -0.38500023 -0.13200045 -0.4619999 -0.38500023 c -0.23100019 0.40700006 -0.5610001 0.605 -0.9790001 0.605 c -0.71500015 0 -1.3420001 -0.36299992 -1.8920001 -1.089 c -0.506 -0.6819999 -0.759 -1.3859999 -0.759 -2.1230001 c 0 -0.95699996 0.56100005 -1.771 1.4849999 -1.771 c 0.47300005 0 0.93499994 0.253 1.375 0.759 c 0.12100005 -0.418 0.49500012 -0.759 1.0119998 -0.759 c 0.7590003 0 0.99000025 0.891 1.1660004 1.705 Z m -1.7270002 2.5299997 c 0.09899998 -0.23099995 0.15400004 -0.38499975 0.15400004 -0.48399997 c 0 -0.04399991 -0.010999918 -0.09899998 -0.022000074 -0.17599988 l -0.53900003 -2.112 c -0.032999992 -0.12100005 -0.109999895 -0.25300002 -0.20899987 -0.385 c -0.40700006 -0.50600004 -0.803 -0.759 -1.188 -0.759 c -0.42900002 0 -0.64900005 0.32999998 -0.64900005 0.97900003 c 0 0.26399994 0.065999985 0.65999997 0.19800007 1.188 c 0.23099995 0.93499994 0.5609999 1.562 0.96799994 1.9030001 c 0.22000003 0.1869998 0.4289999 0.27499962 0.638 0.27499962 c 0.29699993 0 0.51699996 -0.14299965 0.6489999 -0.4289999 Z "/>
        </symbol>
        <symbol id="gC7B68ECADF81C139719BF2F5FC30EFDD" overflow="visible">
            <path d="M 0 0m 2.3331 5.1128 c -0.3311 -0.32340002 -0.8239001 -0.48510027 -1.4938002 -0.48510027 v -0.33879995 c 0.4543 0 0.81619996 0.069300175 1.0934 0.20020008 v -3.8346 c 0 -0.10010004 -0.0077000856 -0.16170001 -0.030800104 -0.1925 c -0.03849995 -0.08470002 -0.2694999 -0.13090003 -0.69299996 -0.13090003 h -0.3157 v -0.3311 l 1.3706 0.0308 l 1.3783002 -0.0308 v 0.3311 h -0.31570005 c -0.42350006 0 -0.6545 0.046200007 -0.70070004 0.13090003 c -0.015399933 0.030799985 -0.0230999 0.092399955 -0.0230999 0.1925 v 4.2118998 c 0 0.20790005 -0.030800104 0.24640036 -0.26950002 0.24640036 Z "/>
        </symbol>
        <symbol id="gED804E3E4C5D05653A2B347634DB8278" overflow="visible">
            <path d="M 0 0m 0.9163 3.2648 c 0.24639994 0 0.43119997 0.18479991 0.43119997 0.43120003 c 0 0.27719998 -0.14629996 0.42350006 -0.43119997 0.43120003 c 0.16940004 0.36189985 0.5544 0.6545 1.0548999 0.6545 c 0.6775999 0 1.1242001 -0.50820017 1.1242001 -1.1858001 c 0 -0.36960006 -0.13090014 -0.7238002 -0.40040016 -1.0703001 c -0.1308999 -0.17709994 -0.23099995 -0.30029988 -0.30029988 -0.36960006 l -1.8249 -1.8094999 c -0.10010001 -0.092400014 -0.08470002 -0.1155 -0.08470002 -0.3465 h 3.1724 l 0.23869991 1.4476 h -0.32340002 c -0.053900003 -0.4081 -0.11549997 -0.64680004 -0.18479991 -0.7007 c -0.03850007 -0.023100019 -0.27719998 -0.03850001 -0.7314999 -0.03850001 h -1.3090001 c 0.5159 0.45429993 0.9933001 0.86239994 1.4476 1.2243 c 0.34649992 0.2694999 0.59290004 0.50820005 0.7469001 0.71609986 c 0.23099995 0.30030012 0.34649992 0.6160002 0.34649992 0.94710016 c 0 0.47739983 -0.18479991 0.8547001 -0.56209993 1.1318998 c -0.3311 0.25409985 -0.7469001 0.38500023 -1.2397001 0.38500023 c -0.42349994 0 -0.7853999 -0.12319994 -1.1011 -0.3696003 c -0.3311 -0.26949978 -0.50049996 -0.60829973 -0.50049996 -1.0240998 c 0 -0.26180005 0.19250003 -0.45429993 0.4312 -0.45429993 Z "/>
        </symbol>
        <symbol id="g780223D1A6325A5B163178F8505F9322" overflow="visible">
            <path d="M 0 0m 7.678 2.97 h -6.798 c -0.176 0 -0.264 -0.07700014 -0.264 -0.22000003 c 0 -0.14300013 0.088 -0.22000003 0.264 -0.22000003 h 6.798 c 0.17600012 0 0.26399994 0.0769999 0.26399994 0.22000003 c 0 0.13199997 -0.13199997 0.22000003 -0.26399994 0.22000003 Z "/>
        </symbol>
    </defs>
</svg>
