<svg class="typst-doc" viewBox="0 0 200.41198066141732 176.56552396850392" width="200.41198066141732pt" height="176.56552396850392pt" xmlns="http://www.w3.org/2000/svg" xmlns:xlink="http://www.w3.org/1999/xlink" xmlns:h5="http://www.w3.org/1999/xhtml">
    <path class="typst-shape" fill="#ffffff00" fill-rule="nonzero" d="M 0 0v 176.56552 h 200.41199 v -176.56552 Z "/>
    <g>
        <g class="typst-group" transform="matrix(1 0 0 1 0.5 5)">
            <g>
                <path class="typst-shape" fill="#000000" fill-rule="nonzero" stroke="#000000" stroke-width="0.8" stroke-linecap="butt" stroke-linejoin="miter" stroke-miterlimit="4" transform="matrix(1 0 0 1 2.125984251968504 168.93953971653542)" d="M 0 0h 193.03403 "/>
                <path class="typst-shape" fill="#000000" fill-rule="nonzero" stroke="#000000" stroke-width="0.8" stroke-linecap="butt" stroke-linejoin="miter" stroke-miterlimit="4" transform="matrix(1 0 0 1 193.74268932283462 166.81355546456692)" d="M 0 0m 5.6692915 2.1259842 l -5.6692915 -2.1259842 l 1.4173229 2.1259842 l -1.4173229 2.1259842 l 5.6692915 -2.1259842 Z "/>
                <path class="typst-shape" fill="#000000" fill-rule="nonzero" stroke="#000000" stroke-width="0.8" stroke-linecap="butt" stroke-linejoin="miter" stroke-miterlimit="4" transform="matrix(1 0 0 1 2.125984251968504 4.251968562367783)" d="M 0 0m 0 164.68758 v -164.68758 "/>
                <path class="typst-shape" fill="#000000" fill-rule="nonzero" stroke="#000000" stroke-width="0.8" stroke-linecap="butt" stroke-linejoin="miter" stroke-miterlimit="4" d="M 0 0m 2.1259842 0 l -2.1259842 5.6692915 l 2.1259842 -1.4173231 l 2.1259842 1.4173231 l -2.1259842 -5.6692915 Z "/>
                <path class="typst-shape" fill="#aaaaaa" fill-rule="nonzero" transform="matrix(1 0 0 1 15.299212598425196 153.76631137007874)" d="M 0 0m 1 0 c -0.55178404 0 -1 0.448216 -1 1 c 0 0.55178404 0.448216 1 1 1 c 0.55178404 0 1 -0.44821596 1 -1 c 0 -0.55178404 -0.44821596 -1 -1 -1 Z "/>
                <path class="typst-shape" fill="#aaaaaa" fill-rule="nonzero" transform="matrix(1 0 0 1 15.299212598425196 139.59308302362203)" d="M 0 0m 1 0 c -0.55178404 0 -1 0.448216 -1 1 c 0 0.55178404 0.448216 1 1 1 c 0.55178404 0 1 -0.44821596 1 -1 c 0 -0.55178404 -0.44821596 -1 -1 -1 Z "/>
                <path class="typst-shape" fill="#aaaaaa" fill-rule="nonzero" transform="matrix(1 0 0 1 15.299212598425196 125.41985467716535)" d="M 0 0m 1 0 c -0.55178404 0 -1 0.448216 -1 1 c 0 0.55178404 0.448216 1 1 1 c 0.55178404 0 1 -0.44821596 1 -1 c 0 -0.55178404 -0.44821596 -1 -1 -1 Z "/>
                <path class="typst-shape" fill="#aaaaaa" fill-rule="nonzero" transform="matrix(1 0 0 1 15.299212598425196 111.24662633070865)" d="M 0 0m 1 0 c -0.55178404 0 -1 0.448216 -1 1 c 0 0.55178404 0.448216 1 1 1 c 0.55178404 0 1 -0.44821596 1 -1 c 0 -0.55178404 -0.44821596 -1 -1 -1 Z "/>
                <path class="typst-shape" fill="#aaaaaa" fill-rule="nonzero" transform="matrix(1 0 0 1 15.299212598425196 97.07339798425195)" d="M 0 0m 1 0 c -0.55178404 0 -1 0.448216 -1 1 c 0 0.55178404 0.448216 1 1 1 c 0.55178404 0 1 -0.44821596 1 -1 c 0 -0.55178404 -0.44821596 -1 -1 -1 Z "/>
                <path class="typst-shape" fill="#aaaaaa" fill-rule="nonzero" transform="matrix(1 0 0 1 15.299212598425196 82.90016963779526)" d="M 0 0m 1 0 c -0.55178404 0 -1 0.448216 -1 1 c 0 0.55178404 0.448216 1 1 1 c 0.55178404 0 1 -0.44821596 1 -1 c 0 -0.55178404 -0.44821596 -1 -1 -1 Z "/>
                <path class="typst-shape" fill="#aaaaaa" fill-rule="nonzero" transform="matrix(1 0 0 1 15.299212598425196 68.72694129133858)" d="M 0 0m 1 0 c -0.55178404 0 -1 0.448216 -1 1 c 0 0.55178404 0.448216 1 1 1 c 0.55178404 0 1 -0.44821596 1 -1 c 0 -0.55178404 -0.44821596 -1 -1 -1 Z "/>
                <path class="typst-shape" fill="#aaaaaa" fill-rule="nonzero" transform="matrix(1 0 0 1 15.299212598425196 54.55371294488187)" d="M 0 0m 1 0 c -0.55178404 0 -1 0.448216 -1 1 c 0 0.55178404 0.448216 1 1 1 c 0.55178404 0 1 -0.44821596 1 -1 c 0 -0.55178404 -0.44821596 -1 -1 -1 Z "/>
                <path class="typst-shape" fill="#aaaaaa" fill-rule="nonzero" transform="matrix(1 0 0 1 15.299212598425196 40.38048459842518)" d="M 0 0m 1 0 c -0.55178404 0 -1 0.448216 -1 1 c 0 0.55178404 0.448216 1 1 1 c 0.55178404 0 1 -0.44821596 1 -1 c 0 -0.55178404 -0.44821596 -1 -1 -1 Z "/>
                <path class="typst-shape" fill="#aaaaaa" fill-rule="nonzero" transform="matrix(1 0 0 1 15.299212598425196 26.207256251968484)" d="M 0 0m 1 0 c -0.55178404 0 -1 0.448216 -1 1 c 0 0.55178404 0.448216 1 1 1 c 0.55178404 0 1 -0.44821596 1 -1 c 0 -0.55178404 -0.44821596 -1 -1 -1 Z "/>
                <path class="typst-shape" fill="#aaaaaa" fill-rule="nonzero" transform="matrix(1 0 0 1 15.299212598425196 12.034027905511794)" d="M 0 0m 1 0 c -0.55178404 0 -1 0.448216 -1 1 c 0 0.55178404 0.448216 1 1 1 c 0.55178404 0 1 -0.44821596 1 -1 c 0 -0.55178404 -0.44821596 -1 -1 -1 Z "/>
                <path class="typst-shape" fill="#aaaaaa" fill-rule="nonzero" transform="matrix(1 0 0 1 29.47244094488189 153.76631137007874)" d="M 0 0m 1 0 c -0.55178404 0 -1 0.448216 -1 1 c 0 0.55178404 0.448216 1 1 1 c 0.55178404 0 1 -0.44821596 1 -1 c 0 -0.55178404 -0.44821596 -1 -1 -1 Z "/>
                <path class="typst-shape" fill="#aaaaaa" fill-rule="nonzero" transform="matrix(1 0 0 1 29.47244094488189 139.59308302362203)" d="M 0 0m 1 0 c -0.55178404 0 -1 0.448216 -1 1 c 0 0.55178404 0.448216 1 1 1 c 0.55178404 0 1 -0.44821596 1 -1 c 0 -0.55178404 -0.44821596 -1 -1 -1 Z "/>
                <path class="typst-shape" fill="#aaaaaa" fill-rule="nonzero" transform="matrix(1 0 0 1 29.47244094488189 125.41985467716535)" d="M 0 0m 1 0 c -0.55178404 0 -1 0.448216 -1 1 c 0 0.55178404 0.448216 1 1 1 c 0.55178404 0 1 -0.44821596 1 -1 c 0 -0.55178404 -0.44821596 -1 -1 -1 Z "/>
                <path class="typst-shape" fill="#aaaaaa" fill-rule="nonzero" transform="matrix(1 0 0 1 29.47244094488189 111.24662633070865)" d="M 0 0m 1 0 c -0.55178404 0 -1 0.448216 -1 1 c 0 0.55178404 0.448216 1 1 1 c 0.55178404 0 1 -0.44821596 1 -1 c 0 -0.55178404 -0.44821596 -1 -1 -1 Z "/>
                <path class="typst-shape" fill="#aaaaaa" fill-rule="nonzero" transform="matrix(1 0 0 1 29.47244094488189 97.07339798425195)" d="M 0 0m 1 0 c -0.55178404 0 -1 0.448216 -1 1 c 0 0.55178404 0.448216 1 1 1 c 0.55178404 0 1 -0.44821596 1 -1 c 0 -0.55178404 -0.44821596 -1 -1 -1 Z "/>
                <path class="typst-shape" fill="#aaaaaa" fill-rule="nonzero" transform="matrix(1 0 0 1 29.47244094488189 82.90016963779526)" d="M 0 0m 1 0 c -0.55178404 0 -1 0.448216 -1 1 c 0 0.55178404 0.448216 1 1 1 c 0.55178404 0 1 -0.44821596 1 -1 c 0 -0.55178404 -0.44821596 -1 -1 -1 Z "/>
                <path class="typst-shape" fill="#aaaaaa" fill-rule="nonzero" transform="matrix(1 0 0 1 29.47244094488189 68.72694129133858)" d="M 0 0m 1 0 c -0.55178404 0 -1 0.448216 -1 1 c 0 0.55178404 0.448216 1 1 1 c 0.55178404 0 1 -0.44821596 1 -1 c 0 -0.55178404 -0.44821596 -1 -1 -1 Z "/>
                <path class="typst-shape" fill="#aaaaaa" fill-rule="nonzero" transform="matrix(1 0 0 1 29.47244094488189 54.55371294488187)" d="M 0 0m 1 0 c -0.55178404 0 -1 0.448216 -1 1 c 0 0.55178404 0.448216 1 1 1 c 0.55178404 0 1 -0.44821596 1 -1 c 0 -0.55178404 -0.44821596 -1 -1 -1 Z "/>
                <path class="typst-shape" fill="#aaaaaa" fill-rule="nonzero" transform="matrix(1 0 0 1 29.47244094488189 40.38048459842518)" d="M 0 0m 1 0 c -0.55178404 0 -1 0.448216 -1 1 c 0 0.55178404 0.448216 1 1 1 c 0.55178404 0 1 -0.44821596 1 -1 c 0 -0.55178404 -0.44821596 -1 -1 -1 Z "/>
                <path class="typst-shape" fill="#aaaaaa" fill-rule="nonzero" transform="matrix(1 0 0 1 29.47244094488189 26.207256251968484)" d="M 0 0m 1 0 c -0.55178404 0 -1 0.448216 -1 1 c 0 0.55178404 0.448216 1 1 1 c 0.55178404 0 1 -0.44821596 1 -1 c 0 -0.55178404 -0.44821596 -1 -1 -1 Z "/>
                <path class="typst-shape" fill="#aaaaaa" fill-rule="nonzero" transform="matrix(1 0 0 1 29.47244094488189 12.034027905511794)" d="M 0 0m 1 0 c -0.55178404 0 -1 0.448216 -1 1 c 0 0.55178404 0.448216 1 1 1 c 0.55178404 0 1 -0.44821596 1 -1 c 0 -0.55178404 -0.44821596 -1 -1 -1 Z "/>
                <path class="typst-shape" fill="#aaaaaa" fill-rule="nonzero" transform="matrix(1 0 0 1 43.645669291338585 153.76631137007874)" d="M 0 0m 1 0 c -0.55178404 0 -1 0.448216 -1 1 c 0 0.55178404 0.448216 1 1 1 c 0.55178404 0 1 -0.44821596 1 -1 c 0 -0.55178404 -0.44821596 -1 -1 -1 Z "/>
                <path class="typst-shape" fill="#aaaaaa" fill-rule="nonzero" transform="matrix(1 0 0 1 43.645669291338585 139.59308302362203)" d="M 0 0m 1 0 c -0.55178404 0 -1 0.448216 -1 1 c 0 0.55178404 0.448216 1 1 1 c 0.55178404 0 1 -0.44821596 1 -1 c 0 -0.55178404 -0.44821596 -1 -1 -1 Z "/>
                <path class="typst-shape" fill="#aaaaaa" fill-rule="nonzero" transform="matrix(1 0 0 1 43.645669291338585 125.41985467716535)" d="M 0 0m 1 0 c -0.55178404 0 -1 0.448216 -1 1 c 0 0.55178404 0.448216 1 1 1 c 0.55178404 0 1 -0.44821596 1 -1 c 0 -0.55178404 -0.44821596 -1 -1 -1 Z "/>
                <path class="typst-shape" fill="#aaaaaa" fill-rule="nonzero" transform="matrix(1 0 0 1 43.645669291338585 111.24662633070865)" d="M 0 0m 1 0 c -0.55178404 0 -1 0.448216 -1 1 c 0 0.55178404 0.448216 1 1 1 c 0.55178404 0 1 -0.44821596 1 -1 c 0 -0.55178404 -0.44821596 -1 -1 -1 Z "/>
                <path class="typst-shape" fill="#aaaaaa" fill-rule="nonzero" transform="matrix(1 0 0 1 43.645669291338585 97.07339798425195)" d="M 0 0m 1 0 c -0.55178404 0 -1 0.448216 -1 1 c 0 0.55178404 0.448216 1 1 1 c 0.55178404 0 1 -0.44821596 1 -1 c 0 -0.55178404 -0.44821596 -1 -1 -1 Z "/>
                <path class="typst-shape" fill="#aaaaaa" fill-rule="nonzero" transform="matrix(1 0 0 1 43.645669291338585 82.90016963779526)" d="M 0 0m 1 0 c -0.55178404 0 -1 0.448216 -1 1 c 0 0.55178404 0.448216 1 1 1 c 0.55178404 0 1 -0.44821596 1 -1 c 0 -0.55178404 -0.44821596 -1 -1 -1 Z "/>
                <path class="typst-shape" fill="#aaaaaa" fill-rule="nonzero" transform="matrix(1 0 0 1 43.645669291338585 68.72694129133858)" d="M 0 0m 1 0 c -0.55178404 0 -1 0.448216 -1 1 c 0 0.55178404 0.448216 1 1 1 c 0.55178404 0 1 -0.44821596 1 -1 c 0 -0.55178404 -0.44821596 -1 -1 -1 Z "/>
                <path class="typst-shape" fill="#aaaaaa" fill-rule="nonzero" transform="matrix(1 0 0 1 43.645669291338585 54.55371294488187)" d="M 0 0m 1 0 c -0.55178404 0 -1 0.448216 -1 1 c 0 0.55178404 0.448216 1 1 1 c 0.55178404 0 1 -0.44821596 1 -1 c 0 -0.55178404 -0.44821596 -1 -1 -1 Z "/>
                <path class="typst-shape" fill="#aaaaaa" fill-rule="nonzero" transform="matrix(1 0 0 1 43.645669291338585 40.38048459842518)" d="M 0 0m 1 0 c -0.55178404 0 -1 0.448216 -1 1 c 0 0.55178404 0.448216 1 1 1 c 0.55178404 0 1 -0.44821596 1 -1 c 0 -0.55178404 -0.44821596 -1 -1 -1 Z "/>
                <path class="typst-shape" fill="#aaaaaa" fill-rule="nonzero" transform="matrix(1 0 0 1 43.645669291338585 26.207256251968484)" d="M 0 0m 1 0 c -0.55178404 0 -1 0.448216 -1 1 c 0 0.55178404 0.448216 1 1 1 c 0.55178404 0 1 -0.44821596 1 -1 c 0 -0.55178404 -0.44821596 -1 -1 -1 Z "/>
                <path class="typst-shape" fill="#aaaaaa" fill-rule="nonzero" transform="matrix(1 0 0 1 43.645669291338585 12.034027905511794)" d="M 0 0m 1 0 c -0.55178404 0 -1 0.448216 -1 1 c 0 0.55178404 0.448216 1 1 1 c 0.55178404 0 1 -0.44821596 1 -1 c 0 -0.55178404 -0.44821596 -1 -1 -1 Z "/>
                <path class="typst-shape" fill="#aaaaaa" fill-rule="nonzero" transform="matrix(1 0 0 1 57.818897637795274 153.76631137007874)" d="M 0 0m 1 0 c -0.55178404 0 -1 0.448216 -1 1 c 0 0.55178404 0.448216 1 1 1 c 0.55178404 0 1 -0.44821596 1 -1 c 0 -0.55178404 -0.44821596 -1 -1 -1 Z "/>
                <path class="typst-shape" fill="#aaaaaa" fill-rule="nonzero" transform="matrix(1 0 0 1 57.818897637795274 139.59308302362203)" d="M 0 0m 1 0 c -0.55178404 0 -1 0.448216 -1 1 c 0 0.55178404 0.448216 1 1 1 c 0.55178404 0 1 -0.44821596 1 -1 c 0 -0.55178404 -0.44821596 -1 -1 -1 Z "/>
                <path class="typst-shape" fill="#aaaaaa" fill-rule="nonzero" transform="matrix(1 0 0 1 57.818897637795274 125.41985467716535)" d="M 0 0m 1 0 c -0.55178404 0 -1 0.448216 -1 1 c 0 0.55178404 0.448216 1 1 1 c 0.55178404 0 1 -0.44821596 1 -1 c 0 -0.55178404 -0.44821596 -1 -1 -1 Z "/>
                <path class="typst-shape" fill="#aaaaaa" fill-rule="nonzero" transform="matrix(1 0 0 1 57.818897637795274 111.24662633070865)" d="M 0 0m 1 0 c -0.55178404 0 -1 0.448216 -1 1 c 0 0.55178404 0.448216 1 1 1 c 0.55178404 0 1 -0.44821596 1 -1 c 0 -0.55178404 -0.44821596 -1 -1 -1 Z "/>
                <path class="typst-shape" fill="#aaaaaa" fill-rule="nonzero" transform="matrix(1 0 0 1 57.818897637795274 97.07339798425195)" d="M 0 0m 1 0 c -0.55178404 0 -1 0.448216 -1 1 c 0 0.55178404 0.448216 1 1 1 c 0.55178404 0 1 -0.44821596 1 -1 c 0 -0.55178404 -0.44821596 -1 -1 -1 Z "/>
                <path class="typst-shape" fill="#aaaaaa" fill-rule="nonzero" transform="matrix(1 0 0 1 57.818897637795274 82.90016963779526)" d="M 0 0m 1 0 c -0.55178404 0 -1 0.448216 -1 1 c 0 0.55178404 0.448216 1 1 1 c 0.55178404 0 1 -0.44821596 1 -1 c 0 -0.55178404 -0.44821596 -1 -1 -1 Z "/>
                <path class="typst-shape" fill="#aaaaaa" fill-rule="nonzero" transform="matrix(1 0 0 1 57.818897637795274 68.72694129133858)" d="M 0 0m 1 0 c -0.55178404 0 -1 0.448216 -1 1 c 0 0.55178404 0.448216 1 1 1 c 0.55178404 0 1 -0.44821596 1 -1 c 0 -0.55178404 -0.44821596 -1 -1 -1 Z "/>
                <path class="typst-shape" fill="#aaaaaa" fill-rule="nonzero" transform="matrix(1 0 0 1 57.818897637795274 54.55371294488187)" d="M 0 0m 1 0 c -0.55178404 0 -1 0.448216 -1 1 c 0 0.55178404 0.448216 1 1 1 c 0.55178404 0 1 -0.44821596 1 -1 c 0 -0.55178404 -0.44821596 -1 -1 -1 Z "/>
                <path class="typst-shape" fill="#aaaaaa" fill-rule="nonzero" transform="matrix(1 0 0 1 57.818897637795274 40.38048459842518)" d="M 0 0m 1 0 c -0.55178404 0 -1 0.448216 -1 1 c 0 0.55178404 0.448216 1 1 1 c 0.55178404 0 1 -0.44821596 1 -1 c 0 -0.55178404 -0.44821596 -1 -1 -1 Z "/>
                <path class="typst-shape" fill="#aaaaaa" fill-rule="nonzero" transform="matrix(1 0 0 1 57.818897637795274 26.207256251968484)" d="M 0 0m 1 0 c -0.55178404 0 -1 0.448216 -1 1 c 0 0.55178404 0.448216 1 1 1 c 0.55178404 0 1 -0.44821596 1 -1 c 0 -0.55178404 -0.44821596 -1 -1 -1 Z "/>
                <path class="typst-shape" fill="#aaaaaa" fill-rule="nonzero" transform="matrix(1 0 0 1 57.818897637795274 12.034027905511794)" d="M 0 0m 1 0 c -0.55178404 0 -1 0.448216 -1 1 c 0 0.55178404 0.448216 1 1 1 c 0.55178404 0 1 -0.44821596 1 -1 c 0 -0.55178404 -0.44821596 -1 -1 -1 Z "/>
                <path class="typst-shape" fill="#aaaaaa" fill-rule="nonzero" transform="matrix(1 0 0 1 71.99212598425197 153.76631137007874)" d="M 0 0m 1 0 c -0.55178404 0 -1 0.448216 -1 1 c 0 0.55178404 0.448216 1 1 1 c 0.55178404 0 1 -0.44821596 1 -1 c 0 -0.55178404 -0.44821596 -1 -1 -1 Z "/>
                <path class="typst-shape" fill="#aaaaaa" fill-rule="nonzero" transform="matrix(1 0 0 1 71.99212598425197 139.59308302362203)" d="M 0 0m 1 0 c -0.55178404 0 -1 0.448216 -1 1 c 0 0.55178404 0.448216 1 1 1 c 0.55178404 0 1 -0.44821596 1 -1 c 0 -0.55178404 -0.44821596 -1 -1 -1 Z "/>
                <path class="typst-shape" fill="#aaaaaa" fill-rule="nonzero" transform="matrix(1 0 0 1 71.99212598425197 125.41985467716535)" d="M 0 0m 1 0 c -0.55178404 0 -1 0.448216 -1 1 c 0 0.55178404 0.448216 1 1 1 c 0.55178404 0 1 -0.44821596 1 -1 c 0 -0.55178404 -0.44821596 -1 -1 -1 Z "/>
                <path class="typst-shape" fill="#aaaaaa" fill-rule="nonzero" transform="matrix(1 0 0 1 71.99212598425197 111.24662633070865)" d="M 0 0m 1 0 c -0.55178404 0 -1 0.448216 -1 1 c 0 0.55178404 0.448216 1 1 1 c 0.55178404 0 1 -0.44821596 1 -1 c 0 -0.55178404 -0.44821596 -1 -1 -1 Z "/>
                <path class="typst-shape" fill="#aaaaaa" fill-rule="nonzero" transform="matrix(1 0 0 1 71.99212598425197 97.07339798425195)" d="M 0 0m 1 0 c -0.55178404 0 -1 0.448216 -1 1 c 0 0.55178404 0.448216 1 1 1 c 0.55178404 0 1 -0.44821596 1 -1 c 0 -0.55178404 -0.44821596 -1 -1 -1 Z "/>
                <path class="typst-shape" fill="#aaaaaa" fill-rule="nonzero" transform="matrix(1 0 0 1 71.99212598425197 82.90016963779526)" d="M 0 0m 1 0 c -0.55178404 0 -1 0.448216 -1 1 c 0 0.55178404 0.448216 1 1 1 c 0.55178404 0 1 -0.44821596 1 -1 c 0 -0.55178404 -0.44821596 -1 -1 -1 Z "/>
                <path class="typst-shape" fill="#aaaaaa" fill-rule="nonzero" transform="matrix(1 0 0 1 71.99212598425197 68.72694129133858)" d="M 0 0m 1 0 c -0.55178404 0 -1 0.448216 -1 1 c 0 0.55178404 0.448216 1 1 1 c 0.55178404 0 1 -0.44821596 1 -1 c 0 -0.55178404 -0.44821596 -1 -1 -1 Z "/>
                <path class="typst-shape" fill="#aaaaaa" fill-rule="nonzero" transform="matrix(1 0 0 1 71.99212598425197 54.55371294488187)" d="M 0 0m 1 0 c -0.55178404 0 -1 0.448216 -1 1 c 0 0.55178404 0.448216 1 1 1 c 0.55178404 0 1 -0.44821596 1 -1 c 0 -0.55178404 -0.44821596 -1 -1 -1 Z "/>
                <path class="typst-shape" fill="#aaaaaa" fill-rule="nonzero" transform="matrix(1 0 0 1 71.99212598425197 40.38048459842518)" d="M 0 0m 1 0 c -0.55178404 0 -1 0.448216 -1 1 c 0 0.55178404 0.448216 1 1 1 c 0.55178404 0 1 -0.44821596 1 -1 c 0 -0.55178404 -0.44821596 -1 -1 -1 Z "/>
                <path class="typst-shape" fill="#aaaaaa" fill-rule="nonzero" transform="matrix(1 0 0 1 71.99212598425197 26.207256251968484)" d="M 0 0m 1 0 c -0.55178404 0 -1 0.448216 -1 1 c 0 0.55178404 0.448216 1 1 1 c 0.55178404 0 1 -0.44821596 1 -1 c 0 -0.55178404 -0.44821596 -1 -1 -1 Z "/>
                <path class="typst-shape" fill="#aaaaaa" fill-rule="nonzero" transform="matrix(1 0 0 1 71.99212598425197 12.034027905511794)" d="M 0 0m 1 0 c -0.55178404 0 -1 0.448216 -1 1 c 0 0.55178404 0.448216 1 1 1 c 0.55178404 0 1 -0.44821596 1 -1 c 0 -0.55178404 -0.44821596 -1 -1 -1 Z "/>
                <path class="typst-shape" fill="#aaaaaa" fill-rule="nonzero" transform="matrix(1 0 0 1 86.16535433070867 153.76631137007874)" d="M 0 0m 1 0 c -0.55178404 0 -1 0.448216 -1 1 c 0 0.55178404 0.448216 1 1 1 c 0.55178404 0 1 -0.44821596 1 -1 c 0 -0.55178404 -0.44821596 -1 -1 -1 Z "/>
                <path class="typst-shape" fill="#aaaaaa" fill-rule="nonzero" transform="matrix(1 0 0 1 86.16535433070867 139.59308302362203)" d="M 0 0m 1 0 c -0.55178404 0 -1 0.448216 -1 1 c 0 0.55178404 0.448216 1 1 1 c 0.55178404 0 1 -0.44821596 1 -1 c 0 -0.55178404 -0.44821596 -1 -1 -1 Z "/>
                <path class="typst-shape" fill="#aaaaaa" fill-rule="nonzero" transform="matrix(1 0 0 1 86.16535433070867 125.41985467716535)" d="M 0 0m 1 0 c -0.55178404 0 -1 0.448216 -1 1 c 0 0.55178404 0.448216 1 1 1 c 0.55178404 0 1 -0.44821596 1 -1 c 0 -0.55178404 -0.44821596 -1 -1 -1 Z "/>
                <path class="typst-shape" fill="#aaaaaa" fill-rule="nonzero" transform="matrix(1 0 0 1 86.16535433070867 111.24662633070865)" d="M 0 0m 1 0 c -0.55178404 0 -1 0.448216 -1 1 c 0 0.55178404 0.448216 1 1 1 c 0.55178404 0 1 -0.44821596 1 -1 c 0 -0.55178404 -0.44821596 -1 -1 -1 Z "/>
                <path class="typst-shape" fill="#aaaaaa" fill-rule="nonzero" transform="matrix(1 0 0 1 86.16535433070867 97.07339798425195)" d="M 0 0m 1 0 c -0.55178404 0 -1 0.448216 -1 1 c 0 0.55178404 0.448216 1 1 1 c 0.55178404 0 1 -0.44821596 1 -1 c 0 -0.55178404 -0.44821596 -1 -1 -1 Z "/>
                <path class="typst-shape" fill="#aaaaaa" fill-rule="nonzero" transform="matrix(1 0 0 1 86.16535433070867 82.90016963779526)" d="M 0 0m 1 0 c -0.55178404 0 -1 0.448216 -1 1 c 0 0.55178404 0.448216 1 1 1 c 0.55178404 0 1 -0.44821596 1 -1 c 0 -0.55178404 -0.44821596 -1 -1 -1 Z "/>
                <path class="typst-shape" fill="#aaaaaa" fill-rule="nonzero" transform="matrix(1 0 0 1 86.16535433070867 68.72694129133858)" d="M 0 0m 1 0 c -0.55178404 0 -1 0.448216 -1 1 c 0 0.55178404 0.448216 1 1 1 c 0.55178404 0 1 -0.44821596 1 -1 c 0 -0.55178404 -0.44821596 -1 -1 -1 Z "/>
                <path class="typst-shape" fill="#aaaaaa" fill-rule="nonzero" transform="matrix(1 0 0 1 86.16535433070867 54.55371294488187)" d="M 0 0m 1 0 c -0.55178404 0 -1 0.448216 -1 1 c 0 0.55178404 0.448216 1 1 1 c 0.55178404 0 1 -0.44821596 1 -1 c 0 -0.55178404 -0.44821596 -1 -1 -1 Z "/>
                <path class="typst-shape" fill="#aaaaaa" fill-rule="nonzero" transform="matrix(1 0 0 1 86.16535433070867 40.38048459842518)" d="M 0 0m 1 0 c -0.55178404 0 -1 0.448216 -1 1 c 0 0.55178404 0.448216 1 1 1 c 0.55178404 0 1 -0.44821596 1 -1 c 0 -0.55178404 -0.44821596 -1 -1 -1 Z "/>
                <path class="typst-shape" fill="#aaaaaa" fill-rule="nonzero" transform="matrix(1 0 0 1 86.16535433070867 26.207256251968484)" d="M 0 0m 1 0 c -0.55178404 0 -1 0.448216 -1 1 c 0 0.55178404 0.448216 1 1 1 c 0.55178404 0 1 -0.44821596 1 -1 c 0 -0.55178404 -0.44821596 -1 -1 -1 Z "/>
                <path class="typst-shape" fill="#aaaaaa" fill-rule="nonzero" transform="matrix(1 0 0 1 86.16535433070867 12.034027905511794)" d="M 0 0m 1 0 c -0.55178404 0 -1 0.448216 -1 1 c 0 0.55178404 0.448216 1 1 1 c 0.55178404 0 1 -0.44821596 1 -1 c 0 -0.55178404 -0.44821596 -1 -1 -1 Z "/>
                <path class="typst-shape" fill="#aaaaaa" fill-rule="nonzero" transform="matrix(1 0 0 1 100.33858267716535 153.76631137007874)" d="M 0 0m 1 0 c -0.55178404 0 -1 0.448216 -1 1 c 0 0.55178404 0.448216 1 1 1 c 0.55178404 0 1 -0.44821596 1 -1 c 0 -0.55178404 -0.44821596 -1 -1 -1 Z "/>
                <path class="typst-shape" fill="#aaaaaa" fill-rule="nonzero" transform="matrix(1 0 0 1 100.33858267716535 139.59308302362203)" d="M 0 0m 1 0 c -0.55178404 0 -1 0.448216 -1 1 c 0 0.55178404 0.448216 1 1 1 c 0.55178404 0 1 -0.44821596 1 -1 c 0 -0.55178404 -0.44821596 -1 -1 -1 Z "/>
                <path class="typst-shape" fill="#aaaaaa" fill-rule="nonzero" transform="matrix(1 0 0 1 100.33858267716535 125.41985467716535)" d="M 0 0m 1 0 c -0.55178404 0 -1 0.448216 -1 1 c 0 0.55178404 0.448216 1 1 1 c 0.55178404 0 1 -0.44821596 1 -1 c 0 -0.55178404 -0.44821596 -1 -1 -1 Z "/>
                <path class="typst-shape" fill="#aaaaaa" fill-rule="nonzero" transform="matrix(1 0 0 1 100.33858267716535 111.24662633070865)" d="M 0 0m 1 0 c -0.55178404 0 -1 0.448216 -1 1 c 0 0.55178404 0.448216 1 1 1 c 0.55178404 0 1 -0.44821596 1 -1 c 0 -0.55178404 -0.44821596 -1 -1 -1 Z "/>
                <path class="typst-shape" fill="#aaaaaa" fill-rule="nonzero" transform="matrix(1 0 0 1 100.33858267716535 97.07339798425195)" d="M 0 0m 1 0 c -0.55178404 0 -1 0.448216 -1 1 c 0 0.55178404 0.448216 1 1 1 c 0.55178404 0 1 -0.44821596 1 -1 c 0 -0.55178404 -0.44821596 -1 -1 -1 Z "/>
                <path class="typst-shape" fill="#aaaaaa" fill-rule="nonzero" transform="matrix(1 0 0 1 100.33858267716535 82.90016963779526)" d="M 0 0m 1 0 c -0.55178404 0 -1 0.448216 -1 1 c 0 0.55178404 0.448216 1 1 1 c 0.55178404 0 1 -0.44821596 1 -1 c 0 -0.55178404 -0.44821596 -1 -1 -1 Z "/>
                <path class="typst-shape" fill="#aaaaaa" fill-rule="nonzero" transform="matrix(1 0 0 1 100.33858267716535 68.72694129133858)" d="M 0 0m 1 0 c -0.55178404 0 -1 0.448216 -1 1 c 0 0.55178404 0.448216 1 1 1 c 0.55178404 0 1 -0.44821596 1 -1 c 0 -0.55178404 -0.44821596 -1 -1 -1 Z "/>
                <path class="typst-shape" fill="#aaaaaa" fill-rule="nonzero" transform="matrix(1 0 0 1 100.33858267716535 54.55371294488187)" d="M 0 0m 1 0 c -0.55178404 0 -1 0.448216 -1 1 c 0 0.55178404 0.448216 1 1 1 c 0.55178404 0 1 -0.44821596 1 -1 c 0 -0.55178404 -0.44821596 -1 -1 -1 Z "/>
                <path class="typst-shape" fill="#aaaaaa" fill-rule="nonzero" transform="matrix(1 0 0 1 100.33858267716535 40.38048459842518)" d="M 0 0m 1 0 c -0.55178404 0 -1 0.448216 -1 1 c 0 0.55178404 0.448216 1 1 1 c 0.55178404 0 1 -0.44821596 1 -1 c 0 -0.55178404 -0.44821596 -1 -1 -1 Z "/>
                <path class="typst-shape" fill="#aaaaaa" fill-rule="nonzero" transform="matrix(1 0 0 1 100.33858267716535 26.207256251968484)" d="M 0 0m 1 0 c -0.55178404 0 -1 0.448216 -1 1 c 0 0.55178404 0.448216 1 1 1 c 0.55178404 0 1 -0.44821596 1 -1 c 0 -0.55178404 -0.44821596 -1 -1 -1 Z "/>
                <path class="typst-shape" fill="#aaaaaa" fill-rule="nonzero" transform="matrix(1 0 0 1 100.33858267716535 12.034027905511794)" d="M 0 0m 1 0 c -0.55178404 0 -1 0.448216 -1 1 c 0 0.55178404 0.448216 1 1 1 c 0.55178404 0 1 -0.44821596 1 -1 c 0 -0.55178404 -0.44821596 -1 -1 -1 Z "/>
                <path class="typst-shape" fill="#aaaaaa" fill-rule="nonzero" transform="matrix(1 0 0 1 114.51181102362204 153.76631137007874)" d="M 0 0m 1 0 c -0.55178404 0 -1 0.448216 -1 1 c 0 0.55178404 0.448216 1 1 1 c 0.55178404 0 1 -0.44821596 1 -1 c 0 -0.55178404 -0.44821596 -1 -1 -1 Z "/>
                <path class="typst-shape" fill="#aaaaaa" fill-rule="nonzero" transform="matrix(1 0 0 1 114.51181102362204 139.59308302362203)" d="M 0 0m 1 0 c -0.55178404 0 -1 0.448216 -1 1 c 0 0.55178404 0.448216 1 1 1 c 0.55178404 0 1 -0.44821596 1 -1 c 0 -0.55178404 -0.44821596 -1 -1 -1 Z "/>
                <path class="typst-shape" fill="#aaaaaa" fill-rule="nonzero" transform="matrix(1 0 0 1 114.51181102362204 125.41985467716535)" d="M 0 0m 1 0 c -0.55178404 0 -1 0.448216 -1 1 c 0 0.55178404 0.448216 1 1 1 c 0.55178404 0 1 -0.44821596 1 -1 c 0 -0.55178404 -0.44821596 -1 -1 -1 Z "/>
                <path class="typst-shape" fill="#aaaaaa" fill-rule="nonzero" transform="matrix(1 0 0 1 114.51181102362204 111.24662633070865)" d="M 0 0m 1 0 c -0.55178404 0 -1 0.448216 -1 1 c 0 0.55178404 0.448216 1 1 1 c 0.55178404 0 1 -0.44821596 1 -1 c 0 -0.55178404 -0.44821596 -1 -1 -1 Z "/>
                <path class="typst-shape" fill="#aaaaaa" fill-rule="nonzero" transform="matrix(1 0 0 1 114.51181102362204 97.07339798425195)" d="M 0 0m 1 0 c -0.55178404 0 -1 0.448216 -1 1 c 0 0.55178404 0.448216 1 1 1 c 0.55178404 0 1 -0.44821596 1 -1 c 0 -0.55178404 -0.44821596 -1 -1 -1 Z "/>
                <path class="typst-shape" fill="#aaaaaa" fill-rule="nonzero" transform="matrix(1 0 0 1 114.51181102362204 82.90016963779526)" d="M 0 0m 1 0 c -0.55178404 0 -1 0.448216 -1 1 c 0 0.55178404 0.448216 1 1 1 c 0.55178404 0 1 -0.44821596 1 -1 c 0 -0.55178404 -0.44821596 -1 -1 -1 Z "/>
                <path class="typst-shape" fill="#aaaaaa" fill-rule="nonzero" transform="matrix(1 0 0 1 114.51181102362204 68.72694129133858)" d="M 0 0m 1 0 c -0.55178404 0 -1 0.448216 -1 1 c 0 0.55178404 0.448216 1 1 1 c 0.55178404 0 1 -0.44821596 1 -1 c 0 -0.55178404 -0.44821596 -1 -1 -1 Z "/>
                <path class="typst-shape" fill="#aaaaaa" fill-rule="nonzero" transform="matrix(1 0 0 1 114.51181102362204 54.55371294488187)" d="M 0 0m 1 0 c -0.55178404 0 -1 0.448216 -1 1 c 0 0.55178404 0.448216 1 1 1 c 0.55178404 0 1 -0.44821596 1 -1 c 0 -0.55178404 -0.44821596 -1 -1 -1 Z "/>
                <path class="typst-shape" fill="#aaaaaa" fill-rule="nonzero" transform="matrix(1 0 0 1 114.51181102362204 40.38048459842518)" d="M 0 0m 1 0 c -0.55178404 0 -1 0.448216 -1 1 c 0 0.55178404 0.448216 1 1 1 c 0.55178404 0 1 -0.44821596 1 -1 c 0 -0.55178404 -0.44821596 -1 -1 -1 Z "/>
                <path class="typst-shape" fill="#aaaaaa" fill-rule="nonzero" transform="matrix(1 0 0 1 114.51181102362204 26.207256251968484)" d="M 0 0m 1 0 c -0.55178404 0 -1 0.448216 -1 1 c 0 0.55178404 0.448216 1 1 1 c 0.55178404 0 1 -0.44821596 1 -1 c 0 -0.55178404 -0.44821596 -1 -1 -1 Z "/>
                <path class="typst-shape" fill="#aaaaaa" fill-rule="nonzero" transform="matrix(1 0 0 1 114.51181102362204 12.034027905511794)" d="M 0 0m 1 0 c -0.55178404 0 -1 0.448216 -1 1 c 0 0.55178404 0.448216 1 1 1 c 0.55178404 0 1 -0.44821596 1 -1 c 0 -0.55178404 -0.44821596 -1 -1 -1 Z "/>
                <path class="typst-shape" fill="#aaaaaa" fill-rule="nonzero" transform="matrix(1 0 0 1 128.68503937007873 153.76631137007874)" d="M 0 0m 1 0 c -0.55178404 0 -1 0.448216 -1 1 c 0 0.55178404 0.448216 1 1 1 c 0.55178404 0 1 -0.44821596 1 -1 c 0 -0.55178404 -0.44821596 -1 -1 -1 Z "/>
                <path class="typst-shape" fill="#aaaaaa" fill-rule="nonzero" transform="matrix(1 0 0 1 128.68503937007873 139.59308302362203)" d="M 0 0m 1 0 c -0.55178404 0 -1 0.448216 -1 1 c 0 0.55178404 0.448216 1 1 1 c 0.55178404 0 1 -0.44821596 1 -1 c 0 -0.55178404 -0.44821596 -1 -1 -1 Z "/>
                <path class="typst-shape" fill="#aaaaaa" fill-rule="nonzero" transform="matrix(1 0 0 1 128.68503937007873 125.41985467716535)" d="M 0 0m 1 0 c -0.55178404 0 -1 0.448216 -1 1 c 0 0.55178404 0.448216 1 1 1 c 0.55178404 0 1 -0.44821596 1 -1 c 0 -0.55178404 -0.44821596 -1 -1 -1 Z "/>
                <path class="typst-shape" fill="#aaaaaa" fill-rule="nonzero" transform="matrix(1 0 0 1 128.68503937007873 111.24662633070865)" d="M 0 0m 1 0 c -0.55178404 0 -1 0.448216 -1 1 c 0 0.55178404 0.448216 1 1 1 c 0.55178404 0 1 -0.44821596 1 -1 c 0 -0.55178404 -0.44821596 -1 -1 -1 Z "/>
                <path class="typst-shape" fill="#aaaaaa" fill-rule="nonzero" transform="matrix(1 0 0 1 128.68503937007873 97.07339798425195)" d="M 0 0m 1 0 c -0.55178404 0 -1 0.448216 -1 1 c 0 0.55178404 0.448216 1 1 1 c 0.55178404 0 1 -0.44821596 1 -1 c 0 -0.55178404 -0.44821596 -1 -1 -1 Z "/>
                <path class="typst-shape" fill="#aaaaaa" fill-rule="nonzero" transform="matrix(1 0 0 1 128.68503937007873 82.90016963779526)" d="M 0 0m 1 0 c -0.55178404 0 -1 0.448216 -1 1 c 0 0.55178404 0.448216 1 1 1 c 0.55178404 0 1 -0.44821596 1 -1 c 0 -0.55178404 -0.44821596 -1 -1 -1 Z "/>
                <path class="typst-shape" fill="#aaaaaa" fill-rule="nonzero" transform="matrix(1 0 0 1 128.68503937007873 68.72694129133858)" d="M 0 0m 1 0 c -0.55178404 0 -1 0.448216 -1 1 c 0 0.55178404 0.448216 1 1 1 c 0.55178404 0 1 -0.44821596 1 -1 c 0 -0.55178404 -0.44821596 -1 -1 -1 Z "/>
                <path class="typst-shape" fill="#aaaaaa" fill-rule="nonzero" transform="matrix(1 0 0 1 128.68503937007873 54.55371294488187)" d="M 0 0m 1 0 c -0.55178404 0 -1 0.448216 -1 1 c 0 0.55178404 0.448216 1 1 1 c 0.55178404 0 1 -0.44821596 1 -1 c 0 -0.55178404 -0.44821596 -1 -1 -1 Z "/>
                <path class="typst-shape" fill="#aaaaaa" fill-rule="nonzero" transform="matrix(1 0 0 1 128.68503937007873 40.38048459842518)" d="M 0 0m 1 0 c -0.55178404 0 -1 0.448216 -1 1 c 0 0.55178404 0.448216 1 1 1 c 0.55178404 0 1 -0.44821596 1 -1 c 0 -0.55178404 -0.44821596 -1 -1 -1 Z "/>
                <path class="typst-shape" fill="#aaaaaa" fill-rule="nonzero" transform="matrix(1 0 0 1 128.68503937007873 26.207256251968484)" d="M 0 0m 1 0 c -0.55178404 0 -1 0.448216 -1 1 c 0 0.55178404 0.448216 1 1 1 c 0.55178404 0 1 -0.44821596 1 -1 c 0 -0.55178404 -0.44821596 -1 -1 -1 Z "/>
                <path class="typst-shape" fill="#aaaaaa" fill-rule="nonzero" transform="matrix(1 0 0 1 128.68503937007873 12.034027905511794)" d="M 0 0m 1 0 c -0.55178404 0 -1 0.448216 -1 1 c 0 0.55178404 0.448216 1 1 1 c 0.55178404 0 1 -0.44821596 1 -1 c 0 -0.55178404 -0.44821596 -1 -1 -1 Z "/>
                <path class="typst-shape" fill="#aaaaaa" fill-rule="nonzero" transform="matrix(1 0 0 1 142.85826771653544 153.76631137007874)" d="M 0 0m 1 0 c -0.55178404 0 -1 0.448216 -1 1 c 0 0.55178404 0.448216 1 1 1 c 0.55178404 0 1 -0.44821596 1 -1 c 0 -0.55178404 -0.44821596 -1 -1 -1 Z "/>
                <path class="typst-shape" fill="#aaaaaa" fill-rule="nonzero" transform="matrix(1 0 0 1 142.85826771653544 139.59308302362203)" d="M 0 0m 1 0 c -0.55178404 0 -1 0.448216 -1 1 c 0 0.55178404 0.448216 1 1 1 c 0.55178404 0 1 -0.44821596 1 -1 c 0 -0.55178404 -0.44821596 -1 -1 -1 Z "/>
                <path class="typst-shape" fill="#aaaaaa" fill-rule="nonzero" transform="matrix(1 0 0 1 142.85826771653544 125.41985467716535)" d="M 0 0m 1 0 c -0.55178404 0 -1 0.448216 -1 1 c 0 0.55178404 0.448216 1 1 1 c 0.55178404 0 1 -0.44821596 1 -1 c 0 -0.55178404 -0.44821596 -1 -1 -1 Z "/>
                <path class="typst-shape" fill="#aaaaaa" fill-rule="nonzero" transform="matrix(1 0 0 1 142.85826771653544 111.24662633070865)" d="M 0 0m 1 0 c -0.55178404 0 -1 0.448216 -1 1 c 0 0.55178404 0.448216 1 1 1 c 0.55178404 0 1 -0.44821596 1 -1 c 0 -0.55178404 -0.44821596 -1 -1 -1 Z "/>
                <path class="typst-shape" fill="#aaaaaa" fill-rule="nonzero" transform="matrix(1 0 0 1 142.85826771653544 97.07339798425195)" d="M 0 0m 1 0 c -0.55178404 0 -1 0.448216 -1 1 c 0 0.55178404 0.448216 1 1 1 c 0.55178404 0 1 -0.44821596 1 -1 c 0 -0.55178404 -0.44821596 -1 -1 -1 Z "/>
                <path class="typst-shape" fill="#aaaaaa" fill-rule="nonzero" transform="matrix(1 0 0 1 142.85826771653544 82.90016963779526)" d="M 0 0m 1 0 c -0.55178404 0 -1 0.448216 -1 1 c 0 0.55178404 0.448216 1 1 1 c 0.55178404 0 1 -0.44821596 1 -1 c 0 -0.55178404 -0.44821596 -1 -1 -1 Z "/>
                <path class="typst-shape" fill="#aaaaaa" fill-rule="nonzero" transform="matrix(1 0 0 1 142.85826771653544 68.72694129133858)" d="M 0 0m 1 0 c -0.55178404 0 -1 0.448216 -1 1 c 0 0.55178404 0.448216 1 1 1 c 0.55178404 0 1 -0.44821596 1 -1 c 0 -0.55178404 -0.44821596 -1 -1 -1 Z "/>
                <path class="typst-shape" fill="#aaaaaa" fill-rule="nonzero" transform="matrix(1 0 0 1 142.85826771653544 54.55371294488187)" d="M 0 0m 1 0 c -0.55178404 0 -1 0.448216 -1 1 c 0 0.55178404 0.448216 1 1 1 c 0.55178404 0 1 -0.44821596 1 -1 c 0 -0.55178404 -0.44821596 -1 -1 -1 Z "/>
                <path class="typst-shape" fill="#aaaaaa" fill-rule="nonzero" transform="matrix(1 0 0 1 142.85826771653544 40.38048459842518)" d="M 0 0m 1 0 c -0.55178404 0 -1 0.448216 -1 1 c 0 0.55178404 0.448216 1 1 1 c 0.55178404 0 1 -0.44821596 1 -1 c 0 -0.55178404 -0.44821596 -1 -1 -1 Z "/>
                <path class="typst-shape" fill="#aaaaaa" fill-rule="nonzero" transform="matrix(1 0 0 1 142.85826771653544 26.207256251968484)" d="M 0 0m 1 0 c -0.55178404 0 -1 0.448216 -1 1 c 0 0.55178404 0.448216 1 1 1 c 0.55178404 0 1 -0.44821596 1 -1 c 0 -0.55178404 -0.44821596 -1 -1 -1 Z "/>
                <path class="typst-shape" fill="#aaaaaa" fill-rule="nonzero" transform="matrix(1 0 0 1 142.85826771653544 12.034027905511794)" d="M 0 0m 1 0 c -0.55178404 0 -1 0.448216 -1 1 c 0 0.55178404 0.448216 1 1 1 c 0.55178404 0 1 -0.44821596 1 -1 c 0 -0.55178404 -0.44821596 -1 -1 -1 Z "/>
                <path class="typst-shape" fill="#aaaaaa" fill-rule="nonzero" transform="matrix(1 0 0 1 157.03149606299212 153.76631137007874)" d="M 0 0m 1 0 c -0.55178404 0 -1 0.448216 -1 1 c 0 0.55178404 0.448216 1 1 1 c 0.55178404 0 1 -0.44821596 1 -1 c 0 -0.55178404 -0.44821596 -1 -1 -1 Z "/>
                <path class="typst-shape" fill="#aaaaaa" fill-rule="nonzero" transform="matrix(1 0 0 1 157.03149606299212 139.59308302362203)" d="M 0 0m 1 0 c -0.55178404 0 -1 0.448216 -1 1 c 0 0.55178404 0.448216 1 1 1 c 0.55178404 0 1 -0.44821596 1 -1 c 0 -0.55178404 -0.44821596 -1 -1 -1 Z "/>
                <path class="typst-shape" fill="#aaaaaa" fill-rule="nonzero" transform="matrix(1 0 0 1 157.03149606299212 125.41985467716535)" d="M 0 0m 1 0 c -0.55178404 0 -1 0.448216 -1 1 c 0 0.55178404 0.448216 1 1 1 c 0.55178404 0 1 -0.44821596 1 -1 c 0 -0.55178404 -0.44821596 -1 -1 -1 Z "/>
                <path class="typst-shape" fill="#aaaaaa" fill-rule="nonzero" transform="matrix(1 0 0 1 157.03149606299212 111.24662633070865)" d="M 0 0m 1 0 c -0.55178404 0 -1 0.448216 -1 1 c 0 0.55178404 0.448216 1 1 1 c 0.55178404 0 1 -0.44821596 1 -1 c 0 -0.55178404 -0.44821596 -1 -1 -1 Z "/>
                <path class="typst-shape" fill="#aaaaaa" fill-rule="nonzero" transform="matrix(1 0 0 1 157.03149606299212 97.07339798425195)" d="M 0 0m 1 0 c -0.55178404 0 -1 0.448216 -1 1 c 0 0.55178404 0.448216 1 1 1 c 0.55178404 0 1 -0.44821596 1 -1 c 0 -0.55178404 -0.44821596 -1 -1 -1 Z "/>
                <path class="typst-shape" fill="#aaaaaa" fill-rule="nonzero" transform="matrix(1 0 0 1 157.03149606299212 82.90016963779526)" d="M 0 0m 1 0 c -0.55178404 0 -1 0.448216 -1 1 c 0 0.55178404 0.448216 1 1 1 c 0.55178404 0 1 -0.44821596 1 -1 c 0 -0.55178404 -0.44821596 -1 -1 -1 Z "/>
                <path class="typst-shape" fill="#aaaaaa" fill-rule="nonzero" transform="matrix(1 0 0 1 157.03149606299212 68.72694129133858)" d="M 0 0m 1 0 c -0.55178404 0 -1 0.448216 -1 1 c 0 0.55178404 0.448216 1 1 1 c 0.55178404 0 1 -0.44821596 1 -1 c 0 -0.55178404 -0.44821596 -1 -1 -1 Z "/>
                <path class="typst-shape" fill="#aaaaaa" fill-rule="nonzero" transform="matrix(1 0 0 1 157.03149606299212 54.55371294488187)" d="M 0 0m 1 0 c -0.55178404 0 -1 0.448216 -1 1 c 0 0.55178404 0.448216 1 1 1 c 0.55178404 0 1 -0.44821596 1 -1 c 0 -0.55178404 -0.44821596 -1 -1 -1 Z "/>
                <path class="typst-shape" fill="#aaaaaa" fill-rule="nonzero" transform="matrix(1 0 0 1 157.03149606299212 40.38048459842518)" d="M 0 0m 1 0 c -0.55178404 0 -1 0.448216 -1 1 c 0 0.55178404 0.448216 1 1 1 c 0.55178404 0 1 -0.44821596 1 -1 c 0 -0.55178404 -0.44821596 -1 -1 -1 Z "/>
                <path class="typst-shape" fill="#aaaaaa" fill-rule="nonzero" transform="matrix(1 0 0 1 157.03149606299212 26.207256251968484)" d="M 0 0m 1 0 c -0.55178404 0 -1 0.448216 -1 1 c 0 0.55178404 0.448216 1 1 1 c 0.55178404 0 1 -0.44821596 1 -1 c 0 -0.55178404 -0.44821596 -1 -1 -1 Z "/>
                <path class="typst-shape" fill="#aaaaaa" fill-rule="nonzero" transform="matrix(1 0 0 1 157.03149606299212 12.034027905511794)" d="M 0 0m 1 0 c -0.55178404 0 -1 0.448216 -1 1 c 0 0.55178404 0.448216 1 1 1 c 0.55178404 0 1 -0.44821596 1 -1 c 0 -0.55178404 -0.44821596 -1 -1 -1 Z "/>
                <path class="typst-shape" fill="#aaaaaa" fill-rule="nonzero" transform="matrix(1 0 0 1 171.20472440944883 153.76631137007874)" d="M 0 0m 1 0 c -0.55178404 0 -1 0.448216 -1 1 c 0 0.55178404 0.448216 1 1 1 c 0.55178404 0 1 -0.44821596 1 -1 c 0 -0.55178404 -0.44821596 -1 -1 -1 Z "/>
                <path class="typst-shape" fill="#aaaaaa" fill-rule="nonzero" transform="matrix(1 0 0 1 171.20472440944883 139.59308302362203)" d="M 0 0m 1 0 c -0.55178404 0 -1 0.448216 -1 1 c 0 0.55178404 0.448216 1 1 1 c 0.55178404 0 1 -0.44821596 1 -1 c 0 -0.55178404 -0.44821596 -1 -1 -1 Z "/>
                <path class="typst-shape" fill="#aaaaaa" fill-rule="nonzero" transform="matrix(1 0 0 1 171.20472440944883 125.41985467716535)" d="M 0 0m 1 0 c -0.55178404 0 -1 0.448216 -1 1 c 0 0.55178404 0.448216 1 1 1 c 0.55178404 0 1 -0.44821596 1 -1 c 0 -0.55178404 -0.44821596 -1 -1 -1 Z "/>
                <path class="typst-shape" fill="#aaaaaa" fill-rule="nonzero" transform="matrix(1 0 0 1 171.20472440944883 111.24662633070865)" d="M 0 0m 1 0 c -0.55178404 0 -1 0.448216 -1 1 c 0 0.55178404 0.448216 1 1 1 c 0.55178404 0 1 -0.44821596 1 -1 c 0 -0.55178404 -0.44821596 -1 -1 -1 Z "/>
                <path class="typst-shape" fill="#aaaaaa" fill-rule="nonzero" transform="matrix(1 0 0 1 171.20472440944883 97.07339798425195)" d="M 0 0m 1 0 c -0.55178404 0 -1 0.448216 -1 1 c 0 0.55178404 0.448216 1 1 1 c 0.55178404 0 1 -0.44821596 1 -1 c 0 -0.55178404 -0.44821596 -1 -1 -1 Z "/>
                <path class="typst-shape" fill="#aaaaaa" fill-rule="nonzero" transform="matrix(1 0 0 1 171.20472440944883 82.90016963779526)" d="M 0 0m 1 0 c -0.55178404 0 -1 0.448216 -1 1 c 0 0.55178404 0.448216 1 1 1 c 0.55178404 0 1 -0.44821596 1 -1 c 0 -0.55178404 -0.44821596 -1 -1 -1 Z "/>
                <path class="typst-shape" fill="#aaaaaa" fill-rule="nonzero" transform="matrix(1 0 0 1 171.20472440944883 68.72694129133858)" d="M 0 0m 1 0 c -0.55178404 0 -1 0.448216 -1 1 c 0 0.55178404 0.448216 1 1 1 c 0.55178404 0 1 -0.44821596 1 -1 c 0 -0.55178404 -0.44821596 -1 -1 -1 Z "/>
                <path class="typst-shape" fill="#aaaaaa" fill-rule="nonzero" transform="matrix(1 0 0 1 171.20472440944883 54.55371294488187)" d="M 0 0m 1 0 c -0.55178404 0 -1 0.448216 -1 1 c 0 0.55178404 0.448216 1 1 1 c 0.55178404 0 1 -0.44821596 1 -1 c 0 -0.55178404 -0.44821596 -1 -1 -1 Z "/>
                <path class="typst-shape" fill="#aaaaaa" fill-rule="nonzero" transform="matrix(1 0 0 1 171.20472440944883 40.38048459842518)" d="M 0 0m 1 0 c -0.55178404 0 -1 0.448216 -1 1 c 0 0.55178404 0.448216 1 1 1 c 0.55178404 0 1 -0.44821596 1 -1 c 0 -0.55178404 -0.44821596 -1 -1 -1 Z "/>
                <path class="typst-shape" fill="#aaaaaa" fill-rule="nonzero" transform="matrix(1 0 0 1 171.20472440944883 26.207256251968484)" d="M 0 0m 1 0 c -0.55178404 0 -1 0.448216 -1 1 c 0 0.55178404 0.448216 1 1 1 c 0.55178404 0 1 -0.44821596 1 -1 c 0 -0.55178404 -0.44821596 -1 -1 -1 Z "/>
                <path class="typst-shape" fill="#aaaaaa" fill-rule="nonzero" transform="matrix(1 0 0 1 171.20472440944883 12.034027905511794)" d="M 0 0m 1 0 c -0.55178404 0 -1 0.448216 -1 1 c 0 0.55178404 0.448216 1 1 1 c 0.55178404 0 1 -0.44821596 1 -1 c 0 -0.55178404 -0.44821596 -1 -1 -1 Z "/>
                <path class="typst-shape" fill="#aaaaaa" fill-rule="nonzero" transform="matrix(1 0 0 1 185.3779527559055 153.76631137007874)" d="M 0 0m 1 0 c -0.55178404 0 -1 0.448216 -1 1 c 0 0.55178404 0.448216 1 1 1 c 0.55178404 0 1 -0.44821596 1 -1 c 0 -0.55178404 -0.44821596 -1 -1 -1 Z "/>
                <path class="typst-shape" fill="#aaaaaa" fill-rule="nonzero" transform="matrix(1 0 0 1 185.3779527559055 139.59308302362203)" d="M 0 0m 1 0 c -0.55178404 0 -1 0.448216 -1 1 c 0 0.55178404 0.448216 1 1 1 c 0.55178404 0 1 -0.44821596 1 -1 c 0 -0.55178404 -0.44821596 -1 -1 -1 Z "/>
                <path class="typst-shape" fill="#aaaaaa" fill-rule="nonzero" transform="matrix(1 0 0 1 185.3779527559055 125.41985467716535)" d="M 0 0m 1 0 c -0.55178404 0 -1 0.448216 -1 1 c 0 0.55178404 0.448216 1 1 1 c 0.55178404 0 1 -0.44821596 1 -1 c 0 -0.55178404 -0.44821596 -1 -1 -1 Z "/>
                <path class="typst-shape" fill="#aaaaaa" fill-rule="nonzero" transform="matrix(1 0 0 1 185.3779527559055 111.24662633070865)" d="M 0 0m 1 0 c -0.55178404 0 -1 0.448216 -1 1 c 0 0.55178404 0.448216 1 1 1 c 0.55178404 0 1 -0.44821596 1 -1 c 0 -0.55178404 -0.44821596 -1 -1 -1 Z "/>
                <path class="typst-shape" fill="#aaaaaa" fill-rule="nonzero" transform="matrix(1 0 0 1 185.3779527559055 97.07339798425195)" d="M 0 0m 1 0 c -0.55178404 0 -1 0.448216 -1 1 c 0 0.55178404 0.448216 1 1 1 c 0.55178404 0 1 -0.44821596 1 -1 c 0 -0.55178404 -0.44821596 -1 -1 -1 Z "/>
                <path class="typst-shape" fill="#aaaaaa" fill-rule="nonzero" transform="matrix(1 0 0 1 185.3779527559055 82.90016963779526)" d="M 0 0m 1 0 c -0.55178404 0 -1 0.448216 -1 1 c 0 0.55178404 0.448216 1 1 1 c 0.55178404 0 1 -0.44821596 1 -1 c 0 -0.55178404 -0.44821596 -1 -1 -1 Z "/>
                <path class="typst-shape" fill="#aaaaaa" fill-rule="nonzero" transform="matrix(1 0 0 1 185.3779527559055 68.72694129133858)" d="M 0 0m 1 0 c -0.55178404 0 -1 0.448216 -1 1 c 0 0.55178404 0.448216 1 1 1 c 0.55178404 0 1 -0.44821596 1 -1 c 0 -0.55178404 -0.44821596 -1 -1 -1 Z "/>
                <path class="typst-shape" fill="#aaaaaa" fill-rule="nonzero" transform="matrix(1 0 0 1 185.3779527559055 54.55371294488187)" d="M 0 0m 1 0 c -0.55178404 0 -1 0.448216 -1 1 c 0 0.55178404 0.448216 1 1 1 c 0.55178404 0 1 -0.44821596 1 -1 c 0 -0.55178404 -0.44821596 -1 -1 -1 Z "/>
                <path class="typst-shape" fill="#aaaaaa" fill-rule="nonzero" transform="matrix(1 0 0 1 185.3779527559055 40.38048459842518)" d="M 0 0m 1 0 c -0.55178404 0 -1 0.448216 -1 1 c 0 0.55178404 0.448216 1 1 1 c 0.55178404 0 1 -0.44821596 1 -1 c 0 -0.55178404 -0.44821596 -1 -1 -1 Z "/>
                <path class="typst-shape" fill="#aaaaaa" fill-rule="nonzero" transform="matrix(1 0 0 1 185.3779527559055 26.207256251968484)" d="M 0 0m 1 0 c -0.55178404 0 -1 0.448216 -1 1 c 0 0.55178404 0.448216 1 1 1 c 0.55178404 0 1 -0.44821596 1 -1 c 0 -0.55178404 -0.44821596 -1 -1 -1 Z "/>
                <path class="typst-shape" fill="#aaaaaa" fill-rule="nonzero" transform="matrix(1 0 0 1 185.3779527559055 12.034027905511794)" d="M 0 0m 1 0 c -0.55178404 0 -1 0.448216 -1 1 c 0 0.55178404 0.448216 1 1 1 c 0.55178404 0 1 -0.44821596 1 -1 c 0 -0.55178404 -0.44821596 -1 -1 -1 Z "/>
                <path class="typst-shape" fill="#ff4136" fill-rule="nonzero" stroke="#ff4136" stroke-width="1.2" stroke-linecap="butt" stroke-linejoin="miter" stroke-miterlimit="4" transform="matrix(1 0 0 1 44.645669291338585 59.13017449668219)" d="M 0 0m 0 81.462906 l 108.61721 -81.462906 "/>
                <path class="typst-shape" fill="#ff4136" fill-rule="nonzero" stroke="#ff4136" stroke-width="1.2" stroke-linecap="butt" stroke-linejoin="miter" stroke-miterlimit="4" transform="matrix(1 0 0 1 150.85343182677164 56.57899337007873)" d="M 0 0m 5.8110237 0 l -5.8110237 1.7007874 l 2.4094489 0.85039365 l 0.14173222 2.551181 l 3.2598426 -5.102362 Z "/>
                <path class="typst-shape" fill="none" transform="matrix(1 0 0 1 93.61058267716537 90.43939798425197)" d="M 0 0h 15.456 v 7.634 h -15.456 v -7.634 Z "/>
                <g class="typst-group">
                    <g>
                        <g class="typst-group" transform="matrix(1 0 0 1 93.61058265354332 90.43939792125984)">
                            <g>
                                <g class="typst-text" transform="matrix(1 0 0 -1 6.138 7.513000000000001)">
                                    <use xlink:href="#gF05301C3D4D8F4F9C066BF7FDA57A4BB" x="0" y="0" fill="#ff4136" fill-rule="nonzero"/>
                                </g>
                                <g class="typst-text" transform="matrix(1 0 0 -1 0 7.513000000000001)">
                                    <use xlink:href="#g9B953E1108A8A51649983D0E78839CB9" x="0" y="0" fill="#ff4136" fill-rule="nonzero"/>
                                </g>
                            </g>
                        </g>
                    </g>
                </g>
                <path class="typst-shape" fill="#ff4136" fill-rule="nonzero" stroke="#ff4136" stroke-width="1.2" stroke-linecap="butt" stroke-linejoin="miter" stroke-miterlimit="4" transform="matrix(1 0 0 1 16.299212598425196 30.7837178037688)" d="M 0 0m 0 81.462906 l 108.61721 -81.462906 "/>
                <path class="typst-shape" fill="#ff4136" fill-rule="nonzero" stroke="#ff4136" stroke-width="1.2" stroke-linecap="butt" stroke-linejoin="miter" stroke-miterlimit="4" transform="matrix(1 0 0 1 122.50697513385826 28.232536677165353)" d="M 0 0m 5.8110237 0 l -5.8110237 1.7007874 l 2.4094489 0.85039365 l 0.14173222 2.551181 l 3.2598426 -5.102362 Z "/>
                <path class="typst-shape" fill="none" transform="matrix(1 0 0 1 65.26412598425198 62.092941291338576)" d="M 0 0h 15.456 v 7.634 h -15.456 v -7.634 Z "/>
                <g class="typst-group">
                    <g>
                        <g class="typst-group" transform="matrix(1 0 0 1 65.26412596062993 62.09294122834645)">
                            <g>
                                <g class="typst-text" transform="matrix(1 0 0 -1 6.138 7.513000000000001)">
                                    <use xlink:href="#gF05301C3D4D8F4F9C066BF7FDA57A4BB" x="0" y="0" fill="#ff4136" fill-rule="nonzero"/>
                                </g>
                                <g class="typst-text" transform="matrix(1 0 0 -1 0 7.513000000000001)">
                                    <use xlink:href="#g9B953E1108A8A51649983D0E78839CB9" x="0" y="0" fill="#ff4136" fill-rule="nonzero"/>
                                </g>
                            </g>
                        </g>
                    </g>
                </g>
                <path class="typst-shape" fill="#000000" fill-rule="nonzero" stroke="#000000" stroke-width="1.2" stroke-linecap="butt" stroke-linejoin="miter" stroke-miterlimit="4" transform="matrix(1 0 0 1 44.645669291338585 140.59308302362203)" d="M 0 0h 8.21246 "/>
                <path class="typst-shape" fill="#000000" fill-rule="nonzero" stroke="#000000" stroke-width="1.2" stroke-linecap="butt" stroke-linejoin="miter" stroke-miterlimit="4" transform="matrix(1 0 0 1 51.44080549606299 138.46709877165353)" d="M 0 0m 5.6692915 2.1259842 l -5.6692915 -2.1259842 l 1.4173229 2.1259842 l -1.4173229 2.1259842 l 5.6692915 -2.1259842 Z "/>
                <path class="typst-shape" fill="#000000" fill-rule="nonzero" stroke="#000000" stroke-width="1.2" stroke-linecap="butt" stroke-linejoin="miter" stroke-miterlimit="4" transform="matrix(1 0 0 1 58.81889763779528 140.59308302362203)" d="M 0 0h 8.21246 "/>
                <path class="typst-shape" fill="#000000" fill-rule="nonzero" stroke="#000000" stroke-width="1.2" stroke-linecap="butt" stroke-linejoin="miter" stroke-miterlimit="4" transform="matrix(1 0 0 1 65.61403384251967 138.46709877165353)" d="M 0 0m 5.6692915 2.1259842 l -5.6692915 -2.1259842 l 1.4173229 2.1259842 l -1.4173229 2.1259842 l 5.6692915 -2.1259842 Z "/>
                <path class="typst-shape" fill="#000000" fill-rule="nonzero" stroke="#000000" stroke-width="1.2" stroke-linecap="butt" stroke-linejoin="miter" stroke-miterlimit="4" transform="matrix(1 0 0 1 72.99212598425197 140.59308302362203)" d="M 0 0h 8.21246 "/>
                <path class="typst-shape" fill="#000000" fill-rule="nonzero" stroke="#000000" stroke-width="1.2" stroke-linecap="butt" stroke-linejoin="miter" stroke-miterlimit="4" transform="matrix(1 0 0 1 79.78726218897637 138.46709877165353)" d="M 0 0m 5.6692915 2.1259842 l -5.6692915 -2.1259842 l 1.4173229 2.1259842 l -1.4173229 2.1259842 l 5.6692915 -2.1259842 Z "/>
                <path class="typst-shape" fill="#000000" fill-rule="nonzero" stroke="#000000" stroke-width="1.2" stroke-linecap="butt" stroke-linejoin="miter" stroke-miterlimit="4" transform="matrix(1 0 0 1 87.16535433070867 140.59308302362203)" d="M 0 0h 8.21246 "/>
                <path class="typst-shape" fill="#000000" fill-rule="nonzero" stroke="#000000" stroke-width="1.2" stroke-linecap="butt" stroke-linejoin="miter" stroke-miterlimit="4" transform="matrix(1 0 0 1 93.96049053543307 138.46709877165353)" d="M 0 0m 5.6692915 2.1259842 l -5.6692915 -2.1259842 l 1.4173229 2.1259842 l -1.4173229 2.1259842 l 5.6692915 -2.1259842 Z "/>
                <path class="typst-shape" fill="#000000" fill-rule="nonzero" stroke="#000000" stroke-width="1.2" stroke-linecap="butt" stroke-linejoin="miter" stroke-miterlimit="4" transform="matrix(1 0 0 1 101.33858267716535 140.59308302362203)" d="M 0 0h 8.21246 "/>
                <path class="typst-shape" fill="#000000" fill-rule="nonzero" stroke="#000000" stroke-width="1.2" stroke-linecap="butt" stroke-linejoin="miter" stroke-miterlimit="4" transform="matrix(1 0 0 1 108.13371888188975 138.46709877165353)" d="M 0 0m 5.6692915 2.1259842 l -5.6692915 -2.1259842 l 1.4173229 2.1259842 l -1.4173229 2.1259842 l 5.6692915 -2.1259842 Z "/>
                <path class="typst-shape" fill="#000000" fill-rule="nonzero" stroke="#000000" stroke-width="1.2" stroke-linecap="butt" stroke-linejoin="miter" stroke-miterlimit="4" transform="matrix(1 0 0 1 115.51181102362204 140.59308302362203)" d="M 0 0h 8.21246 "/>
                <path class="typst-shape" fill="#000000" fill-rule="nonzero" stroke="#000000" stroke-width="1.2" stroke-linecap="butt" stroke-linejoin="miter" stroke-miterlimit="4" transform="matrix(1 0 0 1 122.30694722834646 138.46709877165353)" d="M 0 0m 5.6692915 2.1259842 l -5.6692915 -2.1259842 l 1.4173229 2.1259842 l -1.4173229 2.1259842 l 5.6692915 -2.1259842 Z "/>
                <path class="typst-shape" fill="#000000" fill-rule="nonzero" stroke="#000000" stroke-width="1.2" stroke-linecap="butt" stroke-linejoin="miter" stroke-miterlimit="4" transform="matrix(1 0 0 1 129.68503937007873 140.59308302362203)" d="M 0 0h 8.21246 "/>
                <path class="typst-shape" fill="#000000" fill-rule="nonzero" stroke="#000000" stroke-width="1.2" stroke-linecap="butt" stroke-linejoin="miter" stroke-miterlimit="4" transform="matrix(1 0 0 1 136.48017557480318 138.46709877165353)" d="M 0 0m 5.6692915 2.1259842 l -5.6692915 -2.1259842 l 1.4173229 2.1259842 l -1.4173229 2.1259842 l 5.6692915 -2.1259842 Z "/>
                <path class="typst-shape" fill="#000000" fill-rule="nonzero" stroke="#000000" stroke-width="1.2" stroke-linecap="butt" stroke-linejoin="miter" stroke-miterlimit="4" transform="matrix(1 0 0 1 143.85826771653544 140.59308302362203)" d="M 0 0h 8.21246 "/>
                <path class="typst-shape" fill="#000000" fill-rule="nonzero" stroke="#000000" stroke-width="1.2" stroke-linecap="butt" stroke-linejoin="miter" stroke-miterlimit="4" transform="matrix(1 0 0 1 150.65340392125987 138.46709877165353)" d="M 0 0m 5.6692915 2.1259842 l -5.6692915 -2.1259842 l 1.4173229 2.1259842 l -1.4173229 2.1259842 l 5.6692915 -2.1259842 Z "/>
                <path class="typst-shape" fill="none" transform="matrix(1 0 0 1 49.834783464566925 140.59308302362203)" d="M 0 0h 3.795 v 14.634 h -3.795 v -14.634 Z "/>
                <g class="typst-group">
                    <g>
                        <g class="typst-group" transform="matrix(1 0 0 1 49.83478341732283 140.59308302362203)">
                            <g>
                                <g class="typst-text" transform="matrix(1 0 0 -1 -0.033000000000000244 12.192)">
                                    <use xlink:href="#g43871E26617ABD82726D0D84700F7439" x="0" y="0" fill="#000000" fill-rule="nonzero"/>
                                </g>
                                <g class="typst-text" transform="matrix(1 0 0 -1 0 14.513)">
                                    <use xlink:href="#g22F958B6F79FC769F05DA22F53E94F3B" x="0" y="0" fill="#000000" fill-rule="nonzero"/>
                                </g>
                            </g>
                        </g>
                    </g>
                </g>
                <path class="typst-shape" fill="#000000" fill-rule="nonzero" stroke="#000000" stroke-width="1.2" stroke-linecap="butt" stroke-linejoin="miter" stroke-miterlimit="4" transform="matrix(1 0 0 1 158.03149606299212 132.38062393016588)" d="M 0 0m 0 8.21246 v -8.21246 "/>
                <path class="typst-shape" fill="#000000" fill-rule="nonzero" stroke="#000000" stroke-width="1.2" stroke-linecap="butt" stroke-linejoin="miter" stroke-miterlimit="4" transform="matrix(1 0 0 1 155.90551181102362 128.12865548031493)" d="M 0 0m 2.1259842 0 l -2.1259842 5.6692915 l 2.1259842 -1.4173231 l 2.1259842 1.4173231 l -2.1259842 -5.6692915 Z "/>
                <path class="typst-shape" fill="#000000" fill-rule="nonzero" stroke="#000000" stroke-width="1.2" stroke-linecap="butt" stroke-linejoin="miter" stroke-miterlimit="4" transform="matrix(1 0 0 1 158.03149606299212 118.20739558370917)" d="M 0 0m 0 8.21246 v -8.21246 "/>
                <path class="typst-shape" fill="#000000" fill-rule="nonzero" stroke="#000000" stroke-width="1.2" stroke-linecap="butt" stroke-linejoin="miter" stroke-miterlimit="4" transform="matrix(1 0 0 1 155.90551181102362 113.95542713385825)" d="M 0 0m 2.1259842 0 l -2.1259842 5.6692915 l 2.1259842 -1.4173231 l 2.1259842 1.4173231 l -2.1259842 -5.6692915 Z "/>
                <path class="typst-shape" fill="#000000" fill-rule="nonzero" stroke="#000000" stroke-width="1.2" stroke-linecap="butt" stroke-linejoin="miter" stroke-miterlimit="4" transform="matrix(1 0 0 1 158.03149606299212 104.03416723725248)" d="M 0 0m 0 8.21246 v -8.21246 "/>
                <path class="typst-shape" fill="#000000" fill-rule="nonzero" stroke="#000000" stroke-width="1.2" stroke-linecap="butt" stroke-linejoin="miter" stroke-miterlimit="4" transform="matrix(1 0 0 1 155.90551181102362 99.78219878740157)" d="M 0 0m 2.1259842 0 l -2.1259842 5.6692915 l 2.1259842 -1.4173231 l 2.1259842 1.4173231 l -2.1259842 -5.6692915 Z "/>
                <path class="typst-shape" fill="#000000" fill-rule="nonzero" stroke="#000000" stroke-width="1.2" stroke-linecap="butt" stroke-linejoin="miter" stroke-miterlimit="4" transform="matrix(1 0 0 1 158.03149606299212 89.86093889079578)" d="M 0 0m 0 8.21246 v -8.21246 "/>
                <path class="typst-shape" fill="#000000" fill-rule="nonzero" stroke="#000000" stroke-width="1.2" stroke-linecap="butt" stroke-linejoin="miter" stroke-miterlimit="4" transform="matrix(1 0 0 1 155.90551181102362 85.60897044094487)" d="M 0 0m 2.1259842 0 l -2.1259842 5.6692915 l 2.1259842 -1.4173231 l 2.1259842 1.4173231 l -2.1259842 -5.6692915 Z "/>
                <path class="typst-shape" fill="#000000" fill-rule="nonzero" stroke="#000000" stroke-width="1.2" stroke-linecap="butt" stroke-linejoin="miter" stroke-miterlimit="4" transform="matrix(1 0 0 1 158.03149606299212 75.68771054433908)" d="M 0 0m 0 8.21246 v -8.21246 "/>
                <path class="typst-shape" fill="#000000" fill-rule="nonzero" stroke="#000000" stroke-width="1.2" stroke-linecap="butt" stroke-linejoin="miter" stroke-miterlimit="4" transform="matrix(1 0 0 1 155.90551181102362 71.43574209448819)" d="M 0 0m 2.1259842 0 l -2.1259842 5.6692915 l 2.1259842 -1.4173231 l 2.1259842 1.4173231 l -2.1259842 -5.6692915 Z "/>
                <path class="typst-shape" fill="#000000" fill-rule="nonzero" stroke="#000000" stroke-width="1.2" stroke-linecap="butt" stroke-linejoin="miter" stroke-miterlimit="4" transform="matrix(1 0 0 1 158.03149606299212 61.514482197882394)" d="M 0 0m 0 8.21246 v -8.21246 "/>
                <path class="typst-shape" fill="#000000" fill-rule="nonzero" stroke="#000000" stroke-width="1.2" stroke-linecap="butt" stroke-linejoin="miter" stroke-miterlimit="4" transform="matrix(1 0 0 1 155.90551181102362 57.26251374803149)" d="M 0 0m 2.1259842 0 l -2.1259842 5.6692915 l 2.1259842 -1.4173231 l 2.1259842 1.4173231 l -2.1259842 -5.6692915 Z "/>
                <path class="typst-shape" fill="none" transform="matrix(1 0 0 1 158.03149606299212 130.03979168503935)" d="M 0 0h 9.675 v 9.768 h -9.675 v -9.768 Z "/>
                <g class="typst-group">
                    <g>
                        <g class="typst-group" transform="matrix(1 0 0 1 158.03149606299215 130.0397916614173)">
                            <g>
                                <g class="typst-text" transform="matrix(1 0 0 -1 6.198999999999999 5.192000000000001)">
                                    <use xlink:href="#g43871E26617ABD82726D0D84700F7439" x="0" y="0" fill="#000000" fill-rule="nonzero"/>
                                </g>
                                <g class="typst-text" transform="matrix(1 0 0 -1 5 7.513000000000001)">
                                    <use xlink:href="#g979B557C20F39BC1E545DB527BEC53B1" x="0" y="0" fill="#000000" fill-rule="nonzero"/>
                                </g>
                            </g>
                        </g>
                    </g>
                </g>
            </g>
        </g>
    </g>
    <defs id="glyph">
        <symbol id="gF05301C3D4D8F4F9C066BF7FDA57A4BB" overflow="visible">
            <path d="M 0 0m -0.759 6.5889997 c 0.09900004 0.032999992 0.143 0.0880003 0.143 0.18700027 c 0 0.09899998 -0.04399997 0.1539998 -0.143 0.1869998 c -0.39599997 0.13199997 -0.682 0.37400007 -0.858 0.737 c -0.032999992 0.07700014 -0.09899998 0.12100029 -0.176 0.12100029 c -0.143 0 -0.20900011 -0.065999985 -0.20900011 -0.19799995 c 0 -0.16499996 0.14300013 -0.38500023 0.42900014 -0.64900017 h -3.4099998 c -0.14300013 0 -0.20900011 -0.065999985 -0.20900011 -0.19799995 c 0 -0.13199997 0.065999985 -0.19799995 0.20900011 -0.19799995 h 3.4099998 c -0.286 -0.26399994 -0.42900014 -0.4840002 -0.42900014 -0.64900017 c 0 -0.13199997 0.066000104 -0.19799995 0.20900011 -0.19799995 c 0.07700002 0 0.143 0.04400015 0.176 0.12099981 c 0.176 0.3630004 0.462 0.605 0.858 0.737 Z "/>
        </symbol>
        <symbol id="g9B953E1108A8A51649983D0E78839CB9" overflow="visible">
            <path d="M 0 0m 4.059 4.301 c 0 -0.0880003 0.09899998 -0.23099995 0.2750001 -0.4510002 c 0.17599964 -0.22000003 0.26399994 -0.4729998 0.26399994 -0.7589998 c 0 -0.319 -0.15400028 -0.85800004 -0.47300005 -1.6170001 c -0.23099995 -0.528 -0.75900006 -1.276 -1.408 -1.276 c -0.50600004 0 -0.75900006 0.297 -0.75900006 0.902 c 0 0.42900002 0.20900011 1.1880001 0.6270001 2.277 c 0.08800006 0.23099995 0.13199997 0.41799998 0.13199997 0.54999995 c 0 0.5499997 -0.37400007 0.93499994 -0.924 0.93499994 c -0.48399997 0 -0.86899996 -0.2750001 -1.144 -0.8249998 c -0.22 -0.4510002 -0.32999998 -0.7370002 -0.32999998 -0.8800001 c 0 -0.09899998 0.055000007 -0.15400004 0.176 -0.15400004 c 0.143 0 0.16499996 0.065999985 0.20899999 0.22000003 c 0.25300002 0.8800001 0.605 1.3199997 1.056 1.3199997 c 0.143 0 0.22000003 -0.09899998 0.22000003 -0.3079996 c 0 -0.17600012 -0.055000067 -0.41800022 -0.176 -0.7370002 c -0.40700006 -1.089 -0.61600006 -1.826 -0.61600006 -2.2329998 c 0 -0.561 0.18700004 -0.946 0.561 -1.155 c 0.29700005 -0.154 0.60500014 -0.231 0.92400014 -0.231 c 0.97899985 0 1.661 1.056 1.9469998 1.903 c 0.35200024 1.034 0.5279999 1.7930001 0.5279999 2.277 c 0 0.53900003 -0.17599964 0.803 -0.5169997 0.803 c -0.2750001 0 -0.572 -0.28599977 -0.572 -0.5609999 Z "/>
        </symbol>
        <symbol id="g43871E26617ABD82726D0D84700F7439" overflow="visible">
            <path d="M 0 0m 4.246 5.665 l 0.18700027 0.19799995 l -1.6830001 1.7709999 l -1.683 -1.7709999 l 0.18699992 -0.19799995 l 1.496 1.1329999 Z "/>
        </symbol>
        <symbol id="g22F958B6F79FC769F05DA22F53E94F3B" overflow="visible">
            <path d="M 0 0m 3.124 6.831 c 0 0.29699993 -0.14300013 0.44000006 -0.44000006 0.44000006 c -0.3080001 0 -0.61599994 -0.3080001 -0.61599994 -0.6160002 c 0 -0.29699993 0.1539998 -0.43999958 0.45099998 -0.43999958 c 0.30799985 0 0.605 0.3079996 0.605 0.6159997 Z m -0.2750001 -5.3129997 c -0.2420001 -0.869 -0.5940001 -1.309 -1.045 -1.309 c -0.143 0 -0.22000003 0.09900001 -0.22000003 0.30800003 c 0 0.18699998 0.319 1.1329999 0.96800005 2.849 c 0.08799982 0.25300002 0.13199997 0.45099998 0.13199997 0.5940001 c 0 0.53900003 -0.37400007 0.93499994 -0.913 0.93499994 c -0.47300005 0 -0.847 -0.2750001 -1.122 -0.83599997 c -0.22 -0.45099998 -0.32999998 -0.74800014 -0.32999998 -0.89100003 c 0 -0.09899998 0.055000007 -0.14299989 0.176 -0.14299989 c 0.143 0 0.16499996 0.065999985 0.20899999 0.21999979 c 0.25300002 0.8800001 0.594 1.3200002 1.034 1.3200002 c 0.143 0 0.21999991 -0.09899998 0.21999991 -0.3080001 c 0 -0.1539998 -0.032999992 -0.32999992 -0.109999895 -0.53900003 c -0.25300002 -0.69299984 -0.5170001 -1.4299998 -0.7370001 -2.013 c -0.16499996 -0.44000006 -0.25299996 -0.73700005 -0.25299996 -0.89100003 c 0 -0.53900003 0.39599997 -0.935 0.92399997 -0.935 c 0.47299993 0 0.847 0.275 1.1220001 0.825 c 0.20899987 0.42900002 0.319 0.72599995 0.319 0.89100003 c 0 0.09899998 -0.055000067 0.15399992 -0.17600012 0.15399992 c -0.032999992 0 -0.19799995 -0.09899998 -0.19799995 -0.23099995 Z "/>
        </symbol>
        <symbol id="g979B557C20F39BC1E545DB527BEC53B1" overflow="visible">
            <path d="M 0 0m 4.367 6.831 c 0 0.29699993 -0.15400028 0.44000006 -0.4510002 0.44000006 c -0.30799985 0 -0.61599994 -0.3080001 -0.61599994 -0.6160002 c 0 -0.29699993 0.14300013 -0.43999958 0.44000006 -0.43999958 c 0.30799985 0 0.6270001 0.3079996 0.6270001 0.6159997 Z m -1.4300001 -1.947 c -0.58299994 0 -1.0780001 -0.44000006 -1.32 -0.8249998 c -0.29700005 -0.47300005 -0.43999994 -0.77 -0.43999994 -0.90199995 c 0 -0.09899998 0.054999948 -0.14300013 0.16499996 -0.14300013 c 0.054999948 0 0.08799994 0.011000156 0.12099993 0.022000074 c 0.055000067 0.08800006 0.08800006 0.16499996 0.12100005 0.22000003 c 0.352 0.86899996 0.79199994 1.2979999 1.32 1.2979999 c 0.19799995 0 0.29699993 -0.1539998 0.29699993 -0.45099974 c 0 -0.1650002 -0.022000074 -0.35200024 -0.0769999 -0.5500002 l -1.0120001 -4.059 c -0.15400004 -0.6380001 -0.594 -1.4189999 -1.287 -1.4189999 c -0.09899998 0 -0.19800001 0.010999918 -0.297 0.04399991 c 0.27499998 0.110000014 0.407 0.3080001 0.407 0.58300006 c 0 0.286 -0.15399998 0.42899996 -0.451 0.42899996 c -0.352 0 -0.627 -0.31899995 -0.627 -0.67099994 c 0 -0.48399997 0.473 -0.7149999 0.99 -0.7149999 c 0.47299993 0 0.913 0.16499996 1.32 0.4949999 c 0.385 0.319 0.62699986 0.72599995 0.7479999 1.199 l 1.0009999 3.9819999 c 0.032999992 0.14299989 0.055000067 0.286 0.055000067 0.41799998 c 0 0.6049998 -0.4289999 1.0449998 -1.0339999 1.0449998 Z "/>
        </symbol>
    </defs>
</svg>
