<svg class="typst-doc" viewBox="0 0 426.3862058617673 115.38582677165354" width="426.3862058617673pt" height="115.38582677165354pt" xmlns="http://www.w3.org/2000/svg" xmlns:xlink="http://www.w3.org/1999/xlink" xmlns:h5="http://www.w3.org/1999/xhtml">
    <path class="typst-shape" fill="#ffffff00" fill-rule="nonzero" d="M 0 0v 115.385826 h 426.3862 v -115.385826 Z "/>
    <g>
        <g class="typst-group" transform="matrix(1 0 0 1 1 1)">
            <g>
                <path class="typst-shape" fill="none" transform="matrix(1 0 0 1 14.353594444444445 8.981228346456692)" d="M 0 0h 10.1563 v 10.384 h -10.1563 v -10.384 Z "/>
                <g class="typst-group">
                    <g>
                        <g class="typst-group" transform="matrix(1 0 0 1 14.35359436570429 8.981228267716535)">
                            <g>
                                <g class="typst-text" transform="matrix(1 0 0 -1 0 7.513000000000001)">
                                    <use xlink:href="#g9A10F67F7F3085DD4083162A20B10361" x="0" y="0" fill="#000000" fill-rule="nonzero"/>
                                </g>
                                <g class="typst-text" transform="matrix(1 0 0 -1 5.159 10.23)">
                                    <use xlink:href="#gEF41E0C1D99C99819FE28089D0846D69" x="0" y="0" fill="#000000" fill-rule="nonzero"/>
                                </g>
                            </g>
                        </g>
                    </g>
                </g>
                <path class="typst-shape" fill="none" transform="matrix(1 0 0 1 43.49920113735783 10.416728346456692)" d="M 0 0h 8.558 v 7.513 h -8.558 v -7.513 Z "/>
                <g class="typst-group">
                    <g>
                        <g class="typst-group" transform="matrix(1 0 0 1 43.49920102712161 10.416728267716534)">
                            <g>
                                <g class="typst-text" transform="matrix(1 0 0 -1 0 7.513000000000001)">
                                    <use xlink:href="#g7E389D4670EF3430D1D2A11967DBC89" x="0" y="0" fill="#000000" fill-rule="nonzero"/>
                                </g>
                            </g>
                        </g>
                    </g>
                </g>
                <path class="typst-shape" fill="none" transform="matrix(1 0 0 1 70.71650783027123 9.058228346456694)" d="M 0 0h 10.8163 v 10.23 h -10.8163 v -10.23 Z "/>
                <g class="typst-group">
                    <g>
                        <g class="typst-group" transform="matrix(1 0 0 1 70.71650779877517 9.058228299212598)">
                            <g>
                                <g class="typst-text" transform="matrix(1 0 0 -1 0 7.513000000000001)">
                                    <use xlink:href="#g4C93E7ADC1F9B3EDD138B357251F5FB8" x="0" y="0" fill="#000000" fill-rule="nonzero"/>
                                </g>
                                <g class="typst-text" transform="matrix(1 0 0 -1 5.819 10.23)">
                                    <use xlink:href="#g88D6488CBD477C99375C0C96F3F042FA" x="0" y="0" fill="#000000" fill-rule="nonzero"/>
                                </g>
                            </g>
                        </g>
                    </g>
                </g>
                <path class="typst-shape" fill="none" stroke="#0074d9" stroke-width="0.5" stroke-linecap="butt" stroke-linejoin="miter" stroke-miterlimit="4" transform="matrix(1 0 0 1 61.95142948381452 0)" d="M 0 0v 28.346457 h 28.346457 v -28.346457 h -28.346457 Z "/>
                <path class="typst-shape" fill="none" transform="matrix(1 0 0 1 100.1921145231846 9.960228346456693)" d="M 0 0h 8.558 v 8.426 h -8.558 v -8.426 Z "/>
                <g class="typst-group">
                    <g>
                        <g class="typst-group" transform="matrix(1 0 0 1 100.19211441294838 9.960228283464568)">
                            <g>
                                <g class="typst-text" transform="matrix(1 0 0 -1 0 7.513000000000001)">
                                    <use xlink:href="#gE426FA5729666E8EAEA09D1FFC40DCAF" x="0" y="0" fill="#000000" fill-rule="nonzero"/>
                                </g>
                            </g>
                        </g>
                    </g>
                </g>
                <path class="typst-shape" fill="none" transform="matrix(1 0 0 1 127.40942121609797 9.058228346456694)" d="M 0 0h 10.8163 v 10.23 h -10.8163 v -10.23 Z "/>
                <g class="typst-group">
                    <g>
                        <g class="typst-group" transform="matrix(1 0 0 1 127.40942118460191 9.058228299212598)">
                            <g>
                                <g class="typst-text" transform="matrix(1 0 0 -1 0 7.513000000000001)">
                                    <use xlink:href="#g4C93E7ADC1F9B3EDD138B357251F5FB8" x="0" y="0" fill="#000000" fill-rule="nonzero"/>
                                </g>
                                <g class="typst-text" transform="matrix(1 0 0 -1 5.819 10.23)">
                                    <use xlink:href="#g3E7B12B0DCCC88C0CEDBD8C4E965462E" x="0" y="0" fill="#000000" fill-rule="nonzero"/>
                                </g>
                            </g>
                        </g>
                    </g>
                </g>
                <path class="typst-shape" fill="none" stroke="#0074d9" stroke-width="0.5" stroke-linecap="butt" stroke-linejoin="miter" stroke-miterlimit="4" transform="matrix(1 0 0 1 119.9051456708541 1.2608028012128043)" d="M 0 0v 25.824852 h 25.824852 v -25.824852 h -25.824852 Z "/>
                <path class="typst-shape" fill="none" transform="matrix(1 0 0 1 156.88502790901137 9.960228346456693)" d="M 0 0h 8.558 v 8.426 h -8.558 v -8.426 Z "/>
                <g class="typst-group">
                    <g>
                        <g class="typst-group" transform="matrix(1 0 0 1 156.88502779877516 9.960228283464568)">
                            <g>
                                <g class="typst-text" transform="matrix(1 0 0 -1 0 7.513000000000001)">
                                    <use xlink:href="#gE426FA5729666E8EAEA09D1FFC40DCAF" x="0" y="0" fill="#000000" fill-rule="nonzero"/>
                                </g>
                            </g>
                        </g>
                    </g>
                </g>
                <path class="typst-shape" fill="none" transform="matrix(1 0 0 1 184.10233460192475 8.981228346456692)" d="M 0 0h 10.8163 v 10.384 h -10.8163 v -10.384 Z "/>
                <g class="typst-group">
                    <g>
                        <g class="typst-group" transform="matrix(1 0 0 1 184.10233457042867 8.981228267716535)">
                            <g>
                                <g class="typst-text" transform="matrix(1 0 0 -1 0 7.513000000000001)">
                                    <use xlink:href="#g4C93E7ADC1F9B3EDD138B357251F5FB8" x="0" y="0" fill="#000000" fill-rule="nonzero"/>
                                </g>
                                <g class="typst-text" transform="matrix(1 0 0 -1 5.819 10.23)">
                                    <use xlink:href="#g9F154DAD714B7DC249939038F9548FDE" x="0" y="0" fill="#000000" fill-rule="nonzero"/>
                                </g>
                            </g>
                        </g>
                    </g>
                </g>
                <path class="typst-shape" fill="none" stroke="#0074d9" stroke-width="0.5" stroke-linecap="butt" stroke-linejoin="miter" stroke-miterlimit="4" transform="matrix(1 0 0 1 177.7467050743657 2.4094488188976384)" d="M 0 0v 23.52756 h 23.52756 v -23.52756 h -23.52756 Z "/>
                <path class="typst-shape" fill="none" transform="matrix(1 0 0 1 213.57794129483813 9.960228346456693)" d="M 0 0h 8.558 v 8.426 h -8.558 v -8.426 Z "/>
                <g class="typst-group">
                    <g>
                        <g class="typst-group" transform="matrix(1 0 0 1 213.5779411846019 9.960228283464568)">
                            <g>
                                <g class="typst-text" transform="matrix(1 0 0 -1 0 7.513000000000001)">
                                    <use xlink:href="#gE426FA5729666E8EAEA09D1FFC40DCAF" x="0" y="0" fill="#000000" fill-rule="nonzero"/>
                                </g>
                            </g>
                        </g>
                    </g>
                </g>
                <path class="typst-shape" fill="none" transform="matrix(1 0 0 1 240.79524798775154 9.058228346456694)" d="M 0 0h 10.8163 v 10.23 h -10.8163 v -10.23 Z "/>
                <g class="typst-group">
                    <g>
                        <g class="typst-group" transform="matrix(1 0 0 1 240.79524795625545 9.058228299212598)">
                            <g>
                                <g class="typst-text" transform="matrix(1 0 0 -1 0 7.513000000000001)">
                                    <use xlink:href="#g4C93E7ADC1F9B3EDD138B357251F5FB8" x="0" y="0" fill="#000000" fill-rule="nonzero"/>
                                </g>
                                <g class="typst-text" transform="matrix(1 0 0 -1 5.819 10.23)">
                                    <use xlink:href="#gBF5A17DA030DCF0F570CEE34B6C5340F" x="0" y="0" fill="#000000" fill-rule="nonzero"/>
                                </g>
                            </g>
                        </g>
                    </g>
                </g>
                <path class="typst-shape" fill="none" stroke="#0074d9" stroke-width="0.5" stroke-linecap="butt" stroke-linejoin="miter" stroke-miterlimit="4" transform="matrix(1 0 0 1 235.48608478519913 3.455915143904267)" d="M 0 0v 21.434626 h 21.434626 v -21.434626 h -21.434626 Z "/>
                <path class="typst-shape" fill="none" transform="matrix(1 0 0 1 270.2708546806649 9.960228346456693)" d="M 0 0h 8.558 v 8.426 h -8.558 v -8.426 Z "/>
                <g class="typst-group">
                    <g>
                        <g class="typst-group" transform="matrix(1 0 0 1 270.2708545704287 9.960228283464568)">
                            <g>
                                <g class="typst-text" transform="matrix(1 0 0 -1 0 7.513000000000001)">
                                    <use xlink:href="#gE426FA5729666E8EAEA09D1FFC40DCAF" x="0" y="0" fill="#000000" fill-rule="nonzero"/>
                                </g>
                            </g>
                        </g>
                    </g>
                </g>
                <path class="typst-shape" fill="none" transform="matrix(1 0 0 1 297.4881613735783 8.981228346456692)" d="M 0 0h 10.8163 v 10.384 h -10.8163 v -10.384 Z "/>
                <g class="typst-group">
                    <g>
                        <g class="typst-group" transform="matrix(1 0 0 1 297.4881613420822 8.981228267716535)">
                            <g>
                                <g class="typst-text" transform="matrix(1 0 0 -1 0 7.513000000000001)">
                                    <use xlink:href="#g4C93E7ADC1F9B3EDD138B357251F5FB8" x="0" y="0" fill="#000000" fill-rule="nonzero"/>
                                </g>
                                <g class="typst-text" transform="matrix(1 0 0 -1 5.819 10.23)">
                                    <use xlink:href="#g13E10545290FEAD7584B242181501B27" x="0" y="0" fill="#000000" fill-rule="nonzero"/>
                                </g>
                            </g>
                        </g>
                    </g>
                </g>
                <path class="typst-shape" fill="none" stroke="#0074d9" stroke-width="0.5" stroke-linecap="butt" stroke-linejoin="miter" stroke-miterlimit="4" transform="matrix(1 0 0 1 293.13237436570427 4.409291338582678)" d="M 0 0v 19.527874 h 19.527874 v -19.527874 h -19.527874 Z "/>
                <path class="typst-shape" fill="none" transform="matrix(1 0 0 1 326.96376806649164 9.960228346456693)" d="M 0 0h 8.558 v 8.426 h -8.558 v -8.426 Z "/>
                <g class="typst-group">
                    <g>
                        <g class="typst-group" transform="matrix(1 0 0 1 326.9637679562555 9.960228283464568)">
                            <g>
                                <g class="typst-text" transform="matrix(1 0 0 -1 0 7.513000000000001)">
                                    <use xlink:href="#gE426FA5729666E8EAEA09D1FFC40DCAF" x="0" y="0" fill="#000000" fill-rule="nonzero"/>
                                </g>
                            </g>
                        </g>
                    </g>
                </g>
                <path class="typst-shape" fill="none" transform="matrix(1 0 0 1 354.1810747594051 8.981228346456692)" d="M 0 0h 10.8163 v 10.384 h -10.8163 v -10.384 Z "/>
                <g class="typst-group">
                    <g>
                        <g class="typst-group" transform="matrix(1 0 0 1 354.181074727909 8.981228267716535)">
                            <g>
                                <g class="typst-text" transform="matrix(1 0 0 -1 0 7.513000000000001)">
                                    <use xlink:href="#g4C93E7ADC1F9B3EDD138B357251F5FB8" x="0" y="0" fill="#000000" fill-rule="nonzero"/>
                                </g>
                                <g class="typst-text" transform="matrix(1 0 0 -1 5.819 10.23)">
                                    <use xlink:href="#gEF41E0C1D99C99819FE28089D0846D69" x="0" y="0" fill="#000000" fill-rule="nonzero"/>
                                </g>
                            </g>
                        </g>
                    </g>
                </g>
                <path class="typst-shape" fill="none" stroke="#0074d9" stroke-width="0.5" stroke-linecap="butt" stroke-linejoin="miter" stroke-miterlimit="4" transform="matrix(1 0 0 1 350.69385480128653 5.2778583883381796)" d="M 0 0v 17.79074 h 17.79074 v -17.79074 h -17.79074 Z "/>
                <path class="typst-shape" fill="none" stroke="#000000" stroke-width="1" stroke-linecap="butt" stroke-linejoin="miter" stroke-miterlimit="4" transform="matrix(1 0 0 1 19.431744444444448 22.677165354330707)" d="M 0 0v 24.087782 "/>
                <path class="typst-shape" fill="none" stroke="#000000" stroke-width="1" stroke-linecap="butt" stroke-linejoin="miter" stroke-miterlimit="4" transform="matrix(1 0 0 1 17.305760192475944 41.095684346456686)" d="M 0 0m 4.2519684 0 l -2.1259842 5.6692915 l -2.1259842 -5.6692915 "/>
                <path class="typst-shape" fill="none" transform="matrix(1 0 0 1 19.431744444444448 31.616070866141737)" d="M 0 0h 19.106445 v 7.634 h -19.106445 v -7.634 Z "/>
                <g class="typst-group">
                    <g>
                        <g class="typst-group" transform="matrix(1 0 0 1 19.431744320209972 31.616070803149608)">
                            <g>
                                <g class="typst-text" transform="matrix(1 0 0 -1 3 7.513000000000001)">
                                    <use xlink:href="#gFA947B3E6993B62294D751F627F76732" x="0" y="0" fill="#000000" fill-rule="nonzero"/>
                                </g>
                                <g class="typst-text" transform="matrix(1 0 0 -1 14.002444444444443 7.513000000000001)">
                                    <use xlink:href="#gEC119B15DAB9E23864FBACCD82691505" x="0" y="0" fill="#000000" fill-rule="nonzero"/>
                                </g>
                            </g>
                        </g>
                    </g>
                </g>
                <path class="typst-shape" fill="none" transform="matrix(1 0 0 1 11.801594444444442 51.50091338582677)" d="M 0 0h 15.2603 v 10.384 h -15.2603 v -10.384 Z "/>
                <g class="typst-group">
                    <g>
                        <g class="typst-group" transform="matrix(1 0 0 1 11.801594334208225 51.50091330708661)">
                            <g>
                                <g class="typst-text" transform="matrix(1 0 0 -1 0 7.513000000000001)">
                                    <use xlink:href="#gEC119B15DAB9E23864FBACCD82691505" x="0" y="0" fill="#000000" fill-rule="nonzero"/>
                                </g>
                                <g class="typst-text" transform="matrix(1 0 0 -1 5.104000000000001 7.513000000000001)">
                                    <use xlink:href="#g9A10F67F7F3085DD4083162A20B10361" x="0" y="0" fill="#000000" fill-rule="nonzero"/>
                                </g>
                                <g class="typst-text" transform="matrix(1 0 0 -1 10.263 10.23)">
                                    <use xlink:href="#gEF41E0C1D99C99819FE28089D0846D69" x="0" y="0" fill="#000000" fill-rule="nonzero"/>
                                </g>
                            </g>
                        </g>
                    </g>
                </g>
                <path class="typst-shape" fill="none" transform="matrix(1 0 0 1 43.49920113735783 52.936413385826775)" d="M 0 0h 8.558 v 7.513 h -8.558 v -7.513 Z "/>
                <g class="typst-group">
                    <g>
                        <g class="typst-group" transform="matrix(1 0 0 1 43.49920102712161 52.93641330708662)">
                            <g>
                                <g class="typst-text" transform="matrix(1 0 0 -1 0 7.513000000000001)">
                                    <use xlink:href="#g7E389D4670EF3430D1D2A11967DBC89" x="0" y="0" fill="#000000" fill-rule="nonzero"/>
                                </g>
                            </g>
                        </g>
                    </g>
                </g>
                <path class="typst-shape" fill="none" transform="matrix(1 0 0 1 127.40942121609797 51.57791338582677)" d="M 0 0h 10.8163 v 10.23 h -10.8163 v -10.23 Z "/>
                <g class="typst-group">
                    <g>
                        <g class="typst-group" transform="matrix(1 0 0 1 127.40942118460191 51.57791333858268)">
                            <g>
                                <g class="typst-text" transform="matrix(1 0 0 -1 0 7.513000000000001)">
                                    <use xlink:href="#g4C93E7ADC1F9B3EDD138B357251F5FB8" x="0" y="0" fill="#000000" fill-rule="nonzero"/>
                                </g>
                                <g class="typst-text" transform="matrix(1 0 0 -1 5.819 10.23)">
                                    <use xlink:href="#g3E7B12B0DCCC88C0CEDBD8C4E965462E" x="0" y="0" fill="#000000" fill-rule="nonzero"/>
                                </g>
                            </g>
                        </g>
                    </g>
                </g>
                <path class="typst-shape" fill="none" stroke="#0074d9" stroke-width="0.5" stroke-linecap="butt" stroke-linejoin="miter" stroke-miterlimit="4" transform="matrix(1 0 0 1 119.9051456708541 43.780487840582886)" d="M 0 0v 25.824852 h 25.824852 v -25.824852 h -25.824852 Z "/>
                <path class="typst-shape" fill="none" stroke="#000000" stroke-width="1" stroke-linecap="butt" stroke-linejoin="miter" stroke-miterlimit="4" transform="matrix(1 0 0 1 93.25861212614053 27.02369406835868)" d="M 0 0l 22.546585 16.909939 "/>
                <path class="typst-shape" fill="none" stroke="#000000" stroke-width="1" stroke-linecap="butt" stroke-linejoin="miter" stroke-miterlimit="4" transform="matrix(1 0 0 1 109.99419568853894 38.83128718110236)" d="M 0 0m 2.551181 0 l 3.2598426 5.102362 l -5.8110237 -1.7007873 "/>
                <path class="typst-shape" fill="none" transform="matrix(1 0 0 1 156.88502790901137 52.47991338582678)" d="M 0 0h 8.558 v 8.426 h -8.558 v -8.426 Z "/>
                <g class="typst-group">
                    <g>
                        <g class="typst-group" transform="matrix(1 0 0 1 156.88502779877516 52.47991332283464)">
                            <g>
                                <g class="typst-text" transform="matrix(1 0 0 -1 0 7.513000000000001)">
                                    <use xlink:href="#gE426FA5729666E8EAEA09D1FFC40DCAF" x="0" y="0" fill="#000000" fill-rule="nonzero"/>
                                </g>
                            </g>
                        </g>
                    </g>
                </g>
                <path class="typst-shape" fill="none" transform="matrix(1 0 0 1 184.10233460192475 51.50091338582677)" d="M 0 0h 10.8163 v 10.384 h -10.8163 v -10.384 Z "/>
                <g class="typst-group">
                    <g>
                        <g class="typst-group" transform="matrix(1 0 0 1 184.10233457042867 51.50091330708661)">
                            <g>
                                <g class="typst-text" transform="matrix(1 0 0 -1 0 7.513000000000001)">
                                    <use xlink:href="#g4C93E7ADC1F9B3EDD138B357251F5FB8" x="0" y="0" fill="#000000" fill-rule="nonzero"/>
                                </g>
                                <g class="typst-text" transform="matrix(1 0 0 -1 5.819 10.23)">
                                    <use xlink:href="#g9F154DAD714B7DC249939038F9548FDE" x="0" y="0" fill="#000000" fill-rule="nonzero"/>
                                </g>
                            </g>
                        </g>
                    </g>
                </g>
                <path class="typst-shape" fill="none" stroke="#0074d9" stroke-width="0.5" stroke-linecap="butt" stroke-linejoin="miter" stroke-miterlimit="4" transform="matrix(1 0 0 1 177.7467050743657 44.92913385826772)" d="M 0 0v 23.52756 h 23.52756 v -23.52756 h -23.52756 Z "/>
                <path class="typst-shape" fill="none" stroke="#000000" stroke-width="1" stroke-linecap="butt" stroke-linejoin="miter" stroke-miterlimit="4" transform="matrix(1 0 0 1 148.93166759264426 26.258800628866403)" d="M 0 0l 24.474144 18.355608 "/>
                <path class="typst-shape" fill="none" stroke="#000000" stroke-width="1" stroke-linecap="butt" stroke-linejoin="miter" stroke-miterlimit="4" transform="matrix(1 0 0 1 167.59481023972 39.51206305511811)" d="M 0 0m 2.551181 0 l 3.2598426 5.102362 l -5.8110237 -1.7007873 "/>
                <path class="typst-shape" fill="none" transform="matrix(1 0 0 1 213.57794129483813 52.47991338582678)" d="M 0 0h 8.558 v 8.426 h -8.558 v -8.426 Z "/>
                <g class="typst-group">
                    <g>
                        <g class="typst-group" transform="matrix(1 0 0 1 213.5779411846019 52.47991332283464)">
                            <g>
                                <g class="typst-text" transform="matrix(1 0 0 -1 0 7.513000000000001)">
                                    <use xlink:href="#gE426FA5729666E8EAEA09D1FFC40DCAF" x="0" y="0" fill="#000000" fill-rule="nonzero"/>
                                </g>
                            </g>
                        </g>
                    </g>
                </g>
                <path class="typst-shape" fill="none" transform="matrix(1 0 0 1 240.79524798775154 51.57791338582677)" d="M 0 0h 10.8163 v 10.23 h -10.8163 v -10.23 Z "/>
                <g class="typst-group">
                    <g>
                        <g class="typst-group" transform="matrix(1 0 0 1 240.79524795625545 51.57791333858268)">
                            <g>
                                <g class="typst-text" transform="matrix(1 0 0 -1 0 7.513000000000001)">
                                    <use xlink:href="#g4C93E7ADC1F9B3EDD138B357251F5FB8" x="0" y="0" fill="#000000" fill-rule="nonzero"/>
                                </g>
                                <g class="typst-text" transform="matrix(1 0 0 -1 5.819 10.23)">
                                    <use xlink:href="#gBF5A17DA030DCF0F570CEE34B6C5340F" x="0" y="0" fill="#000000" fill-rule="nonzero"/>
                                </g>
                            </g>
                        </g>
                    </g>
                </g>
                <path class="typst-shape" fill="none" stroke="#0074d9" stroke-width="0.5" stroke-linecap="butt" stroke-linejoin="miter" stroke-miterlimit="4" transform="matrix(1 0 0 1 235.48608478519913 45.975600183274345)" d="M 0 0v 21.434626 h 21.434626 v -21.434626 h -21.434626 Z "/>
                <path class="typst-shape" fill="none" stroke="#000000" stroke-width="1" stroke-linecap="butt" stroke-linejoin="miter" stroke-miterlimit="4" transform="matrix(1 0 0 1 204.69544619505535 25.561949541304624)" d="M 0 0l 26.230234 19.672674 "/>
                <path class="typst-shape" fill="none" stroke="#000000" stroke-width="1" stroke-linecap="butt" stroke-linejoin="miter" stroke-miterlimit="4" transform="matrix(1 0 0 1 225.11467877515312 40.132279275590555)" d="M 0 0m 2.551181 0 l 3.2598426 5.102362 l -5.8110237 -1.7007873 "/>
                <path class="typst-shape" fill="none" transform="matrix(1 0 0 1 270.2708546806649 52.47991338582678)" d="M 0 0h 8.558 v 8.426 h -8.558 v -8.426 Z "/>
                <g class="typst-group">
                    <g>
                        <g class="typst-group" transform="matrix(1 0 0 1 270.2708545704287 52.47991332283464)">
                            <g>
                                <g class="typst-text" transform="matrix(1 0 0 -1 0 7.513000000000001)">
                                    <use xlink:href="#gE426FA5729666E8EAEA09D1FFC40DCAF" x="0" y="0" fill="#000000" fill-rule="nonzero"/>
                                </g>
                            </g>
                        </g>
                    </g>
                </g>
                <path class="typst-shape" fill="none" transform="matrix(1 0 0 1 297.4881613735783 51.50091338582677)" d="M 0 0h 10.8163 v 10.384 h -10.8163 v -10.384 Z "/>
                <g class="typst-group">
                    <g>
                        <g class="typst-group" transform="matrix(1 0 0 1 297.4881613420822 51.50091330708661)">
                            <g>
                                <g class="typst-text" transform="matrix(1 0 0 -1 0 7.513000000000001)">
                                    <use xlink:href="#g4C93E7ADC1F9B3EDD138B357251F5FB8" x="0" y="0" fill="#000000" fill-rule="nonzero"/>
                                </g>
                                <g class="typst-text" transform="matrix(1 0 0 -1 5.819 10.23)">
                                    <use xlink:href="#g13E10545290FEAD7584B242181501B27" x="0" y="0" fill="#000000" fill-rule="nonzero"/>
                                </g>
                            </g>
                        </g>
                    </g>
                </g>
                <path class="typst-shape" fill="none" stroke="#0074d9" stroke-width="0.5" stroke-linecap="butt" stroke-linejoin="miter" stroke-miterlimit="4" transform="matrix(1 0 0 1 293.13237436570427 46.92897637795276)" d="M 0 0v 19.527874 h 19.527874 v -19.527874 h -19.527874 Z "/>
                <path class="typst-shape" fill="none" stroke="#000000" stroke-width="1" stroke-linecap="butt" stroke-linejoin="miter" stroke-miterlimit="4" transform="matrix(1 0 0 1 260.541877507844 24.927087986526043)" d="M 0 0l 27.830107 20.87258 "/>
                <path class="typst-shape" fill="none" stroke="#000000" stroke-width="1" stroke-linecap="butt" stroke-linejoin="miter" stroke-miterlimit="4" transform="matrix(1 0 0 1 282.5609840034996 40.697323086614176)" d="M 0 0m 2.551181 0 l 3.2598426 5.102362 l -5.8110237 -1.7007873 "/>
                <path class="typst-shape" fill="none" transform="matrix(1 0 0 1 326.96376806649164 52.47991338582678)" d="M 0 0h 8.558 v 8.426 h -8.558 v -8.426 Z "/>
                <g class="typst-group">
                    <g>
                        <g class="typst-group" transform="matrix(1 0 0 1 326.9637679562555 52.47991332283464)">
                            <g>
                                <g class="typst-text" transform="matrix(1 0 0 -1 0 7.513000000000001)">
                                    <use xlink:href="#gE426FA5729666E8EAEA09D1FFC40DCAF" x="0" y="0" fill="#000000" fill-rule="nonzero"/>
                                </g>
                            </g>
                        </g>
                    </g>
                </g>
                <path class="typst-shape" fill="none" transform="matrix(1 0 0 1 354.1810747594051 51.50091338582677)" d="M 0 0h 10.8163 v 10.384 h -10.8163 v -10.384 Z "/>
                <g class="typst-group">
                    <g>
                        <g class="typst-group" transform="matrix(1 0 0 1 354.181074727909 51.50091330708661)">
                            <g>
                                <g class="typst-text" transform="matrix(1 0 0 -1 0 7.513000000000001)">
                                    <use xlink:href="#g4C93E7ADC1F9B3EDD138B357251F5FB8" x="0" y="0" fill="#000000" fill-rule="nonzero"/>
                                </g>
                                <g class="typst-text" transform="matrix(1 0 0 -1 5.819 10.23)">
                                    <use xlink:href="#gEF41E0C1D99C99819FE28089D0846D69" x="0" y="0" fill="#000000" fill-rule="nonzero"/>
                                </g>
                            </g>
                        </g>
                    </g>
                </g>
                <path class="typst-shape" fill="none" stroke="#0074d9" stroke-width="0.5" stroke-linecap="butt" stroke-linejoin="miter" stroke-miterlimit="4" transform="matrix(1 0 0 1 350.69385480128653 47.79754342770826)" d="M 0 0v 17.79074 h 17.79074 v -17.79074 h -17.79074 Z "/>
                <path class="typst-shape" fill="none" stroke="#000000" stroke-width="1" stroke-linecap="butt" stroke-linejoin="miter" stroke-miterlimit="4" transform="matrix(1 0 0 1 316.4636090234357 24.348701583849785)" d="M 0 0l 29.287663 21.965746 "/>
                <path class="typst-shape" fill="none" stroke="#000000" stroke-width="1" stroke-linecap="butt" stroke-linejoin="miter" stroke-miterlimit="4" transform="matrix(1 0 0 1 339.94026998775155 41.21210267716536)" d="M 0 0m 2.551181 0 l 3.2598426 5.102362 l -5.8110237 -1.7007873 "/>
                <path class="typst-shape" fill="none" transform="matrix(1 0 0 1 383.6566814523184 52.47991338582678)" d="M 0 0h 8.558 v 8.426 h -8.558 v -8.426 Z "/>
                <g class="typst-group">
                    <g>
                        <g class="typst-group" transform="matrix(1 0 0 1 383.6566813420822 52.47991332283464)">
                            <g>
                                <g class="typst-text" transform="matrix(1 0 0 -1 0 7.513000000000001)">
                                    <use xlink:href="#gE426FA5729666E8EAEA09D1FFC40DCAF" x="0" y="0" fill="#000000" fill-rule="nonzero"/>
                                </g>
                            </g>
                        </g>
                    </g>
                </g>
                <path class="typst-shape" fill="none" transform="matrix(1 0 0 1 408.32198814523184 51.50091338582677)" d="M 0 0h 15.9203 v 10.384 h -15.9203 v -10.384 Z "/>
                <g class="typst-group">
                    <g>
                        <g class="typst-group" transform="matrix(1 0 0 1 408.32198808223967 51.50091330708661)">
                            <g>
                                <g class="typst-text" transform="matrix(1 0 0 -1 0 7.513000000000001)">
                                    <use xlink:href="#gEC119B15DAB9E23864FBACCD82691505" x="0" y="0" fill="#000000" fill-rule="nonzero"/>
                                </g>
                                <g class="typst-text" transform="matrix(1 0 0 -1 5.104000000000001 7.513000000000001)">
                                    <use xlink:href="#g4C93E7ADC1F9B3EDD138B357251F5FB8" x="0" y="0" fill="#000000" fill-rule="nonzero"/>
                                </g>
                                <g class="typst-text" transform="matrix(1 0 0 -1 10.923 10.23)">
                                    <use xlink:href="#gEF41E0C1D99C99819FE28089D0846D69" x="0" y="0" fill="#000000" fill-rule="nonzero"/>
                                </g>
                            </g>
                        </g>
                    </g>
                </g>
                <path class="typst-shape" fill="none" stroke="#0074d9" stroke-width="0.5" stroke-linecap="butt" stroke-linejoin="miter" stroke-miterlimit="4" transform="matrix(1 0 0 1 408.1780704286964 48.58884566929134)" d="M 0 0v 16.208136 h 16.208136 v -16.208136 h -16.208136 Z "/>
                <path class="typst-shape" fill="none" stroke="#000000" stroke-width="1" stroke-linecap="butt" stroke-linejoin="miter" stroke-miterlimit="4" transform="matrix(1 0 0 1 372.4539422886408 23.821766493383542)" d="M 0 0l 30.615557 22.961668 "/>
                <path class="typst-shape" fill="none" stroke="#000000" stroke-width="1" stroke-linecap="butt" stroke-linejoin="miter" stroke-miterlimit="4" transform="matrix(1 0 0 1 397.25849883814516 41.68108913385827)" d="M 0 0m 2.551181 0 l 3.2598426 5.102362 l -5.8110237 -1.7007873 "/>
                <path class="typst-shape" fill="none" transform="matrix(1 0 0 1 0 94.02059842519685)" d="M 0 0h 38.863487 v 10.384 h -38.863487 v -10.384 Z "/>
                <g class="typst-group">
                    <g>
                        <g class="typst-group" transform="matrix(1 0 0 1 -0.00000007524059175176356 94.0205983464567)">
                            <g>
                                <g class="typst-group">
                                    <g>
                                        <g class="typst-text" transform="matrix(1 0 0 -1 0 7.513000000000001)">
                                            <use xlink:href="#g9A10F67F7F3085DD4083162A20B10361" x="0" y="0" fill="#000000" fill-rule="nonzero"/>
                                        </g>
                                        <g class="typst-text" transform="matrix(1 0 0 -1 5.159 10.23)">
                                            <use xlink:href="#gEF41E0C1D99C99819FE28089D0846D69" x="0" y="0" fill="#000000" fill-rule="nonzero"/>
                                        </g>
                                        <g class="typst-text" transform="matrix(1 0 0 -1 12.600744444444443 7.513000000000001)">
                                            <use xlink:href="#g2AF391FCADF017EBC67FE670CBA3B443" x="0" y="0" fill="#000000" fill-rule="nonzero"/>
                                        </g>
                                        <g class="typst-text" transform="matrix(1 0 0 -1 23.603188888888884 7.513000000000001)">
                                            <use xlink:href="#gEC119B15DAB9E23864FBACCD82691505" x="0" y="0" fill="#000000" fill-rule="nonzero"/>
                                        </g>
                                        <g class="typst-text" transform="matrix(1 0 0 -1 28.707188888888886 7.513000000000001)">
                                            <use xlink:href="#g9A10F67F7F3085DD4083162A20B10361" x="0" y="0" fill="#000000" fill-rule="nonzero"/>
                                        </g>
                                        <g class="typst-text" transform="matrix(1 0 0 -1 33.866188888888885 10.23)">
                                            <use xlink:href="#gEF41E0C1D99C99819FE28089D0846D69" x="0" y="0" fill="#000000" fill-rule="nonzero"/>
                                        </g>
                                    </g>
                                </g>
                            </g>
                        </g>
                    </g>
                </g>
                <path class="typst-shape" fill="none" transform="matrix(1 0 0 1 43.49920113735783 95.45609842519684)" d="M 0 0h 8.558 v 7.513 h -8.558 v -7.513 Z "/>
                <g class="typst-group">
                    <g>
                        <g class="typst-group" transform="matrix(1 0 0 1 43.49920102712161 95.45609834645668)">
                            <g>
                                <g class="typst-text" transform="matrix(1 0 0 -1 0 7.513000000000001)">
                                    <use xlink:href="#g7E389D4670EF3430D1D2A11967DBC89" x="0" y="0" fill="#000000" fill-rule="nonzero"/>
                                </g>
                            </g>
                        </g>
                    </g>
                </g>
                <path class="typst-shape" fill="none" transform="matrix(1 0 0 1 70.71650783027123 94.09759842519685)" d="M 0 0h 10.8163 v 10.23 h -10.8163 v -10.23 Z "/>
                <g class="typst-group">
                    <g>
                        <g class="typst-group" transform="matrix(1 0 0 1 70.71650779877517 94.09759837795276)">
                            <g>
                                <g class="typst-text" transform="matrix(1 0 0 -1 0 7.513000000000001)">
                                    <use xlink:href="#g4C93E7ADC1F9B3EDD138B357251F5FB8" x="0" y="0" fill="#000000" fill-rule="nonzero"/>
                                </g>
                                <g class="typst-text" transform="matrix(1 0 0 -1 5.819 10.23)">
                                    <use xlink:href="#g88D6488CBD477C99375C0C96F3F042FA" x="0" y="0" fill="#000000" fill-rule="nonzero"/>
                                </g>
                            </g>
                        </g>
                    </g>
                </g>
                <path class="typst-shape" fill="none" stroke="#0074d9" stroke-width="0.5" stroke-linecap="butt" stroke-linejoin="miter" stroke-miterlimit="4" transform="matrix(1 0 0 1 61.95142948381452 85.03937007874016)" d="M 0 0v 28.346457 h 28.346457 v -28.346457 h -28.346457 Z "/>
                <path class="typst-shape" fill="none" transform="matrix(1 0 0 1 100.1921145231846 95.45609842519684)" d="M 0 0h 8.558 v 7.513 h -8.558 v -7.513 Z "/>
                <g class="typst-group">
                    <g>
                        <g class="typst-group" transform="matrix(1 0 0 1 100.19211441294838 95.45609834645668)">
                            <g>
                                <g class="typst-text" transform="matrix(1 0 0 -1 0 7.513000000000001)">
                                    <use xlink:href="#g2AF391FCADF017EBC67FE670CBA3B443" x="0" y="0" fill="#000000" fill-rule="nonzero"/>
                                </g>
                            </g>
                        </g>
                    </g>
                </g>
                <path class="typst-shape" fill="none" transform="matrix(1 0 0 1 124.857421216098 94.02059842519685)" d="M 0 0h 15.9203 v 10.384 h -15.9203 v -10.384 Z "/>
                <g class="typst-group">
                    <g>
                        <g class="typst-group" transform="matrix(1 0 0 1 124.85742115310583 94.0205983464567)">
                            <g>
                                <g class="typst-text" transform="matrix(1 0 0 -1 0 7.513000000000001)">
                                    <use xlink:href="#gEC119B15DAB9E23864FBACCD82691505" x="0" y="0" fill="#000000" fill-rule="nonzero"/>
                                </g>
                                <g class="typst-text" transform="matrix(1 0 0 -1 5.104000000000001 7.513000000000001)">
                                    <use xlink:href="#g4C93E7ADC1F9B3EDD138B357251F5FB8" x="0" y="0" fill="#000000" fill-rule="nonzero"/>
                                </g>
                                <g class="typst-text" transform="matrix(1 0 0 -1 10.923 10.23)">
                                    <use xlink:href="#gEF41E0C1D99C99819FE28089D0846D69" x="0" y="0" fill="#000000" fill-rule="nonzero"/>
                                </g>
                            </g>
                        </g>
                    </g>
                </g>
                <path class="typst-shape" fill="none" stroke="#0074d9" stroke-width="0.5" stroke-linecap="butt" stroke-linejoin="miter" stroke-miterlimit="4" transform="matrix(1 0 0 1 124.71350349956256 91.10853070866142)" d="M 0 0v 16.208136 h 16.208136 v -16.208136 h -16.208136 Z "/>
            </g>
        </g>
    </g>
    <defs id="glyph">
        <symbol id="g9A10F67F7F3085DD4083162A20B10361" overflow="visible">
            <path d="M 0 0m 4.62 3.894 c 0 0.62699986 -0.638 0.96799994 -1.3199999 0.96799994 c -0.6930001 0 -1.188 -0.20900011 -1.485 -0.62699986 c -0.2529999 -0.36300015 -0.385 -0.6930001 -0.385 -0.99000025 c 0 -0.58299994 0.385 -0.9569998 1.1439999 -1.122 c 0.319 -0.05499983 0.5610001 -0.13199997 0.74800014 -0.21999991 c 0.23099995 -0.09899998 0.34099984 -0.286 0.34099984 -0.54999995 c 0 -0.19800007 -0.08799982 -0.41800004 -0.27499986 -0.67100006 c -0.23099995 -0.31899998 -0.638 -0.48399997 -1.221 -0.48399997 c -0.5940001 0 -0.9790001 0.165 -1.1550001 0.48399997 c 0.352 -0.010999978 0.64900005 0.27500004 0.64900005 0.62700003 c 0 0.27499998 -0.143 0.41799998 -0.44000006 0.41799998 c -0.39599997 0 -0.6489999 -0.36300004 -0.6489999 -0.759 c 0 -0.726 0.79199994 -1.089 1.5839999 -1.089 c 0.82500005 0 1.4190001 0.242 1.7710001 0.737 c 0.29699993 0.407 0.44000006 0.77000004 0.44000006 1.0999999 c 0 0.47299993 -0.23099995 0.8249999 -0.68200016 1.0560001 c -0.34100008 0.12099981 -0.605 0.19799995 -0.77 0.23099995 c -0.385 0.09899998 -0.7809999 0.13199997 -0.7809999 0.605 c 0 0.58299994 0.54999995 0.9349997 1.1659999 0.9349997 c 0.46200013 0 0.75900006 -0.14299965 0.9020002 -0.41799974 c -0.2420001 -0.04400015 -0.49500012 -0.25300002 -0.49500012 -0.5280001 c 0 -0.23099995 0.12100005 -0.352 0.37399983 -0.352 c 0.34100008 0 0.53900003 0.3080001 0.53900003 0.64900017 Z "/>
        </symbol>
        <symbol id="gEF41E0C1D99C99819FE28089D0846D69" overflow="visible">
            <path d="M 0 0m 2.6488 5.1128 c -0.66989994 0 -1.2242999 -0.2849002 -1.6477998 -0.8547001 c -0.39270008 -0.51590014 -0.5852001 -1.1242001 -0.5852001 -1.8172 c 0 -0.9548001 0.19249997 -1.6401001 0.5775 -2.0482001 c 0.34649998 -0.36189997 0.7469 -0.5467 1.2089 -0.5467 c 0.4928 0 0.9086001 0.1694 1.2474 0.5005 c 0.33879995 0.33110002 0.50819993 0.74689996 0.50819993 1.232 c 0 0.47740006 -0.16170001 0.88549995 -0.48510003 1.2166 c -0.32339978 0.3311 -0.72379994 0.50049996 -1.1934998 0.50049996 c -0.4697001 0 -0.8239001 -0.21560001 -1.0780001 -0.6545 c 0.015399933 0.66989994 0.13090003 1.1704001 0.33879995 1.5092001 c 0.28490007 0.45429993 0.6545 0.6775999 1.1242001 0.6775999 c 0.28489995 0 0.4928 -0.069300175 0.6236999 -0.20790005 c -0.21560001 -0.0461998 -0.32340002 -0.1770997 -0.32340002 -0.39269972 c 0 -0.25410008 0.13090014 -0.38500023 0.385 -0.38500023 c 0.26180005 0 0.39269996 0.13090014 0.39269996 0.40040016 c 0 0.58519983 -0.47739983 0.8701 -1.0934 0.8701 Z m -1.4244999 -3.3726 c 0 0.6622 0.39269996 1.2781999 1.0164 1.2781999 c 0.23869991 0 0.4389 -0.0769999 0.6006 -0.23099995 c 0.29259992 -0.27719998 0.3311 -0.6236999 0.3311 -1.2089 c 0 -0.4928 -0.06929994 -0.83930004 -0.20020008 -1.0318 c -0.18479991 -0.2618 -0.4389 -0.39270002 -0.77 -0.39270002 c -0.74689996 0 -0.9778999 0.7007 -0.9778999 1.5862 Z "/>
        </symbol>
        <symbol id="g7E389D4670EF3430D1D2A11967DBC89" overflow="visible">
            <path d="M 0 0m 7.678 4.037 h -6.798 c -0.176 0 -0.264 -0.0880003 -0.264 -0.25300026 c 0 -0.16499996 0.088 -0.25300002 0.264 -0.25300002 h 6.798 c 0.17600012 0 0.26399994 0.08800006 0.26399994 0.25300002 c 0 0.13199997 -0.12099981 0.25300026 -0.26399994 0.25300026 Z m 0 -2.0680003 h -6.798 c -0.176 0 -0.264 -0.08799994 -0.264 -0.25300002 c 0 -0.16499996 0.088 -0.25300002 0.264 -0.25300002 h 6.798 c 0.17600012 0 0.26399994 0.08800006 0.26399994 0.25300002 c 0 0.143 -0.12099981 0.25300002 -0.26399994 0.25300002 Z "/>
        </symbol>
        <symbol id="g4C93E7ADC1F9B3EDD138B357251F5FB8" overflow="visible">
            <path d="M 0 0m 5.478 1.584 c 0 0.09899998 -0.055000305 0.15400004 -0.17600012 0.15400004 c -0.0880003 0 -0.15400028 -0.07700002 -0.18700027 -0.23100007 c -0.21999979 -0.86899996 -0.48399973 -1.309 -0.78099966 -1.309 c -0.18700027 0 -0.28600025 0.154 -0.28600025 0.46199995 c 0 0.143 0.04400015 0.40700006 0.14300013 0.79200006 l 0.62699986 2.475 c 0.055000305 0.20900011 0.07700014 0.32999992 0.07700014 0.38499975 c 0 0.22000027 -0.12099981 0.3300004 -0.36299992 0.3300004 c -0.23099995 0 -0.38500023 -0.13200045 -0.4619999 -0.38500023 c -0.23100019 0.40700006 -0.5610001 0.605 -0.9790001 0.605 c -0.71500015 0 -1.3420001 -0.36299992 -1.8920001 -1.089 c -0.506 -0.6819999 -0.759 -1.3859999 -0.759 -2.1230001 c 0 -0.95699996 0.56100005 -1.771 1.4849999 -1.771 c 0.47300005 0 0.93499994 0.253 1.375 0.759 c 0.12100005 -0.418 0.49500012 -0.759 1.0119998 -0.759 c 0.7590003 0 0.99000025 0.891 1.1660004 1.705 Z m -1.7270002 2.5299997 c 0.09899998 -0.23099995 0.15400004 -0.38499975 0.15400004 -0.48399997 c 0 -0.04399991 -0.010999918 -0.09899998 -0.022000074 -0.17599988 l -0.53900003 -2.112 c -0.032999992 -0.12100005 -0.109999895 -0.25300002 -0.20899987 -0.385 c -0.40700006 -0.50600004 -0.803 -0.759 -1.188 -0.759 c -0.42900002 0 -0.64900005 0.32999998 -0.64900005 0.97900003 c 0 0.26399994 0.065999985 0.65999997 0.19800007 1.188 c 0.23099995 0.93499994 0.5609999 1.562 0.96799994 1.9030001 c 0.22000003 0.1869998 0.4289999 0.27499962 0.638 0.27499962 c 0.29699993 0 0.51699996 -0.14299965 0.6489999 -0.4289999 Z "/>
        </symbol>
        <symbol id="g88D6488CBD477C99375C0C96F3F042FA" overflow="visible">
            <path d="M 0 0m 2.3331 5.1128 c -0.3311 -0.32340002 -0.8239001 -0.48510027 -1.4938002 -0.48510027 v -0.33879995 c 0.4543 0 0.81619996 0.069300175 1.0934 0.20020008 v -3.8346 c 0 -0.10010004 -0.0077000856 -0.16170001 -0.030800104 -0.1925 c -0.03849995 -0.08470002 -0.2694999 -0.13090003 -0.69299996 -0.13090003 h -0.3157 v -0.3311 l 1.3706 0.0308 l 1.3783002 -0.0308 v 0.3311 h -0.31570005 c -0.42350006 0 -0.6545 0.046200007 -0.70070004 0.13090003 c -0.015399933 0.030799985 -0.0230999 0.092399955 -0.0230999 0.1925 v 4.2118998 c 0 0.20790005 -0.030800104 0.24640036 -0.26950002 0.24640036 Z "/>
        </symbol>
        <symbol id="gE426FA5729666E8EAEA09D1FFC40DCAF" overflow="visible">
            <path d="M 0 0m 7.678 3.014 h -3.1350002 v 3.1350002 c 0 0.17599964 -0.08799982 0.26399994 -0.26399994 0.26399994 c -0.17599964 0 -0.26399994 -0.0880003 -0.26399994 -0.26399994 v -3.1350002 h -3.1349998 c -0.176 0 -0.264 -0.08800006 -0.264 -0.26399994 c 0 -0.17600012 0.088 -0.26399994 0.264 -0.26399994 h 3.1349998 v -3.135 c 0 -0.176 0.0880003 -0.264 0.26399994 -0.264 c 0.17600012 0 0.26399994 0.088 0.26399994 0.264 v 3.135 h 3.1350002 c 0.17600012 0 0.26399994 0.08799982 0.26399994 0.26399994 c 0 0.14299989 -0.12099981 0.26399994 -0.26399994 0.26399994 Z "/>
        </symbol>
        <symbol id="g3E7B12B0DCCC88C0CEDBD8C4E965462E" overflow="visible">
            <path d="M 0 0m 0.9163 3.2648 c 0.24639994 0 0.43119997 0.18479991 0.43119997 0.43120003 c 0 0.27719998 -0.14629996 0.42350006 -0.43119997 0.43120003 c 0.16940004 0.36189985 0.5544 0.6545 1.0548999 0.6545 c 0.6775999 0 1.1242001 -0.50820017 1.1242001 -1.1858001 c 0 -0.36960006 -0.13090014 -0.7238002 -0.40040016 -1.0703001 c -0.1308999 -0.17709994 -0.23099995 -0.30029988 -0.30029988 -0.36960006 l -1.8249 -1.8094999 c -0.10010001 -0.092400014 -0.08470002 -0.1155 -0.08470002 -0.3465 h 3.1724 l 0.23869991 1.4476 h -0.32340002 c -0.053900003 -0.4081 -0.11549997 -0.64680004 -0.18479991 -0.7007 c -0.03850007 -0.023100019 -0.27719998 -0.03850001 -0.7314999 -0.03850001 h -1.3090001 c 0.5159 0.45429993 0.9933001 0.86239994 1.4476 1.2243 c 0.34649992 0.2694999 0.59290004 0.50820005 0.7469001 0.71609986 c 0.23099995 0.30030012 0.34649992 0.6160002 0.34649992 0.94710016 c 0 0.47739983 -0.18479991 0.8547001 -0.56209993 1.1318998 c -0.3311 0.25409985 -0.7469001 0.38500023 -1.2397001 0.38500023 c -0.42349994 0 -0.7853999 -0.12319994 -1.1011 -0.3696003 c -0.3311 -0.26949978 -0.50049996 -0.60829973 -0.50049996 -1.0240998 c 0 -0.26180005 0.19250003 -0.45429993 0.4312 -0.45429993 Z "/>
        </symbol>
        <symbol id="g9F154DAD714B7DC249939038F9548FDE" overflow="visible">
            <path d="M 0 0m 2.7181 2.7181 c 0.5158999 0.20789981 1.0086999 0.6622 1.0086999 1.3167 c 0 0.34649992 -0.18479991 0.62370014 -0.5467 0.82389975 c -0.30029988 0.16940022 -0.6391001 0.25410032 -1.0163999 0.25410032 c -0.37730014 0 -0.70840013 -0.07700014 -0.9933001 -0.23869991 c -0.34650004 -0.19250011 -0.52360004 -0.46200037 -0.52360004 -0.8085003 c 0 -0.29259992 0.14630002 -0.4389 0.43119997 -0.4389 c 0.23870003 0 0.4158001 0.18480015 0.4158001 0.42350006 c 0 0.23869991 -0.12320006 0.3772998 -0.3619001 0.4158001 c 0.2233001 0.23869991 0.5544001 0.36189985 1.0087 0.36189985 c 0.50049996 0 0.7853999 -0.30030012 0.7853999 -0.7930999 c 0 -0.3619001 -0.1000998 -0.6545 -0.29259992 -0.88549995 c -0.21560001 -0.25410008 -0.36960006 -0.29260015 -0.8162 -0.32340002 c -0.20789993 -0.015400171 -0.34649992 0.0076999664 -0.34649992 -0.14630008 c 0 -0.092400074 0.07700002 -0.13860011 0.22329998 -0.13860011 h 0.4080999 c 0.6622 0 0.9856 -0.50049996 0.9856 -1.1934999 c 0 -0.67759997 -0.30799985 -1.1934999 -0.9547999 -1.1934999 c -0.56210005 0 -0.97020006 0.154 -1.2243 0.46970004 c 0.26950002 0.030799985 0.4081 0.18479997 0.4081 0.45429993 c 0 0.25410008 -0.1925 0.44660008 -0.44659996 0.44660008 c -0.3003 0 -0.45430002 -0.15400004 -0.45430002 -0.46969998 c 0 -0.39270008 0.20019999 -0.7084 0.59290004 -0.93170005 c 0.3311 -0.1848 0.7084 -0.27719998 1.1395999 -0.27719998 c 0.4697001 0 0.8778 0.1309 1.2320001 0.39270002 c 0.385 0.28489998 0.57749987 0.6545 0.57749987 1.1087999 c 0 0.7161001 -0.6236999 1.2089001 -1.2396998 1.3706001 Z "/>
        </symbol>
        <symbol id="gBF5A17DA030DCF0F570CEE34B6C5340F" overflow="visible">
            <path d="M 0 0m 3.0338 5.1898 c -0.08469987 0 -0.16170001 -0.038499832 -0.22329998 -0.11549997 l -2.5102 -3.5112 v -0.31569993 h 2.2252998 v -0.59290004 c 0 -0.13090003 -0.0230999 -0.22330001 -0.0769999 -0.26180002 c -0.053900003 -0.03849998 -0.22329998 -0.0616 -0.5005001 -0.0616 h -0.23870003 v -0.3311 l 1.1626999 0.0308 l 1.1781001 -0.0308 v 0.3311 h -0.23099995 c -0.28489995 0 -0.45430017 0.023100019 -0.50820017 0.0616 c -0.053900003 0.03850001 -0.0769999 0.1309 -0.0769999 0.26180002 v 0.59290004 h 0.8392999 v 0.33879995 h -0.8392999 v 3.3572 c 0 0.18480015 -0.0230999 0.24639988 -0.20020008 0.24639988 Z m -0.45429993 -0.9470997 v -2.6565 h -1.9096 Z "/>
        </symbol>
        <symbol id="g13E10545290FEAD7584B242181501B27" overflow="visible">
            <path d="M 0 0m 1.0626 2.3792999 c 0.053900003 0 0.10780001 0.03850007 0.16939998 0.11550021 c 0.2464 0.31569982 0.59290004 0.46969986 1.0317999 0.46969986 c 0.5621002 0 0.8470001 -0.4619999 0.8470001 -1.3783 c 0 -0.44659996 -0.07700014 -0.7777 -0.22329998 -0.9933 c -0.20790005 -0.29259998 -0.4928 -0.4389 -0.86240005 -0.4389 c -0.53900003 0 -0.97019994 0.30800003 -1.1396 0.7084 c 0.24639994 0 0.41580003 0.16169995 0.41580003 0.40809995 c 0 0.2464 -0.16170001 0.4158001 -0.40810007 0.4158001 c -0.25409997 -0.03850007 -0.40809998 -0.16170001 -0.40809998 -0.4389 c 0 -0.40810007 0.16169998 -0.7469 0.4851 -1.0164001 c 0.30029994 -0.2541 0.66220003 -0.385 1.0702999 -0.385 c 0.50049996 0 0.9317 0.1694 1.3013 0.4928 c 0.36960006 0.32339996 0.5467 0.73149997 0.5467 1.2166 c 0 0.46969998 -0.16170001 0.86239994 -0.4697001 1.1934999 c -0.30799985 0.3311 -0.69299984 0.4928 -1.1473 0.4928 c -0.4080999 0 -0.74689984 -0.11549997 -1.0317999 -0.33879995 v 1.3321002 c 0.2464 -0.06160021 0.48510003 -0.092400074 0.7084 -0.092400074 c 0.3003 0 0.58519995 0.06159973 0.85469997 0.19250011 c 0.21560001 0.10009956 0.7623 0.41579962 0.7623 0.6390996 c 0 0.092400074 -0.046200037 0.13860035 -0.1308999 0.13860035 c -0.42350006 -0.16170025 -0.8239 -0.24640036 -1.1935 -0.24640036 c -0.37730002 0 -0.74689996 0.069300175 -1.0934 0.20790005 c -0.053900003 0.023100376 -0.08469999 0.03850031 -0.10780001 0.03850031 c -0.08469999 0 -0.13090003 -0.07700014 -0.13090003 -0.23869991 v -2.2407002 c 0 -0.15400004 0.007700026 -0.25410008 0.15400004 -0.25410008 Z "/>
        </symbol>
        <symbol id="gFA947B3E6993B62294D751F627F76732" overflow="visible">
            <path d="M 0 0m 6.93 0.352 c 0 0.07699999 -0.021999836 0.132 -0.076999664 0.18699998 l -2.211 2.211 l 2.211 2.211 c 0.05499983 0.05499983 0.076999664 0.11000013 0.076999664 0.1869998 c 0 0.14300013 -0.10999966 0.25300026 -0.25299978 0.25300026 c -0.07700014 0 -0.13199997 -0.021999836 -0.18700027 -0.07700014 l -2.211 -2.211 l -2.2109997 2.211 c -0.055000067 0.055000305 -0.11000013 0.07700014 -0.18700004 0.07700014 c -0.143 0 -0.25300002 -0.11000013 -0.25300002 -0.25300026 c 0 -0.076999664 0.021999955 -0.13199997 0.07700002 -0.1869998 l 2.211 -2.211 l -2.211 -2.211 c -0.055000067 -0.054999977 -0.07700002 -0.109999985 -0.07700002 -0.18699998 c 0 -0.143 0.110000014 -0.253 0.25300002 -0.253 c 0.0769999 0 0.13199997 0.022 0.18700004 0.077 l 2.2109997 2.211 l 2.211 -2.211 c 0.055000305 -0.055 0.11000013 -0.077 0.18700027 -0.077 c 0.14300013 0 0.25299978 0.10999999 0.25299978 0.253 Z "/>
        </symbol>
        <symbol id="gEC119B15DAB9E23864FBACCD82691505" overflow="visible">
            <path d="M 0 0m 4.796 4.114 c 0 0.46200037 -0.4510002 0.74800014 -0.93499994 0.74800014 c -0.53900003 0 -0.99 -0.25299978 -1.3640001 -0.77 c -0.109999895 0.4289999 -0.48399997 0.77 -1.0009999 0.77 c -0.4510001 0 -0.7810001 -0.35200024 -1.0120001 -1.0669999 c -0.109999985 -0.36300015 -0.16499999 -0.572 -0.16499999 -0.638 c 0 -0.09899998 0.055000007 -0.15400004 0.176 -0.15400004 c 0.055000007 0 0.088 0.010999918 0.12099999 0.032999992 c 0.055000007 0.09899998 0.088 0.17599988 0.09899998 0.25300002 c 0.19800001 0.83599997 0.45100003 1.2539997 0.74799997 1.2539997 c 0.18700004 0 0.286 -0.1539998 0.286 -0.4619999 c 0 -0.14299989 -0.054999948 -0.43999982 -0.16499996 -0.8909998 l -0.627 -2.497 c -0.032999992 -0.143 -0.09900004 -0.42900002 -0.09900004 -0.48400003 c 0 -0.22 0.12099999 -0.32999998 0.35200006 -0.32999998 c 0.21999991 0 0.36299992 0.11 0.43999994 0.32999998 l 0.20899999 0.79200006 c 0.12100005 0.47299993 0.19799995 0.7809999 0.23099995 0.9239999 l 0.34100008 1.408 c 0.022000074 0.08800006 0.109999895 0.23099995 0.25300002 0.44000006 c 0.29699993 0.41799998 0.638 0.76999974 1.177 0.76999974 c 0.13199997 0 0.2420001 -0.021999836 0.34100008 -0.076999664 c -0.33000016 -0.09899998 -0.49500012 -0.3080001 -0.49500012 -0.605 c 0 -0.286 0.15400004 -0.42900014 0.45099998 -0.42900014 c 0.36299992 0 0.638 0.319 0.638 0.6819999 Z "/>
        </symbol>
        <symbol id="g2AF391FCADF017EBC67FE670CBA3B443" overflow="visible">
            <path d="M 0 0m 7.678 2.97 h -6.798 c -0.176 0 -0.264 -0.07700014 -0.264 -0.22000003 c 0 -0.14300013 0.088 -0.22000003 0.264 -0.22000003 h 6.798 c 0.17600012 0 0.26399994 0.0769999 0.26399994 0.22000003 c 0 0.13199997 -0.13199997 0.22000003 -0.26399994 0.22000003 Z "/>
        </symbol>
    </defs>
</svg>
