<svg class="typst-doc" viewBox="0 0 142.73228346456693 48.24409448818898" width="142.73228346456693pt" height="48.24409448818898pt" xmlns="http://www.w3.org/2000/svg" xmlns:xlink="http://www.w3.org/1999/xlink" xmlns:h5="http://www.w3.org/1999/xhtml">
    <path class="typst-shape" fill="#ffffff00" fill-rule="nonzero" d="M 0 0v 48.244095 h 142.73228 v -48.244095 Z "/>
    <g>
        <g class="typst-group" transform="matrix(1 0 0 1 0.5 0.5)">
            <g>
                <path class="typst-shape" fill="none" stroke="#000000" stroke-width="0.2" stroke-linecap="butt" stroke-linejoin="miter" stroke-miterlimit="4" transform="matrix(1 0 0 1 0 47.24409448818898)" d="M 0 0h 141.73228 "/>
                <path class="typst-shape" fill="#005dae" fill-rule="nonzero" transform="matrix(1 0 0 1 47.24409448818898 0)" d="M 0 0m 0 47.244095 v -47.244095 h 47.244095 v 47.244095 h -47.244095 Z "/>
                <path class="typst-shape" fill="#005dae" fill-rule="nonzero" transform="matrix(1 0 0 1 15.748031496062993 31.496062992125985)" d="M 0 0m 0 15.748032 v -15.748032 h 15.748032 v 15.748032 h -15.748032 Z "/>
                <path class="typst-shape" fill="#005dae" fill-rule="nonzero" transform="matrix(1 0 0 1 5.249343832020997 41.99475065616797)" d="M 0 0m 0 5.249344 v -5.249344 h 5.249344 v 5.249344 h -5.249344 Z "/>
                <path class="typst-shape" fill="#005dae" fill-rule="nonzero" transform="matrix(1 0 0 1 1.7497812773403323 45.49431321084864)" d="M 0 0m 0 1.7497813 v -1.7497813 h 1.7497813 v 1.7497813 h -1.7497813 Z "/>
                <path class="typst-shape" fill="#005dae" fill-rule="nonzero" transform="matrix(1 0 0 1 0.5832604257801107 46.66083406240887)" d="M 0 0m 0 0.5832604 v -0.5832604 h 0.5832604 v 0.5832604 h -0.5832604 Z "/>
                <path class="typst-shape" fill="#005dae" fill-rule="nonzero" transform="matrix(1 0 0 1 0.1944201419267036 47.04967434626227)" d="M 0 0m 0 0.19442014 v -0.19442014 h 0.19442014 v 0.19442014 h -0.19442014 Z "/>
                <path class="typst-shape" fill="#005dae" fill-rule="nonzero" transform="matrix(1 0 0 1 0.06480671397556786 47.17928777421341)" d="M 0 0m 0 0.064806715 v -0.064806715 h 0.064806715 v 0.064806715 h -0.064806715 Z "/>
                <path class="typst-shape" fill="#005dae" fill-rule="nonzero" transform="matrix(1 0 0 1 0.02160223799185596 47.22249225019712)" d="M 0 0m 0 0.021602238 v -0.021602238 h 0.021602238 v 0.021602238 h -0.021602238 Z "/>
                <path class="typst-shape" fill="#005dae" fill-rule="nonzero" transform="matrix(1 0 0 1 0.15121566594299168 47.22249225019712)" d="M 0 0m 0 0.021602238 v -0.021602238 h 0.021602238 v 0.021602238 h -0.021602238 Z "/>
                <path class="typst-shape" fill="#005dae" fill-rule="nonzero" transform="matrix(1 0 0 1 0.45364699782897505 47.17928777421341)" d="M 0 0m 0 0.064806715 v -0.064806715 h 0.064806715 v 0.064806715 h -0.064806715 Z "/>
                <path class="typst-shape" fill="#005dae" fill-rule="nonzero" transform="matrix(1 0 0 1 0.4104425218452631 47.22249225019712)" d="M 0 0m 0 0.021602238 v -0.021602238 h 0.021602238 v 0.021602238 h -0.021602238 Z "/>
                <path class="typst-shape" fill="#005dae" fill-rule="nonzero" transform="matrix(1 0 0 1 0.5400559497963988 47.22249225019712)" d="M 0 0m 0 0.021602238 v -0.021602238 h 0.021602238 v 0.021602238 h -0.021602238 Z "/>
                <path class="typst-shape" fill="#005dae" fill-rule="nonzero" transform="matrix(1 0 0 1 1.3609409934869252 47.04967434626227)" d="M 0 0m 0 0.19442014 v -0.19442014 h 0.19442014 v 0.19442014 h -0.19442014 Z "/>
                <path class="typst-shape" fill="#005dae" fill-rule="nonzero" transform="matrix(1 0 0 1 1.2313275655357894 47.17928777421341)" d="M 0 0m 0 0.064806715 v -0.064806715 h 0.064806715 v 0.064806715 h -0.064806715 Z "/>
                <path class="typst-shape" fill="#005dae" fill-rule="nonzero" transform="matrix(1 0 0 1 1.1881230895520773 47.22249225019712)" d="M 0 0m 0 0.021602238 v -0.021602238 h 0.021602238 v 0.021602238 h -0.021602238 Z "/>
                <path class="typst-shape" fill="#005dae" fill-rule="nonzero" transform="matrix(1 0 0 1 1.3177365175032132 47.22249225019712)" d="M 0 0m 0 0.021602238 v -0.021602238 h 0.021602238 v 0.021602238 h -0.021602238 Z "/>
                <path class="typst-shape" fill="#005dae" fill-rule="nonzero" transform="matrix(1 0 0 1 1.6201678493891967 47.17928777421341)" d="M 0 0m 0 0.064806715 v -0.064806715 h 0.064806715 v 0.064806715 h -0.064806715 Z "/>
                <path class="typst-shape" fill="#005dae" fill-rule="nonzero" transform="matrix(1 0 0 1 1.5769633734054846 47.22249225019712)" d="M 0 0m 0 0.021602238 v -0.021602238 h 0.021602238 v 0.021602238 h -0.021602238 Z "/>
                <path class="typst-shape" fill="#005dae" fill-rule="nonzero" transform="matrix(1 0 0 1 1.7065768013566203 47.22249225019712)" d="M 0 0m 0 0.021602238 v -0.021602238 h 0.021602238 v 0.021602238 h -0.021602238 Z "/>
                <path class="typst-shape" fill="#005dae" fill-rule="nonzero" transform="matrix(1 0 0 1 4.082822980460775 46.66083406240887)" d="M 0 0m 0 0.5832604 v -0.5832604 h 0.5832604 v 0.5832604 h -0.5832604 Z "/>
                <path class="typst-shape" fill="#005dae" fill-rule="nonzero" transform="matrix(1 0 0 1 3.693982696607368 47.04967434626227)" d="M 0 0m 0 0.19442014 v -0.19442014 h 0.19442014 v 0.19442014 h -0.19442014 Z "/>
                <path class="typst-shape" fill="#005dae" fill-rule="nonzero" transform="matrix(1 0 0 1 3.564369268656232 47.17928777421341)" d="M 0 0m 0 0.064806715 v -0.064806715 h 0.064806715 v 0.064806715 h -0.064806715 Z "/>
                <path class="typst-shape" fill="#005dae" fill-rule="nonzero" transform="matrix(1 0 0 1 3.5211647926725202 47.22249225019712)" d="M 0 0m 0 0.021602238 v -0.021602238 h 0.021602238 v 0.021602238 h -0.021602238 Z "/>
                <path class="typst-shape" fill="#005dae" fill-rule="nonzero" transform="matrix(1 0 0 1 3.650778220623656 47.22249225019712)" d="M 0 0m 0 0.021602238 v -0.021602238 h 0.021602238 v 0.021602238 h -0.021602238 Z "/>
                <path class="typst-shape" fill="#005dae" fill-rule="nonzero" transform="matrix(1 0 0 1 3.9532095525096396 47.17928777421341)" d="M 0 0m 0 0.064806715 v -0.064806715 h 0.064806715 v 0.064806715 h -0.064806715 Z "/>
                <path class="typst-shape" fill="#005dae" fill-rule="nonzero" transform="matrix(1 0 0 1 3.9100050765259278 47.22249225019712)" d="M 0 0m 0 0.021602238 v -0.021602238 h 0.021602238 v 0.021602238 h -0.021602238 Z "/>
                <path class="typst-shape" fill="#005dae" fill-rule="nonzero" transform="matrix(1 0 0 1 4.039618504477064 47.22249225019712)" d="M 0 0m 0 0.021602238 v -0.021602238 h 0.021602238 v 0.021602238 h -0.021602238 Z "/>
                <path class="typst-shape" fill="#005dae" fill-rule="nonzero" transform="matrix(1 0 0 1 4.860503548167589 47.04967434626227)" d="M 0 0m 0 0.19442014 v -0.19442014 h 0.19442014 v 0.19442014 h -0.19442014 Z "/>
                <path class="typst-shape" fill="#005dae" fill-rule="nonzero" transform="matrix(1 0 0 1 4.730890120216454 47.17928777421341)" d="M 0 0m 0 0.064806715 v -0.064806715 h 0.064806715 v 0.064806715 h -0.064806715 Z "/>
                <path class="typst-shape" fill="#005dae" fill-rule="nonzero" transform="matrix(1 0 0 1 4.687685644232742 47.22249225019712)" d="M 0 0m 0 0.021602238 v -0.021602238 h 0.021602238 v 0.021602238 h -0.021602238 Z "/>
                <path class="typst-shape" fill="#005dae" fill-rule="nonzero" transform="matrix(1 0 0 1 4.817299072183878 47.22249225019712)" d="M 0 0m 0 0.021602238 v -0.021602238 h 0.021602238 v 0.021602238 h -0.021602238 Z "/>
                <path class="typst-shape" fill="#005dae" fill-rule="nonzero" transform="matrix(1 0 0 1 5.119730404069862 47.17928777421341)" d="M 0 0m 0 0.064806715 v -0.064806715 h 0.064806715 v 0.064806715 h -0.064806715 Z "/>
                <path class="typst-shape" fill="#005dae" fill-rule="nonzero" transform="matrix(1 0 0 1 5.07652592808615 47.22249225019712)" d="M 0 0m 0 0.021602238 v -0.021602238 h 0.021602238 v 0.021602238 h -0.021602238 Z "/>
                <path class="typst-shape" fill="#005dae" fill-rule="nonzero" transform="matrix(1 0 0 1 5.206139356037285 47.22249225019712)" d="M 0 0m 0 0.021602238 v -0.021602238 h 0.021602238 v 0.021602238 h -0.021602238 Z "/>
                <path class="typst-shape" fill="#005dae" fill-rule="nonzero" transform="matrix(1 0 0 1 12.248468941382326 45.49431321084864)" d="M 0 0m 0 1.7497813 v -1.7497813 h 1.7497813 v 1.7497813 h -1.7497813 Z "/>
                <path class="typst-shape" fill="#005dae" fill-rule="nonzero" transform="matrix(1 0 0 1 11.081948089822104 46.66083406240887)" d="M 0 0m 0 0.5832604 v -0.5832604 h 0.5832604 v 0.5832604 h -0.5832604 Z "/>
                <path class="typst-shape" fill="#005dae" fill-rule="nonzero" transform="matrix(1 0 0 1 10.693107805968697 47.04967434626227)" d="M 0 0m 0 0.19442014 v -0.19442014 h 0.19442014 v 0.19442014 h -0.19442014 Z "/>
                <path class="typst-shape" fill="#005dae" fill-rule="nonzero" transform="matrix(1 0 0 1 10.56349437801756 47.17928777421341)" d="M 0 0m 0 0.064806715 v -0.064806715 h 0.064806715 v 0.064806715 h -0.064806715 Z "/>
                <path class="typst-shape" fill="#005dae" fill-rule="nonzero" transform="matrix(1 0 0 1 10.520289902033852 47.22249225019712)" d="M 0 0m 0 0.021602238 v -0.021602238 h 0.021602238 v 0.021602238 h -0.021602238 Z "/>
                <path class="typst-shape" fill="#005dae" fill-rule="nonzero" transform="matrix(1 0 0 1 10.649903329984987 47.22249225019712)" d="M 0 0m 0 0.021602238 v -0.021602238 h 0.021602238 v 0.021602238 h -0.021602238 Z "/>
                <path class="typst-shape" fill="#005dae" fill-rule="nonzero" transform="matrix(1 0 0 1 10.952334661870967 47.17928777421341)" d="M 0 0m 0 0.064806715 v -0.064806715 h 0.064806715 v 0.064806715 h -0.064806715 Z "/>
                <path class="typst-shape" fill="#005dae" fill-rule="nonzero" transform="matrix(1 0 0 1 10.909130185887257 47.22249225019712)" d="M 0 0m 0 0.021602238 v -0.021602238 h 0.021602238 v 0.021602238 h -0.021602238 Z "/>
                <path class="typst-shape" fill="#005dae" fill-rule="nonzero" transform="matrix(1 0 0 1 11.038743613838394 47.22249225019712)" d="M 0 0m 0 0.021602238 v -0.021602238 h 0.021602238 v 0.021602238 h -0.021602238 Z "/>
                <path class="typst-shape" fill="#005dae" fill-rule="nonzero" transform="matrix(1 0 0 1 11.85962865752892 47.04967434626227)" d="M 0 0m 0 0.19442014 v -0.19442014 h 0.19442014 v 0.19442014 h -0.19442014 Z "/>
                <path class="typst-shape" fill="#005dae" fill-rule="nonzero" transform="matrix(1 0 0 1 11.730015229577782 47.17928777421341)" d="M 0 0m 0 0.064806715 v -0.064806715 h 0.064806715 v 0.064806715 h -0.064806715 Z "/>
                <path class="typst-shape" fill="#005dae" fill-rule="nonzero" transform="matrix(1 0 0 1 11.686810753594072 47.22249225019712)" d="M 0 0m 0 0.021602238 v -0.021602238 h 0.021602238 v 0.021602238 h -0.021602238 Z "/>
                <path class="typst-shape" fill="#005dae" fill-rule="nonzero" transform="matrix(1 0 0 1 11.816424181545209 47.22249225019712)" d="M 0 0m 0 0.021602238 v -0.021602238 h 0.021602238 v 0.021602238 h -0.021602238 Z "/>
                <path class="typst-shape" fill="#005dae" fill-rule="nonzero" transform="matrix(1 0 0 1 12.11885551343119 47.17928777421341)" d="M 0 0m 0 0.064806715 v -0.064806715 h 0.064806715 v 0.064806715 h -0.064806715 Z "/>
                <path class="typst-shape" fill="#005dae" fill-rule="nonzero" transform="matrix(1 0 0 1 12.075651037447479 47.22249225019712)" d="M 0 0m 0 0.021602238 v -0.021602238 h 0.021602238 v 0.021602238 h -0.021602238 Z "/>
                <path class="typst-shape" fill="#005dae" fill-rule="nonzero" transform="matrix(1 0 0 1 12.205264465398615 47.22249225019712)" d="M 0 0m 0 0.021602238 v -0.021602238 h 0.021602238 v 0.021602238 h -0.021602238 Z "/>
                <path class="typst-shape" fill="#005dae" fill-rule="nonzero" transform="matrix(1 0 0 1 14.58151064450277 46.66083406240887)" d="M 0 0m 0 0.5832604 v -0.5832604 h 0.5832604 v 0.5832604 h -0.5832604 Z "/>
                <path class="typst-shape" fill="#005dae" fill-rule="nonzero" transform="matrix(1 0 0 1 14.192670360649362 47.04967434626227)" d="M 0 0m 0 0.19442014 v -0.19442014 h 0.19442014 v 0.19442014 h -0.19442014 Z "/>
                <path class="typst-shape" fill="#005dae" fill-rule="nonzero" transform="matrix(1 0 0 1 14.063056932698226 47.17928777421341)" d="M 0 0m 0 0.064806715 v -0.064806715 h 0.064806715 v 0.064806715 h -0.064806715 Z "/>
                <path class="typst-shape" fill="#005dae" fill-rule="nonzero" transform="matrix(1 0 0 1 14.019852456714515 47.22249225019712)" d="M 0 0m 0 0.021602238 v -0.021602238 h 0.021602238 v 0.021602238 h -0.021602238 Z "/>
                <path class="typst-shape" fill="#005dae" fill-rule="nonzero" transform="matrix(1 0 0 1 14.149465884665652 47.22249225019712)" d="M 0 0m 0 0.021602238 v -0.021602238 h 0.021602238 v 0.021602238 h -0.021602238 Z "/>
                <path class="typst-shape" fill="#005dae" fill-rule="nonzero" transform="matrix(1 0 0 1 14.451897216551634 47.17928777421341)" d="M 0 0m 0 0.064806715 v -0.064806715 h 0.064806715 v 0.064806715 h -0.064806715 Z "/>
                <path class="typst-shape" fill="#005dae" fill-rule="nonzero" transform="matrix(1 0 0 1 14.408692740567922 47.22249225019712)" d="M 0 0m 0 0.021602238 v -0.021602238 h 0.021602238 v 0.021602238 h -0.021602238 Z "/>
                <path class="typst-shape" fill="#005dae" fill-rule="nonzero" transform="matrix(1 0 0 1 14.538306168519059 47.22249225019712)" d="M 0 0m 0 0.021602238 v -0.021602238 h 0.021602238 v 0.021602238 h -0.021602238 Z "/>
                <path class="typst-shape" fill="#005dae" fill-rule="nonzero" transform="matrix(1 0 0 1 15.359191212209586 47.04967434626227)" d="M 0 0m 0 0.19442014 v -0.19442014 h 0.19442014 v 0.19442014 h -0.19442014 Z "/>
                <path class="typst-shape" fill="#005dae" fill-rule="nonzero" transform="matrix(1 0 0 1 15.22957778425845 47.17928777421341)" d="M 0 0m 0 0.064806715 v -0.064806715 h 0.064806715 v 0.064806715 h -0.064806715 Z "/>
                <path class="typst-shape" fill="#005dae" fill-rule="nonzero" transform="matrix(1 0 0 1 15.186373308274739 47.22249225019712)" d="M 0 0m 0 0.021602238 v -0.021602238 h 0.021602238 v 0.021602238 h -0.021602238 Z "/>
                <path class="typst-shape" fill="#005dae" fill-rule="nonzero" transform="matrix(1 0 0 1 15.315986736225874 47.22249225019712)" d="M 0 0m 0 0.021602238 v -0.021602238 h 0.021602238 v 0.021602238 h -0.021602238 Z "/>
                <path class="typst-shape" fill="#005dae" fill-rule="nonzero" transform="matrix(1 0 0 1 15.618418068111856 47.17928777421341)" d="M 0 0m 0 0.064806715 v -0.064806715 h 0.064806715 v 0.064806715 h -0.064806715 Z "/>
                <path class="typst-shape" fill="#005dae" fill-rule="nonzero" transform="matrix(1 0 0 1 15.575213592128145 47.22249225019712)" d="M 0 0m 0 0.021602238 v -0.021602238 h 0.021602238 v 0.021602238 h -0.021602238 Z "/>
                <path class="typst-shape" fill="#005dae" fill-rule="nonzero" transform="matrix(1 0 0 1 15.704827020079282 47.22249225019712)" d="M 0 0m 0 0.021602238 v -0.021602238 h 0.021602238 v 0.021602238 h -0.021602238 Z "/>
                <path class="typst-shape" fill="#005dae" fill-rule="nonzero" transform="matrix(1 0 0 1 36.745406824146976 41.99475065616797)" d="M 0 0m 0 5.249344 v -5.249344 h 5.249344 v 5.249344 h -5.249344 Z "/>
                <path class="typst-shape" fill="#005dae" fill-rule="nonzero" transform="matrix(1 0 0 1 33.24584426946631 45.49431321084864)" d="M 0 0m 0 1.7497813 v -1.7497813 h 1.7497813 v 1.7497813 h -1.7497813 Z "/>
                <path class="typst-shape" fill="#005dae" fill-rule="nonzero" transform="matrix(1 0 0 1 32.079323417906096 46.66083406240887)" d="M 0 0m 0 0.5832604 v -0.5832604 h 0.5832604 v 0.5832604 h -0.5832604 Z "/>
                <path class="typst-shape" fill="#005dae" fill-rule="nonzero" transform="matrix(1 0 0 1 31.690483134052688 47.04967434626227)" d="M 0 0m 0 0.19442014 v -0.19442014 h 0.19442014 v 0.19442014 h -0.19442014 Z "/>
                <path class="typst-shape" fill="#005dae" fill-rule="nonzero" transform="matrix(1 0 0 1 31.56086970610155 47.17928777421341)" d="M 0 0m 0 0.064806715 v -0.064806715 h 0.064806715 v 0.064806715 h -0.064806715 Z "/>
                <path class="typst-shape" fill="#005dae" fill-rule="nonzero" transform="matrix(1 0 0 1 31.51766523011784 47.22249225019712)" d="M 0 0m 0 0.021602238 v -0.021602238 h 0.021602238 v 0.021602238 h -0.021602238 Z "/>
                <path class="typst-shape" fill="#005dae" fill-rule="nonzero" transform="matrix(1 0 0 1 31.647278658068974 47.22249225019712)" d="M 0 0m 0 0.021602238 v -0.021602238 h 0.021602238 v 0.021602238 h -0.021602238 Z "/>
                <path class="typst-shape" fill="#005dae" fill-rule="nonzero" transform="matrix(1 0 0 1 31.949709989954957 47.17928777421341)" d="M 0 0m 0 0.064806715 v -0.064806715 h 0.064806715 v 0.064806715 h -0.064806715 Z "/>
                <path class="typst-shape" fill="#005dae" fill-rule="nonzero" transform="matrix(1 0 0 1 31.906505513971243 47.22249225019712)" d="M 0 0m 0 0.021602238 v -0.021602238 h 0.021602238 v 0.021602238 h -0.021602238 Z "/>
                <path class="typst-shape" fill="#005dae" fill-rule="nonzero" transform="matrix(1 0 0 1 32.03611894192238 47.22249225019712)" d="M 0 0m 0 0.021602238 v -0.021602238 h 0.021602238 v 0.021602238 h -0.021602238 Z "/>
                <path class="typst-shape" fill="#005dae" fill-rule="nonzero" transform="matrix(1 0 0 1 32.85700398561291 47.04967434626227)" d="M 0 0m 0 0.19442014 v -0.19442014 h 0.19442014 v 0.19442014 h -0.19442014 Z "/>
                <path class="typst-shape" fill="#005dae" fill-rule="nonzero" transform="matrix(1 0 0 1 32.72739055766177 47.17928777421341)" d="M 0 0m 0 0.064806715 v -0.064806715 h 0.064806715 v 0.064806715 h -0.064806715 Z "/>
                <path class="typst-shape" fill="#005dae" fill-rule="nonzero" transform="matrix(1 0 0 1 32.684186081678064 47.22249225019712)" d="M 0 0m 0 0.021602238 v -0.021602238 h 0.021602238 v 0.021602238 h -0.021602238 Z "/>
                <path class="typst-shape" fill="#005dae" fill-rule="nonzero" transform="matrix(1 0 0 1 32.8137995096292 47.22249225019712)" d="M 0 0m 0 0.021602238 v -0.021602238 h 0.021602238 v 0.021602238 h -0.021602238 Z "/>
                <path class="typst-shape" fill="#005dae" fill-rule="nonzero" transform="matrix(1 0 0 1 33.116230841515176 47.17928777421341)" d="M 0 0m 0 0.064806715 v -0.064806715 h 0.064806715 v 0.064806715 h -0.064806715 Z "/>
                <path class="typst-shape" fill="#005dae" fill-rule="nonzero" transform="matrix(1 0 0 1 33.07302636553146 47.22249225019712)" d="M 0 0m 0 0.021602238 v -0.021602238 h 0.021602238 v 0.021602238 h -0.021602238 Z "/>
                <path class="typst-shape" fill="#005dae" fill-rule="nonzero" transform="matrix(1 0 0 1 33.202639793482604 47.22249225019712)" d="M 0 0m 0 0.021602238 v -0.021602238 h 0.021602238 v 0.021602238 h -0.021602238 Z "/>
                <path class="typst-shape" fill="#005dae" fill-rule="nonzero" transform="matrix(1 0 0 1 35.57888597258676 46.66083406240887)" d="M 0 0m 0 0.5832604 v -0.5832604 h 0.5832604 v 0.5832604 h -0.5832604 Z "/>
                <path class="typst-shape" fill="#005dae" fill-rule="nonzero" transform="matrix(1 0 0 1 35.19004568873335 47.04967434626227)" d="M 0 0m 0 0.19442014 v -0.19442014 h 0.19442014 v 0.19442014 h -0.19442014 Z "/>
                <path class="typst-shape" fill="#005dae" fill-rule="nonzero" transform="matrix(1 0 0 1 35.060432260782214 47.179287774213414)" d="M 0 0m 0 0.064806715 v -0.064806715 h 0.064806715 v 0.064806715 h -0.064806715 Z "/>
                <path class="typst-shape" fill="#005dae" fill-rule="nonzero" transform="matrix(1 0 0 1 35.0172277847985 47.22249225019712)" d="M 0 0m 0 0.021602238 v -0.021602238 h 0.021602238 v 0.021602238 h -0.021602238 Z "/>
                <path class="typst-shape" fill="#005dae" fill-rule="nonzero" transform="matrix(1 0 0 1 35.146841212749635 47.22249225019712)" d="M 0 0m 0 0.021602238 v -0.021602238 h 0.021602238 v 0.021602238 h -0.021602238 Z "/>
                <path class="typst-shape" fill="#005dae" fill-rule="nonzero" transform="matrix(1 0 0 1 35.44927254463562 47.179287774213414)" d="M 0 0m 0 0.064806715 v -0.064806715 h 0.064806715 v 0.064806715 h -0.064806715 Z "/>
                <path class="typst-shape" fill="#005dae" fill-rule="nonzero" transform="matrix(1 0 0 1 35.406068068651905 47.22249225019712)" d="M 0 0m 0 0.021602238 v -0.021602238 h 0.021602238 v 0.021602238 h -0.021602238 Z "/>
                <path class="typst-shape" fill="#005dae" fill-rule="nonzero" transform="matrix(1 0 0 1 35.53568149660303 47.22249225019712)" d="M 0 0m 0 0.021602238 v -0.021602238 h 0.021602238 v 0.021602238 h -0.021602238 Z "/>
                <path class="typst-shape" fill="#005dae" fill-rule="nonzero" transform="matrix(1 0 0 1 36.35656654029358 47.04967434626227)" d="M 0 0m 0 0.19442014 v -0.19442014 h 0.19442014 v 0.19442014 h -0.19442014 Z "/>
                <path class="typst-shape" fill="#005dae" fill-rule="nonzero" transform="matrix(1 0 0 1 36.226953112342436 47.17928777421341)" d="M 0 0m 0 0.064806715 v -0.064806715 h 0.064806715 v 0.064806715 h -0.064806715 Z "/>
                <path class="typst-shape" fill="#005dae" fill-rule="nonzero" transform="matrix(1 0 0 1 36.18374863635872 47.22249225019712)" d="M 0 0m 0 0.021602238 v -0.021602238 h 0.021602238 v 0.021602238 h -0.021602238 Z "/>
                <path class="typst-shape" fill="#005dae" fill-rule="nonzero" transform="matrix(1 0 0 1 36.313362064309864 47.22249225019712)" d="M 0 0m 0 0.021602238 v -0.021602238 h 0.021602238 v 0.021602238 h -0.021602238 Z "/>
                <path class="typst-shape" fill="#005dae" fill-rule="nonzero" transform="matrix(1 0 0 1 36.61579339619585 47.17928777421341)" d="M 0 0m 0 0.064806715 v -0.064806715 h 0.064806715 v 0.064806715 h -0.064806715 Z "/>
                <path class="typst-shape" fill="#005dae" fill-rule="nonzero" transform="matrix(1 0 0 1 36.57258892021213 47.22249225019712)" d="M 0 0m 0 0.021602238 v -0.021602238 h 0.021602238 v 0.021602238 h -0.021602238 Z "/>
                <path class="typst-shape" fill="#005dae" fill-rule="nonzero" transform="matrix(1 0 0 1 36.70220234816326 47.22249225019712)" d="M 0 0m 0 0.021602238 v -0.021602238 h 0.021602238 v 0.021602238 h -0.021602238 Z "/>
                <path class="typst-shape" fill="#005dae" fill-rule="nonzero" transform="matrix(1 0 0 1 43.74453193350831 45.49431321084864)" d="M 0 0m 0 1.7497813 v -1.7497813 h 1.7497813 v 1.7497813 h -1.7497813 Z "/>
                <path class="typst-shape" fill="#005dae" fill-rule="nonzero" transform="matrix(1 0 0 1 42.578011081948084 46.66083406240887)" d="M 0 0m 0 0.5832604 v -0.5832604 h 0.5832604 v 0.5832604 h -0.5832604 Z "/>
                <path class="typst-shape" fill="#005dae" fill-rule="nonzero" transform="matrix(1 0 0 1 42.189170798094686 47.04967434626227)" d="M 0 0m 0 0.19442014 v -0.19442014 h 0.19442014 v 0.19442014 h -0.19442014 Z "/>
                <path class="typst-shape" fill="#005dae" fill-rule="nonzero" transform="matrix(1 0 0 1 42.05955737014355 47.17928777421341)" d="M 0 0m 0 0.064806715 v -0.064806715 h 0.064806715 v 0.064806715 h -0.064806715 Z "/>
                <path class="typst-shape" fill="#005dae" fill-rule="nonzero" transform="matrix(1 0 0 1 42.01635289415984 47.22249225019712)" d="M 0 0m 0 0.021602238 v -0.021602238 h 0.021602238 v 0.021602238 h -0.021602238 Z "/>
                <path class="typst-shape" fill="#005dae" fill-rule="nonzero" transform="matrix(1 0 0 1 42.145966322110965 47.22249225019712)" d="M 0 0m 0 0.021602238 v -0.021602238 h 0.021602238 v 0.021602238 h -0.021602238 Z "/>
                <path class="typst-shape" fill="#005dae" fill-rule="nonzero" transform="matrix(1 0 0 1 42.44839765399695 47.17928777421341)" d="M 0 0m 0 0.064806715 v -0.064806715 h 0.064806715 v 0.064806715 h -0.064806715 Z "/>
                <path class="typst-shape" fill="#005dae" fill-rule="nonzero" transform="matrix(1 0 0 1 42.405193178013235 47.22249225019712)" d="M 0 0m 0 0.021602238 v -0.021602238 h 0.021602238 v 0.021602238 h -0.021602238 Z "/>
                <path class="typst-shape" fill="#005dae" fill-rule="nonzero" transform="matrix(1 0 0 1 42.53480660596437 47.22249225019712)" d="M 0 0m 0 0.021602238 v -0.021602238 h 0.021602238 v 0.021602238 h -0.021602238 Z "/>
                <path class="typst-shape" fill="#005dae" fill-rule="nonzero" transform="matrix(1 0 0 1 43.3556916496549 47.04967434626227)" d="M 0 0m 0 0.19442014 v -0.19442014 h 0.19442014 v 0.19442014 h -0.19442014 Z "/>
                <path class="typst-shape" fill="#005dae" fill-rule="nonzero" transform="matrix(1 0 0 1 43.22607822170377 47.17928777421341)" d="M 0 0m 0 0.064806715 v -0.064806715 h 0.064806715 v 0.064806715 h -0.064806715 Z "/>
                <path class="typst-shape" fill="#005dae" fill-rule="nonzero" transform="matrix(1 0 0 1 43.18287374572005 47.22249225019712)" d="M 0 0m 0 0.021602238 v -0.021602238 h 0.021602238 v 0.021602238 h -0.021602238 Z "/>
                <path class="typst-shape" fill="#005dae" fill-rule="nonzero" transform="matrix(1 0 0 1 43.31248717367119 47.22249225019712)" d="M 0 0m 0 0.021602238 v -0.021602238 h 0.021602238 v 0.021602238 h -0.021602238 Z "/>
                <path class="typst-shape" fill="#005dae" fill-rule="nonzero" transform="matrix(1 0 0 1 43.61491850555718 47.17928777421341)" d="M 0 0m 0 0.064806715 v -0.064806715 h 0.064806715 v 0.064806715 h -0.064806715 Z "/>
                <path class="typst-shape" fill="#005dae" fill-rule="nonzero" transform="matrix(1 0 0 1 43.571714029573464 47.22249225019712)" d="M 0 0m 0 0.021602238 v -0.021602238 h 0.021602238 v 0.021602238 h -0.021602238 Z "/>
                <path class="typst-shape" fill="#005dae" fill-rule="nonzero" transform="matrix(1 0 0 1 43.70132745752459 47.22249225019712)" d="M 0 0m 0 0.021602238 v -0.021602238 h 0.021602238 v 0.021602238 h -0.021602238 Z "/>
                <path class="typst-shape" fill="#005dae" fill-rule="nonzero" transform="matrix(1 0 0 1 46.07757363662875 46.66083406240887)" d="M 0 0m 0 0.5832604 v -0.5832604 h 0.5832604 v 0.5832604 h -0.5832604 Z "/>
                <path class="typst-shape" fill="#005dae" fill-rule="nonzero" transform="matrix(1 0 0 1 45.68873335277535 47.04967434626227)" d="M 0 0m 0 0.19442014 v -0.19442014 h 0.19442014 v 0.19442014 h -0.19442014 Z "/>
                <path class="typst-shape" fill="#005dae" fill-rule="nonzero" transform="matrix(1 0 0 1 45.55911992482421 47.17928777421341)" d="M 0 0m 0 0.064806715 v -0.064806715 h 0.064806715 v 0.064806715 h -0.064806715 Z "/>
                <path class="typst-shape" fill="#005dae" fill-rule="nonzero" transform="matrix(1 0 0 1 45.515915448840495 47.22249225019712)" d="M 0 0m 0 0.021602238 v -0.021602238 h 0.021602238 v 0.021602238 h -0.021602238 Z "/>
                <path class="typst-shape" fill="#005dae" fill-rule="nonzero" transform="matrix(1 0 0 1 45.64552887679163 47.22249225019712)" d="M 0 0m 0 0.021602238 v -0.021602238 h 0.021602238 v 0.021602238 h -0.021602238 Z "/>
                <path class="typst-shape" fill="#005dae" fill-rule="nonzero" transform="matrix(1 0 0 1 45.947960208677614 47.17928777421341)" d="M 0 0m 0 0.064806715 v -0.064806715 h 0.064806715 v 0.064806715 h -0.064806715 Z "/>
                <path class="typst-shape" fill="#005dae" fill-rule="nonzero" transform="matrix(1 0 0 1 45.9047557326939 47.22249225019712)" d="M 0 0m 0 0.021602238 v -0.021602238 h 0.021602238 v 0.021602238 h -0.021602238 Z "/>
                <path class="typst-shape" fill="#005dae" fill-rule="nonzero" transform="matrix(1 0 0 1 46.034369160645035 47.22249225019712)" d="M 0 0m 0 0.021602238 v -0.021602238 h 0.021602238 v 0.021602238 h -0.021602238 Z "/>
                <path class="typst-shape" fill="#005dae" fill-rule="nonzero" transform="matrix(1 0 0 1 46.855254204335566 47.04967434626227)" d="M 0 0m 0 0.19442014 v -0.19442014 h 0.19442014 v 0.19442014 h -0.19442014 Z "/>
                <path class="typst-shape" fill="#005dae" fill-rule="nonzero" transform="matrix(1 0 0 1 46.72564077638444 47.17928777421341)" d="M 0 0m 0 0.064806715 v -0.064806715 h 0.064806715 v 0.064806715 h -0.064806715 Z "/>
                <path class="typst-shape" fill="#005dae" fill-rule="nonzero" transform="matrix(1 0 0 1 46.68243630040072 47.22249225019712)" d="M 0 0m 0 0.021602238 v -0.021602238 h 0.021602238 v 0.021602238 h -0.021602238 Z "/>
                <path class="typst-shape" fill="#005dae" fill-rule="nonzero" transform="matrix(1 0 0 1 46.81204972835185 47.22249225019712)" d="M 0 0m 0 0.021602238 v -0.021602238 h 0.021602238 v 0.021602238 h -0.021602238 Z "/>
                <path class="typst-shape" fill="#005dae" fill-rule="nonzero" transform="matrix(1 0 0 1 47.11448106023784 47.17928777421341)" d="M 0 0m 0 0.064806715 v -0.064806715 h 0.064806715 v 0.064806715 h -0.064806715 Z "/>
                <path class="typst-shape" fill="#005dae" fill-rule="nonzero" transform="matrix(1 0 0 1 47.07127658425413 47.22249225019712)" d="M 0 0m 0 0.021602238 v -0.021602238 h 0.021602238 v 0.021602238 h -0.021602238 Z "/>
                <path class="typst-shape" fill="#005dae" fill-rule="nonzero" transform="matrix(1 0 0 1 47.20089001220526 47.22249225019712)" d="M 0 0m 0 0.021602238 v -0.021602238 h 0.021602238 v 0.021602238 h -0.021602238 Z "/>
                <path class="typst-shape" fill="#005dae" fill-rule="nonzero" transform="matrix(1 0 0 1 110.23622047244095 31.496062992125985)" d="M 0 0m 0 15.748032 v -15.748032 h 15.748032 v 15.748032 h -15.748032 Z "/>
                <path class="typst-shape" fill="#005dae" fill-rule="nonzero" transform="matrix(1 0 0 1 99.73753280839894 41.99475065616797)" d="M 0 0m 0 5.249344 v -5.249344 h 5.249344 v 5.249344 h -5.249344 Z "/>
                <path class="typst-shape" fill="#005dae" fill-rule="nonzero" transform="matrix(1 0 0 1 96.23797025371829 45.49431321084864)" d="M 0 0m 0 1.7497813 v -1.7497813 h 1.7497813 v 1.7497813 h -1.7497813 Z "/>
                <path class="typst-shape" fill="#005dae" fill-rule="nonzero" transform="matrix(1 0 0 1 95.07144940215805 46.66083406240886)" d="M 0 0m 0 0.5832604 v -0.5832604 h 0.5832604 v 0.5832604 h -0.5832604 Z "/>
                <path class="typst-shape" fill="#005dae" fill-rule="nonzero" transform="matrix(1 0 0 1 94.68260911830464 47.04967434626227)" d="M 0 0m 0 0.19442014 v -0.19442014 h 0.19442014 v 0.19442014 h -0.19442014 Z "/>
                <path class="typst-shape" fill="#005dae" fill-rule="nonzero" transform="matrix(1 0 0 1 94.55299569035353 47.179287774213414)" d="M 0 0m 0 0.064806715 v -0.064806715 h 0.064806715 v 0.064806715 h -0.064806715 Z "/>
                <path class="typst-shape" fill="#005dae" fill-rule="nonzero" transform="matrix(1 0 0 1 94.50979121436981 47.22249225019712)" d="M 0 0m 0 0.021602238 v -0.021602238 h 0.021602238 v 0.021602238 h -0.021602238 Z "/>
                <path class="typst-shape" fill="#005dae" fill-rule="nonzero" transform="matrix(1 0 0 1 94.63940464232094 47.22249225019712)" d="M 0 0m 0 0.021602238 v -0.021602238 h 0.021602238 v 0.021602238 h -0.021602238 Z "/>
                <path class="typst-shape" fill="#005dae" fill-rule="nonzero" transform="matrix(1 0 0 1 94.94183597420692 47.179287774213414)" d="M 0 0m 0 0.064806715 v -0.064806715 h 0.064806715 v 0.064806715 h -0.064806715 Z "/>
                <path class="typst-shape" fill="#005dae" fill-rule="nonzero" transform="matrix(1 0 0 1 94.89863149822322 47.22249225019712)" d="M 0 0m 0 0.021602238 v -0.021602238 h 0.021602238 v 0.021602238 h -0.021602238 Z "/>
                <path class="typst-shape" fill="#005dae" fill-rule="nonzero" transform="matrix(1 0 0 1 95.02824492617434 47.22249225019712)" d="M 0 0m 0 0.021602238 v -0.021602238 h 0.021602238 v 0.021602238 h -0.021602238 Z "/>
                <path class="typst-shape" fill="#005dae" fill-rule="nonzero" transform="matrix(1 0 0 1 95.84912996986488 47.04967434626227)" d="M 0 0m 0 0.19442014 v -0.19442014 h 0.19442014 v 0.19442014 h -0.19442014 Z "/>
                <path class="typst-shape" fill="#005dae" fill-rule="nonzero" transform="matrix(1 0 0 1 95.71951654191376 47.179287774213414)" d="M 0 0m 0 0.064806715 v -0.064806715 h 0.064806715 v 0.064806715 h -0.064806715 Z "/>
                <path class="typst-shape" fill="#005dae" fill-rule="nonzero" transform="matrix(1 0 0 1 95.67631206593005 47.22249225019712)" d="M 0 0m 0 0.021602238 v -0.021602238 h 0.021602238 v 0.021602238 h -0.021602238 Z "/>
                <path class="typst-shape" fill="#005dae" fill-rule="nonzero" transform="matrix(1 0 0 1 95.80592549388118 47.22249225019712)" d="M 0 0m 0 0.021602238 v -0.021602238 h 0.021602238 v 0.021602238 h -0.021602238 Z "/>
                <path class="typst-shape" fill="#005dae" fill-rule="nonzero" transform="matrix(1 0 0 1 96.10835682576716 47.179287774213414)" d="M 0 0m 0 0.064806715 v -0.064806715 h 0.064806715 v 0.064806715 h -0.064806715 Z "/>
                <path class="typst-shape" fill="#005dae" fill-rule="nonzero" transform="matrix(1 0 0 1 96.06515234978346 47.22249225019712)" d="M 0 0m 0 0.021602238 v -0.021602238 h 0.021602238 v 0.021602238 h -0.021602238 Z "/>
                <path class="typst-shape" fill="#005dae" fill-rule="nonzero" transform="matrix(1 0 0 1 96.19476577773457 47.22249225019712)" d="M 0 0m 0 0.021602238 v -0.021602238 h 0.021602238 v 0.021602238 h -0.021602238 Z "/>
                <path class="typst-shape" fill="#005dae" fill-rule="nonzero" transform="matrix(1 0 0 1 98.57101195683873 46.66083406240886)" d="M 0 0m 0 0.5832604 v -0.5832604 h 0.5832604 v 0.5832604 h -0.5832604 Z "/>
                <path class="typst-shape" fill="#005dae" fill-rule="nonzero" transform="matrix(1 0 0 1 98.1821716729853 47.04967434626227)" d="M 0 0m 0 0.19442014 v -0.19442014 h 0.19442014 v 0.19442014 h -0.19442014 Z "/>
                <path class="typst-shape" fill="#005dae" fill-rule="nonzero" transform="matrix(1 0 0 1 98.05255824503418 47.179287774213414)" d="M 0 0m 0 0.064806715 v -0.064806715 h 0.064806715 v 0.064806715 h -0.064806715 Z "/>
                <path class="typst-shape" fill="#005dae" fill-rule="nonzero" transform="matrix(1 0 0 1 98.00935376905048 47.22249225019712)" d="M 0 0m 0 0.021602238 v -0.021602238 h 0.021602238 v 0.021602238 h -0.021602238 Z "/>
                <path class="typst-shape" fill="#005dae" fill-rule="nonzero" transform="matrix(1 0 0 1 98.13896719700159 47.22249225019712)" d="M 0 0m 0 0.021602238 v -0.021602238 h 0.021602238 v 0.021602238 h -0.021602238 Z "/>
                <path class="typst-shape" fill="#005dae" fill-rule="nonzero" transform="matrix(1 0 0 1 98.4413985288876 47.179287774213414)" d="M 0 0m 0 0.064806715 v -0.064806715 h 0.064806715 v 0.064806715 h -0.064806715 Z "/>
                <path class="typst-shape" fill="#005dae" fill-rule="nonzero" transform="matrix(1 0 0 1 98.39819405290389 47.22249225019712)" d="M 0 0m 0 0.021602238 v -0.021602238 h 0.021602238 v 0.021602238 h -0.021602238 Z "/>
                <path class="typst-shape" fill="#005dae" fill-rule="nonzero" transform="matrix(1 0 0 1 98.52780748085502 47.22249225019712)" d="M 0 0m 0 0.021602238 v -0.021602238 h 0.021602238 v 0.021602238 h -0.021602238 Z "/>
                <path class="typst-shape" fill="#005dae" fill-rule="nonzero" transform="matrix(1 0 0 1 99.34869252454554 47.04967434626227)" d="M 0 0m 0 0.19442014 v -0.19442014 h 0.19442014 v 0.19442014 h -0.19442014 Z "/>
                <path class="typst-shape" fill="#005dae" fill-rule="nonzero" transform="matrix(1 0 0 1 99.21907909659441 47.179287774213414)" d="M 0 0m 0 0.064806715 v -0.064806715 h 0.064806715 v 0.064806715 h -0.064806715 Z "/>
                <path class="typst-shape" fill="#005dae" fill-rule="nonzero" transform="matrix(1 0 0 1 99.1758746206107 47.22249225019712)" d="M 0 0m 0 0.021602238 v -0.021602238 h 0.021602238 v 0.021602238 h -0.021602238 Z "/>
                <path class="typst-shape" fill="#005dae" fill-rule="nonzero" transform="matrix(1 0 0 1 99.30548804856183 47.22249225019712)" d="M 0 0m 0 0.021602238 v -0.021602238 h 0.021602238 v 0.021602238 h -0.021602238 Z "/>
                <path class="typst-shape" fill="#005dae" fill-rule="nonzero" transform="matrix(1 0 0 1 99.60791938044783 47.179287774213414)" d="M 0 0m 0 0.064806715 v -0.064806715 h 0.064806715 v 0.064806715 h -0.064806715 Z "/>
                <path class="typst-shape" fill="#005dae" fill-rule="nonzero" transform="matrix(1 0 0 1 99.56471490446411 47.22249225019712)" d="M 0 0m 0 0.021602238 v -0.021602238 h 0.021602238 v 0.021602238 h -0.021602238 Z "/>
                <path class="typst-shape" fill="#005dae" fill-rule="nonzero" transform="matrix(1 0 0 1 99.69432833241524 47.22249225019712)" d="M 0 0m 0 0.021602238 v -0.021602238 h 0.021602238 v 0.021602238 h -0.021602238 Z "/>
                <path class="typst-shape" fill="#005dae" fill-rule="nonzero" transform="matrix(1 0 0 1 106.73665791776028 45.49431321084864)" d="M 0 0m 0 1.7497813 v -1.7497813 h 1.7497813 v 1.7497813 h -1.7497813 Z "/>
                <path class="typst-shape" fill="#005dae" fill-rule="nonzero" transform="matrix(1 0 0 1 105.57013706620006 46.66083406240886)" d="M 0 0m 0 0.5832604 v -0.5832604 h 0.5832604 v 0.5832604 h -0.5832604 Z "/>
                <path class="typst-shape" fill="#005dae" fill-rule="nonzero" transform="matrix(1 0 0 1 105.18129678234664 47.04967434626227)" d="M 0 0m 0 0.19442014 v -0.19442014 h 0.19442014 v 0.19442014 h -0.19442014 Z "/>
                <path class="typst-shape" fill="#005dae" fill-rule="nonzero" transform="matrix(1 0 0 1 105.05168335439551 47.179287774213414)" d="M 0 0m 0 0.064806715 v -0.064806715 h 0.064806715 v 0.064806715 h -0.064806715 Z "/>
                <path class="typst-shape" fill="#005dae" fill-rule="nonzero" transform="matrix(1 0 0 1 105.00847887841181 47.22249225019712)" d="M 0 0m 0 0.021602238 v -0.021602238 h 0.021602238 v 0.021602238 h -0.021602238 Z "/>
                <path class="typst-shape" fill="#005dae" fill-rule="nonzero" transform="matrix(1 0 0 1 105.13809230636292 47.22249225019712)" d="M 0 0m 0 0.021602238 v -0.021602238 h 0.021602238 v 0.021602238 h -0.021602238 Z "/>
                <path class="typst-shape" fill="#005dae" fill-rule="nonzero" transform="matrix(1 0 0 1 105.44052363824892 47.179287774213414)" d="M 0 0m 0 0.064806715 v -0.064806715 h 0.064806715 v 0.064806715 h -0.064806715 Z "/>
                <path class="typst-shape" fill="#005dae" fill-rule="nonzero" transform="matrix(1 0 0 1 105.3973191622652 47.22249225019712)" d="M 0 0m 0 0.021602238 v -0.021602238 h 0.021602238 v 0.021602238 h -0.021602238 Z "/>
                <path class="typst-shape" fill="#005dae" fill-rule="nonzero" transform="matrix(1 0 0 1 105.52693259021633 47.22249225019712)" d="M 0 0m 0 0.021602238 v -0.021602238 h 0.021602238 v 0.021602238 h -0.021602238 Z "/>
                <path class="typst-shape" fill="#005dae" fill-rule="nonzero" transform="matrix(1 0 0 1 106.34781763390687 47.04967434626227)" d="M 0 0m 0 0.19442014 v -0.19442014 h 0.19442014 v 0.19442014 h -0.19442014 Z "/>
                <path class="typst-shape" fill="#005dae" fill-rule="nonzero" transform="matrix(1 0 0 1 106.21820420595574 47.179287774213414)" d="M 0 0m 0 0.064806715 v -0.064806715 h 0.064806715 v 0.064806715 h -0.064806715 Z "/>
                <path class="typst-shape" fill="#005dae" fill-rule="nonzero" transform="matrix(1 0 0 1 106.17499972997204 47.22249225019712)" d="M 0 0m 0 0.021602238 v -0.021602238 h 0.021602238 v 0.021602238 h -0.021602238 Z "/>
                <path class="typst-shape" fill="#005dae" fill-rule="nonzero" transform="matrix(1 0 0 1 106.30461315792316 47.22249225019712)" d="M 0 0m 0 0.021602238 v -0.021602238 h 0.021602238 v 0.021602238 h -0.021602238 Z "/>
                <path class="typst-shape" fill="#005dae" fill-rule="nonzero" transform="matrix(1 0 0 1 106.60704448980916 47.179287774213414)" d="M 0 0m 0 0.064806715 v -0.064806715 h 0.064806715 v 0.064806715 h -0.064806715 Z "/>
                <path class="typst-shape" fill="#005dae" fill-rule="nonzero" transform="matrix(1 0 0 1 106.56384001382544 47.22249225019712)" d="M 0 0m 0 0.021602238 v -0.021602238 h 0.021602238 v 0.021602238 h -0.021602238 Z "/>
                <path class="typst-shape" fill="#005dae" fill-rule="nonzero" transform="matrix(1 0 0 1 106.69345344177657 47.22249225019712)" d="M 0 0m 0 0.021602238 v -0.021602238 h 0.021602238 v 0.021602238 h -0.021602238 Z "/>
                <path class="typst-shape" fill="#005dae" fill-rule="nonzero" transform="matrix(1 0 0 1 109.06969962088071 46.66083406240886)" d="M 0 0m 0 0.5832604 v -0.5832604 h 0.5832604 v 0.5832604 h -0.5832604 Z "/>
                <path class="typst-shape" fill="#005dae" fill-rule="nonzero" transform="matrix(1 0 0 1 108.68085933702731 47.04967434626227)" d="M 0 0m 0 0.19442014 v -0.19442014 h 0.19442014 v 0.19442014 h -0.19442014 Z "/>
                <path class="typst-shape" fill="#005dae" fill-rule="nonzero" transform="matrix(1 0 0 1 108.55124590907619 47.179287774213414)" d="M 0 0m 0 0.064806715 v -0.064806715 h 0.064806715 v 0.064806715 h -0.064806715 Z "/>
                <path class="typst-shape" fill="#005dae" fill-rule="nonzero" transform="matrix(1 0 0 1 108.50804143309247 47.22249225019712)" d="M 0 0m 0 0.021602238 v -0.021602238 h 0.021602238 v 0.021602238 h -0.021602238 Z "/>
                <path class="typst-shape" fill="#005dae" fill-rule="nonzero" transform="matrix(1 0 0 1 108.6376548610436 47.22249225019712)" d="M 0 0m 0 0.021602238 v -0.021602238 h 0.021602238 v 0.021602238 h -0.021602238 Z "/>
                <path class="typst-shape" fill="#005dae" fill-rule="nonzero" transform="matrix(1 0 0 1 108.94008619292958 47.179287774213414)" d="M 0 0m 0 0.064806715 v -0.064806715 h 0.064806715 v 0.064806715 h -0.064806715 Z "/>
                <path class="typst-shape" fill="#005dae" fill-rule="nonzero" transform="matrix(1 0 0 1 108.89688171694588 47.22249225019712)" d="M 0 0m 0 0.021602238 v -0.021602238 h 0.021602238 v 0.021602238 h -0.021602238 Z "/>
                <path class="typst-shape" fill="#005dae" fill-rule="nonzero" transform="matrix(1 0 0 1 109.02649514489701 47.22249225019712)" d="M 0 0m 0 0.021602238 v -0.021602238 h 0.021602238 v 0.021602238 h -0.021602238 Z "/>
                <path class="typst-shape" fill="#005dae" fill-rule="nonzero" transform="matrix(1 0 0 1 109.84738018858754 47.04967434626227)" d="M 0 0m 0 0.19442014 v -0.19442014 h 0.19442014 v 0.19442014 h -0.19442014 Z "/>
                <path class="typst-shape" fill="#005dae" fill-rule="nonzero" transform="matrix(1 0 0 1 109.71776676063641 47.179287774213414)" d="M 0 0m 0 0.064806715 v -0.064806715 h 0.064806715 v 0.064806715 h -0.064806715 Z "/>
                <path class="typst-shape" fill="#005dae" fill-rule="nonzero" transform="matrix(1 0 0 1 109.6745622846527 47.22249225019712)" d="M 0 0m 0 0.021602238 v -0.021602238 h 0.021602238 v 0.021602238 h -0.021602238 Z "/>
                <path class="typst-shape" fill="#005dae" fill-rule="nonzero" transform="matrix(1 0 0 1 109.80417571260382 47.22249225019712)" d="M 0 0m 0 0.021602238 v -0.021602238 h 0.021602238 v 0.021602238 h -0.021602238 Z "/>
                <path class="typst-shape" fill="#005dae" fill-rule="nonzero" transform="matrix(1 0 0 1 110.10660704448982 47.179287774213414)" d="M 0 0m 0 0.064806715 v -0.064806715 h 0.064806715 v 0.064806715 h -0.064806715 Z "/>
                <path class="typst-shape" fill="#005dae" fill-rule="nonzero" transform="matrix(1 0 0 1 110.06340256850612 47.22249225019712)" d="M 0 0m 0 0.021602238 v -0.021602238 h 0.021602238 v 0.021602238 h -0.021602238 Z "/>
                <path class="typst-shape" fill="#005dae" fill-rule="nonzero" transform="matrix(1 0 0 1 110.19301599645725 47.22249225019712)" d="M 0 0m 0 0.021602238 v -0.021602238 h 0.021602238 v 0.021602238 h -0.021602238 Z "/>
                <path class="typst-shape" fill="#005dae" fill-rule="nonzero" transform="matrix(1 0 0 1 131.23359580052494 41.99475065616797)" d="M 0 0m 0 5.249344 v -5.249344 h 5.249344 v 5.249344 h -5.249344 Z "/>
                <path class="typst-shape" fill="#005dae" fill-rule="nonzero" transform="matrix(1 0 0 1 127.73403324584427 45.49431321084864)" d="M 0 0m 0 1.7497813 v -1.7497813 h 1.7497813 v 1.7497813 h -1.7497813 Z "/>
                <path class="typst-shape" fill="#005dae" fill-rule="nonzero" transform="matrix(1 0 0 1 126.56751239428404 46.66083406240886)" d="M 0 0m 0 0.5832604 v -0.5832604 h 0.5832604 v 0.5832604 h -0.5832604 Z "/>
                <path class="typst-shape" fill="#005dae" fill-rule="nonzero" transform="matrix(1 0 0 1 126.17867211043063 47.04967434626227)" d="M 0 0m 0 0.19442014 v -0.19442014 h 0.19442014 v 0.19442014 h -0.19442014 Z "/>
                <path class="typst-shape" fill="#005dae" fill-rule="nonzero" transform="matrix(1 0 0 1 126.0490586824795 47.179287774213414)" d="M 0 0m 0 0.064806715 v -0.064806715 h 0.064806715 v 0.064806715 h -0.064806715 Z "/>
                <path class="typst-shape" fill="#005dae" fill-rule="nonzero" transform="matrix(1 0 0 1 126.0058542064958 47.22249225019712)" d="M 0 0m 0 0.021602238 v -0.021602238 h 0.021602238 v 0.021602238 h -0.021602238 Z "/>
                <path class="typst-shape" fill="#005dae" fill-rule="nonzero" transform="matrix(1 0 0 1 126.13546763444693 47.22249225019712)" d="M 0 0m 0 0.021602238 v -0.021602238 h 0.021602238 v 0.021602238 h -0.021602238 Z "/>
                <path class="typst-shape" fill="#005dae" fill-rule="nonzero" transform="matrix(1 0 0 1 126.43789896633291 47.179287774213414)" d="M 0 0m 0 0.064806715 v -0.064806715 h 0.064806715 v 0.064806715 h -0.064806715 Z "/>
                <path class="typst-shape" fill="#005dae" fill-rule="nonzero" transform="matrix(1 0 0 1 126.39469449034921 47.22249225019712)" d="M 0 0m 0 0.021602238 v -0.021602238 h 0.021602238 v 0.021602238 h -0.021602238 Z "/>
                <path class="typst-shape" fill="#005dae" fill-rule="nonzero" transform="matrix(1 0 0 1 126.52430791830032 47.22249225019712)" d="M 0 0m 0 0.021602238 v -0.021602238 h 0.021602238 v 0.021602238 h -0.021602238 Z "/>
                <path class="typst-shape" fill="#005dae" fill-rule="nonzero" transform="matrix(1 0 0 1 127.34519296199086 47.04967434626227)" d="M 0 0m 0 0.19442014 v -0.19442014 h 0.19442014 v 0.19442014 h -0.19442014 Z "/>
                <path class="typst-shape" fill="#005dae" fill-rule="nonzero" transform="matrix(1 0 0 1 127.21557953403973 47.179287774213414)" d="M 0 0m 0 0.064806715 v -0.064806715 h 0.064806715 v 0.064806715 h -0.064806715 Z "/>
                <path class="typst-shape" fill="#005dae" fill-rule="nonzero" transform="matrix(1 0 0 1 127.17237505805603 47.22249225019712)" d="M 0 0m 0 0.021602238 v -0.021602238 h 0.021602238 v 0.021602238 h -0.021602238 Z "/>
                <path class="typst-shape" fill="#005dae" fill-rule="nonzero" transform="matrix(1 0 0 1 127.30198848600716 47.22249225019712)" d="M 0 0m 0 0.021602238 v -0.021602238 h 0.021602238 v 0.021602238 h -0.021602238 Z "/>
                <path class="typst-shape" fill="#005dae" fill-rule="nonzero" transform="matrix(1 0 0 1 127.60441981789315 47.179287774213414)" d="M 0 0m 0 0.064806715 v -0.064806715 h 0.064806715 v 0.064806715 h -0.064806715 Z "/>
                <path class="typst-shape" fill="#005dae" fill-rule="nonzero" transform="matrix(1 0 0 1 127.56121534190943 47.22249225019712)" d="M 0 0m 0 0.021602238 v -0.021602238 h 0.021602238 v 0.021602238 h -0.021602238 Z "/>
                <path class="typst-shape" fill="#005dae" fill-rule="nonzero" transform="matrix(1 0 0 1 127.69082876986056 47.22249225019712)" d="M 0 0m 0 0.021602238 v -0.021602238 h 0.021602238 v 0.021602238 h -0.021602238 Z "/>
                <path class="typst-shape" fill="#005dae" fill-rule="nonzero" transform="matrix(1 0 0 1 130.06707494896472 46.66083406240886)" d="M 0 0m 0 0.5832604 v -0.5832604 h 0.5832604 v 0.5832604 h -0.5832604 Z "/>
                <path class="typst-shape" fill="#005dae" fill-rule="nonzero" transform="matrix(1 0 0 1 129.6782346651113 47.04967434626227)" d="M 0 0m 0 0.19442014 v -0.19442014 h 0.19442014 v 0.19442014 h -0.19442014 Z "/>
                <path class="typst-shape" fill="#005dae" fill-rule="nonzero" transform="matrix(1 0 0 1 129.54862123716018 47.179287774213414)" d="M 0 0m 0 0.064806715 v -0.064806715 h 0.064806715 v 0.064806715 h -0.064806715 Z "/>
                <path class="typst-shape" fill="#005dae" fill-rule="nonzero" transform="matrix(1 0 0 1 129.50541676117646 47.22249225019712)" d="M 0 0m 0 0.021602238 v -0.021602238 h 0.021602238 v 0.021602238 h -0.021602238 Z "/>
                <path class="typst-shape" fill="#005dae" fill-rule="nonzero" transform="matrix(1 0 0 1 129.6350301891276 47.22249225019712)" d="M 0 0m 0 0.021602238 v -0.021602238 h 0.021602238 v 0.021602238 h -0.021602238 Z "/>
                <path class="typst-shape" fill="#005dae" fill-rule="nonzero" transform="matrix(1 0 0 1 129.93746152101357 47.179287774213414)" d="M 0 0m 0 0.064806715 v -0.064806715 h 0.064806715 v 0.064806715 h -0.064806715 Z "/>
                <path class="typst-shape" fill="#005dae" fill-rule="nonzero" transform="matrix(1 0 0 1 129.8942570450299 47.22249225019712)" d="M 0 0m 0 0.021602238 v -0.021602238 h 0.021602238 v 0.021602238 h -0.021602238 Z "/>
                <path class="typst-shape" fill="#005dae" fill-rule="nonzero" transform="matrix(1 0 0 1 130.023870472981 47.22249225019712)" d="M 0 0m 0 0.021602238 v -0.021602238 h 0.021602238 v 0.021602238 h -0.021602238 Z "/>
                <path class="typst-shape" fill="#005dae" fill-rule="nonzero" transform="matrix(1 0 0 1 130.8447555166715 47.04967434626227)" d="M 0 0m 0 0.19442014 v -0.19442014 h 0.19442014 v 0.19442014 h -0.19442014 Z "/>
                <path class="typst-shape" fill="#005dae" fill-rule="nonzero" transform="matrix(1 0 0 1 130.7151420887204 47.179287774213414)" d="M 0 0m 0 0.064806715 v -0.064806715 h 0.064806715 v 0.064806715 h -0.064806715 Z "/>
                <path class="typst-shape" fill="#005dae" fill-rule="nonzero" transform="matrix(1 0 0 1 130.67193761273668 47.22249225019712)" d="M 0 0m 0 0.021602238 v -0.021602238 h 0.021602238 v 0.021602238 h -0.021602238 Z "/>
                <path class="typst-shape" fill="#005dae" fill-rule="nonzero" transform="matrix(1 0 0 1 130.80155104068783 47.22249225019712)" d="M 0 0m 0 0.021602238 v -0.021602238 h 0.021602238 v 0.021602238 h -0.021602238 Z "/>
                <path class="typst-shape" fill="#005dae" fill-rule="nonzero" transform="matrix(1 0 0 1 131.1039823725738 47.179287774213414)" d="M 0 0m 0 0.064806715 v -0.064806715 h 0.064806715 v 0.064806715 h -0.064806715 Z "/>
                <path class="typst-shape" fill="#005dae" fill-rule="nonzero" transform="matrix(1 0 0 1 131.06077789659008 47.22249225019712)" d="M 0 0m 0 0.021602238 v -0.021602238 h 0.021602238 v 0.021602238 h -0.021602238 Z "/>
                <path class="typst-shape" fill="#005dae" fill-rule="nonzero" transform="matrix(1 0 0 1 131.19039132454122 47.22249225019712)" d="M 0 0m 0 0.021602238 v -0.021602238 h 0.021602238 v 0.021602238 h -0.021602238 Z "/>
                <path class="typst-shape" fill="#005dae" fill-rule="nonzero" transform="matrix(1 0 0 1 138.23272090988627 45.49431321084864)" d="M 0 0m 0 1.7497813 v -1.7497813 h 1.7497813 v 1.7497813 h -1.7497813 Z "/>
                <path class="typst-shape" fill="#005dae" fill-rule="nonzero" transform="matrix(1 0 0 1 137.06620005832602 46.66083406240886)" d="M 0 0m 0 0.5832604 v -0.5832604 h 0.5832604 v 0.5832604 h -0.5832604 Z "/>
                <path class="typst-shape" fill="#005dae" fill-rule="nonzero" transform="matrix(1 0 0 1 136.67735977447262 47.04967434626227)" d="M 0 0m 0 0.19442014 v -0.19442014 h 0.19442014 v 0.19442014 h -0.19442014 Z "/>
                <path class="typst-shape" fill="#005dae" fill-rule="nonzero" transform="matrix(1 0 0 1 136.5477463465215 47.179287774213414)" d="M 0 0m 0 0.064806715 v -0.064806715 h 0.064806715 v 0.064806715 h -0.064806715 Z "/>
                <path class="typst-shape" fill="#005dae" fill-rule="nonzero" transform="matrix(1 0 0 1 136.5045418705378 47.22249225019712)" d="M 0 0m 0 0.021602238 v -0.021602238 h 0.021602238 v 0.021602238 h -0.021602238 Z "/>
                <path class="typst-shape" fill="#005dae" fill-rule="nonzero" transform="matrix(1 0 0 1 136.6341552984889 47.22249225019712)" d="M 0 0m 0 0.021602238 v -0.021602238 h 0.021602238 v 0.021602238 h -0.021602238 Z "/>
                <path class="typst-shape" fill="#005dae" fill-rule="nonzero" transform="matrix(1 0 0 1 136.9365866303749 47.179287774213414)" d="M 0 0m 0 0.064806715 v -0.064806715 h 0.064806715 v 0.064806715 h -0.064806715 Z "/>
                <path class="typst-shape" fill="#005dae" fill-rule="nonzero" transform="matrix(1 0 0 1 136.8933821543912 47.22249225019712)" d="M 0 0m 0 0.021602238 v -0.021602238 h 0.021602238 v 0.021602238 h -0.021602238 Z "/>
                <path class="typst-shape" fill="#005dae" fill-rule="nonzero" transform="matrix(1 0 0 1 137.0229955823423 47.22249225019712)" d="M 0 0m 0 0.021602238 v -0.021602238 h 0.021602238 v 0.021602238 h -0.021602238 Z "/>
                <path class="typst-shape" fill="#005dae" fill-rule="nonzero" transform="matrix(1 0 0 1 137.84388062603287 47.04967434626227)" d="M 0 0m 0 0.19442014 v -0.19442014 h 0.19442014 v 0.19442014 h -0.19442014 Z "/>
                <path class="typst-shape" fill="#005dae" fill-rule="nonzero" transform="matrix(1 0 0 1 137.71426719808173 47.179287774213414)" d="M 0 0m 0 0.064806715 v -0.064806715 h 0.064806715 v 0.064806715 h -0.064806715 Z "/>
                <path class="typst-shape" fill="#005dae" fill-rule="nonzero" transform="matrix(1 0 0 1 137.67106272209801 47.22249225019712)" d="M 0 0m 0 0.021602238 v -0.021602238 h 0.021602238 v 0.021602238 h -0.021602238 Z "/>
                <path class="typst-shape" fill="#005dae" fill-rule="nonzero" transform="matrix(1 0 0 1 137.80067615004913 47.22249225019712)" d="M 0 0m 0 0.021602238 v -0.021602238 h 0.021602238 v 0.021602238 h -0.021602238 Z "/>
                <path class="typst-shape" fill="#005dae" fill-rule="nonzero" transform="matrix(1 0 0 1 138.10310748193515 47.179287774213414)" d="M 0 0m 0 0.064806715 v -0.064806715 h 0.064806715 v 0.064806715 h -0.064806715 Z "/>
                <path class="typst-shape" fill="#005dae" fill-rule="nonzero" transform="matrix(1 0 0 1 138.05990300595144 47.22249225019712)" d="M 0 0m 0 0.021602238 v -0.021602238 h 0.021602238 v 0.021602238 h -0.021602238 Z "/>
                <path class="typst-shape" fill="#005dae" fill-rule="nonzero" transform="matrix(1 0 0 1 138.18951643390255 47.22249225019712)" d="M 0 0m 0 0.021602238 v -0.021602238 h 0.021602238 v 0.021602238 h -0.021602238 Z "/>
                <path class="typst-shape" fill="#005dae" fill-rule="nonzero" transform="matrix(1 0 0 1 140.56576261300668 46.66083406240886)" d="M 0 0m 0 0.5832604 v -0.5832604 h 0.5832604 v 0.5832604 h -0.5832604 Z "/>
                <path class="typst-shape" fill="#005dae" fill-rule="nonzero" transform="matrix(1 0 0 1 140.17692232915329 47.04967434626227)" d="M 0 0m 0 0.19442014 v -0.19442014 h 0.19442014 v 0.19442014 h -0.19442014 Z "/>
                <path class="typst-shape" fill="#005dae" fill-rule="nonzero" transform="matrix(1 0 0 1 140.04730890120214 47.179287774213414)" d="M 0 0m 0 0.064806715 v -0.064806715 h 0.064806715 v 0.064806715 h -0.064806715 Z "/>
                <path class="typst-shape" fill="#005dae" fill-rule="nonzero" transform="matrix(1 0 0 1 140.00410442521846 47.22249225019712)" d="M 0 0m 0 0.021602238 v -0.021602238 h 0.021602238 v 0.021602238 h -0.021602238 Z "/>
                <path class="typst-shape" fill="#005dae" fill-rule="nonzero" transform="matrix(1 0 0 1 140.13371785316957 47.22249225019712)" d="M 0 0m 0 0.021602238 v -0.021602238 h 0.021602238 v 0.021602238 h -0.021602238 Z "/>
                <path class="typst-shape" fill="#005dae" fill-rule="nonzero" transform="matrix(1 0 0 1 140.43614918505557 47.179287774213414)" d="M 0 0m 0 0.064806715 v -0.064806715 h 0.064806715 v 0.064806715 h -0.064806715 Z "/>
                <path class="typst-shape" fill="#005dae" fill-rule="nonzero" transform="matrix(1 0 0 1 140.39294470907186 47.22249225019712)" d="M 0 0m 0 0.021602238 v -0.021602238 h 0.021602238 v 0.021602238 h -0.021602238 Z "/>
                <path class="typst-shape" fill="#005dae" fill-rule="nonzero" transform="matrix(1 0 0 1 140.52255813702297 47.22249225019712)" d="M 0 0m 0 0.021602238 v -0.021602238 h 0.021602238 v 0.021602238 h -0.021602238 Z "/>
                <path class="typst-shape" fill="#005dae" fill-rule="nonzero" transform="matrix(1 0 0 1 141.34344318071354 47.04967434626227)" d="M 0 0m 0 0.19442014 v -0.19442014 h 0.19442014 v 0.19442014 h -0.19442014 Z "/>
                <path class="typst-shape" fill="#005dae" fill-rule="nonzero" transform="matrix(1 0 0 1 141.2138297527624 47.179287774213414)" d="M 0 0m 0 0.064806715 v -0.064806715 h 0.064806715 v 0.064806715 h -0.064806715 Z "/>
                <path class="typst-shape" fill="#005dae" fill-rule="nonzero" transform="matrix(1 0 0 1 141.17062527677868 47.22249225019712)" d="M 0 0m 0 0.021602238 v -0.021602238 h 0.021602238 v 0.021602238 h -0.021602238 Z "/>
                <path class="typst-shape" fill="#005dae" fill-rule="nonzero" transform="matrix(1 0 0 1 141.30023870472982 47.22249225019712)" d="M 0 0m 0 0.021602238 v -0.021602238 h 0.021602238 v 0.021602238 h -0.021602238 Z "/>
                <path class="typst-shape" fill="#005dae" fill-rule="nonzero" transform="matrix(1 0 0 1 141.60267003661582 47.179287774213414)" d="M 0 0m 0 0.064806715 v -0.064806715 h 0.064806715 v 0.064806715 h -0.064806715 Z "/>
                <path class="typst-shape" fill="#005dae" fill-rule="nonzero" transform="matrix(1 0 0 1 141.5594655606321 47.22249225019712)" d="M 0 0m 0 0.021602238 v -0.021602238 h 0.021602238 v 0.021602238 h -0.021602238 Z "/>
                <path class="typst-shape" fill="#005dae" fill-rule="nonzero" transform="matrix(1 0 0 1 141.68907898858322 47.22249225019712)" d="M 0 0m 0 0.021602238 v -0.021602238 h 0.021602238 v 0.021602238 h -0.021602238 Z "/>
            </g>
        </g>
    </g>
</svg>
