<svg class="typst-doc" viewBox="0 0 126.42639300787401 90.28466072440946" width="126.42639300787401pt" height="90.28466072440946pt" xmlns="http://www.w3.org/2000/svg" xmlns:xlink="http://www.w3.org/1999/xlink" xmlns:h5="http://www.w3.org/1999/xhtml">
    <path class="typst-shape" fill="#ffffff" fill-rule="nonzero" d="M 0 0v 90.28466 h 126.42639 v -90.28466 Z "/>
    <g>
        <g class="typst-group" transform="matrix(1 0 0 1 0.5 0.5)">
            <g>
                <path class="typst-shape" fill="none" stroke="#aaaaaa" stroke-width="1" stroke-linecap="butt" stroke-linejoin="miter" stroke-miterlimit="4" transform="matrix(1 0 0 1 2.125984251968504 43.930330015748034)" d="M 0 0h 123.300354 "/>
                <path class="typst-shape" fill="none" stroke="#aaaaaa" stroke-width="1" stroke-linecap="butt" stroke-linejoin="miter" stroke-miterlimit="4" transform="matrix(1 0 0 1 119.75710166929133 41.80434576377953)" d="M 0 0l 5.6692915 2.1259842 l -5.6692915 2.1259842 "/>
                <path class="typst-shape" fill="none" stroke="#aaaaaa" stroke-width="1" stroke-linecap="butt" stroke-linejoin="miter" stroke-miterlimit="4" transform="matrix(1 0 0 1 2.125984251968504 0.00005662421958720262)" d="M 0 0m 0 89.28461 v -89.28461 "/>
                <path class="typst-shape" fill="none" stroke="#aaaaaa" stroke-width="1" stroke-linecap="butt" stroke-linejoin="miter" stroke-miterlimit="4" d="M 0 0m 0 5.6692915 l 2.1259842 -5.6692915 l 2.1259842 5.6692915 "/>
                <path class="typst-shape" fill="none" stroke="#cc342b" stroke-width="0.5" stroke-linecap="butt" stroke-linejoin="miter" stroke-miterlimit="4" transform="matrix(1 0 0 1 2.125984251968504 15.583873322834647)" d="M 0 0l 0.11349933 0.056047257 l 0.11349933 0.16792014 l 0.11349931 0.279129 l 0.11349934 0.389234 l 0.11349934 0.49779987 l 0.113499284 0.6043973 l 0.11349934 0.70860434 l 0.11349934 0.8100097 l 0.113499284 0.9082117 l 0.1134994 1.0028219 l 0.113499284 1.0934672 l 0.113499284 1.1797876 l 0.1134994 1.2614436 l 0.113499284 1.33811 l 0.113499284 1.4094868 l 0.1134994 1.4752874 l 0.113499284 1.5352564 l 0.113499284 1.5891533 l 0.1134994 1.6367645 l 0.1134994 1.677906 l 0.113499165 1.7124119 l 0.1134994 1.7401428 l 0.1134994 1.7609959 l 0.113499165 1.7748852 l 0.1134994 1.7817535 l 0.1134994 1.7815781 l 0.113499165 1.7743568 l 0.1134994 1.7601185 l 0.1134994 1.7389183 l 0.113499165 1.710846 l 0.1134994 1.6760063 l 0.1134994 1.6345367 l 0.113499165 1.5866051 l 0.1134994 1.5323982 l 0.1134994 1.4721375 l 0.113499165 1.4060478 l 0.11349964 1.3344002 l 0.113499165 1.2574768 l 0.113499165 1.1755791 l 0.11349964 1.089035 l 0.113499165 0.9981804 l 0.113499165 0.90338516 l 0.11349964 0.80501175 l 0.113499165 0.7034569 l 0.113499165 0.5991211 l 0.11349964 0.49241638 l 0.113499165 0.38375854 l 0.113499165 0.2735939 l 0.11349964 0.16233826 l 0.113499165 0.050441742 l 0.113499165 -0.061649323 l 0.11349964 -0.17350006 l 0.113499165 -0.28466415 l 0.113499165 -0.3947029 l 0.11349964 -0.50317764 l 0.113499165 -0.60966873 l 0.113499165 -0.7137451 l 0.11349964 -0.8149986 l 0.113499165 -0.91303253 l 0.113499165 -1.0074501 l 0.11349964 -1.097889 l 0.113499165 -1.1839828 l 0.113499165 -1.2653999 l 0.11349964 -1.3418045 l 0.113499165 -1.4129105 l 0.113499165 -1.4784279 l 0.11349964 -1.5380974 l 0.113499165 -1.5916862 l 0.113499165 -1.638977 l 0.11349964 -1.6797905 l 0.11349964 -1.7139587 l 0.11349869 -1.7413521 l 0.11349964 -1.7618542 l 0.11349964 -1.7753944 l 0.11349869 -1.7819138 l 0.11349964 -1.7813835 l 0.11349964 -1.7738113 l 0.11349869 -1.759222 l 0.11349964 -1.7376785 l 0.11349964 -1.7092648 l 0.11349869 -1.6740875 l 0.11349964 -1.6322918 l 0.11349964 -1.5840425 l 0.11349869 -1.5295286 l 0.11349964 -1.4689665 l 0.11349964 -1.4025955 l 0.11349869 -1.330677 l 0.11349964 -1.2534966 l 0.11349964 -1.1713605 l 0.11349869 -1.0845909 l 0.11349964 -0.9935336 l 0.11349964 -0.8985467 l 0.11349869 -0.80000687 l 0.11349964 -0.6983031 l 0.11349964 -0.5938381 l 0.11349869 -0.48702484 l 0.11349964 -0.37828568 l 0.11349964 -0.26805055 l 0.11349869 -0.15675545 l 0.11349964 -0.044840466 l 0.11349964 0.06725183 l 0.11349869 0.17907819 l 0.11349964 0.29019642 l 0.11349964 0.400167 l 0.11349869 0.5085553 l 0.11349964 0.6149323 l 0.11349964 0.7188778 l 0.11349869 0.8199804 l 0.11349964 0.9178405 l 0.11349964 1.0120711 l 0.11349869 1.1022997 l 0.11349964 1.188169 l 0.11349964 1.2693391 l 0.11349869 1.3454914 l 0.11349964 1.4163218 l 0.11349964 1.4815512 l 0.11349869 1.5409231 l 0.11349964 1.5941992 l 0.11349964 1.6411743 l 0.11349869 1.6816578 l 0.11349964 1.7154903 l 0.11349964 1.7425404 l 0.11349869 1.7626991 l 0.11349964 1.7758884 l 0.11349964 1.782053 l 0.11349869 1.7811737 l 0.11349964 1.7732468 l 0.11349964 1.7583122 l 0.11349869 1.7364197 l 0.11349964 1.7076645 l 0.11349964 1.6721535 l 0.11349869 1.6300316 l 0.11349964 1.5814629 l 0.11349964 1.5266418 l 0.11349869 1.465786 l 0.11349964 1.399128 l 0.11349964 1.3269386 l 0.11349869 1.2495079 l 0.11349964 1.1671257 l 0.11349964 1.0801392 l 0.11349869 0.9888725 l 0.113500595 0.89370346 l 0.11349869 0.79499435 l 0.11349869 0.69314194 l 0.113500595 0.58854675 l 0.11349869 0.48163223 l 0.11349869 0.37280655 l 0.113500595 0.26250458 l 0.11349869 0.15117264 l 0.11349869 0.03923416 l 0.113500595 -0.07285309 l 0.11349869 -0.18465424 l 0.11349869 -0.29572296 l 0.113500595 -0.4056282 l 0.11349869 -0.51392746 l 0.11349869 -0.62018967 l 0.113500595 -0.72400284 l 0.11349869 -0.824955 l 0.11349869 -0.92264175 l 0.113500595 -1.0166817 l 0.11349869 -1.1066971 l 0.11349869 -1.1923409 l 0.113500595 -1.2732697 l 0.11349869 -1.349163 l 0.11349869 -1.4197159 l 0.113500595 -1.4846649 l 0.11349869 -1.5437317 l 0.11349869 -1.5966988 l 0.113500595 -1.6433563 l 0.11349869 -1.683506 l 0.11349869 -1.7170067 l 0.113500595 -1.7437134 l 0.11349869 -1.7635231 l 0.11349869 -1.7763634 l 0.113500595 -1.782177 l 0.11349869 -1.7809429 l 0.11349869 -1.7726669 l 0.113500595 -1.7573814 l 0.11349869 -1.7351437 l 0.11349869 -1.706049 l 0.113500595 -1.6702023 l 0.11349869 -1.6277561 l 0.11349869 -1.5788698 l 0.113500595 -1.5237408 l 0.11349869 -1.4625864 l 0.11349869 -1.395648 l 0.113500595 -1.3231907 l 0.11349869 -1.2455015 l 0.11349869 -1.1628866 l 0.113500595 -1.0756726 l 0.11349869 -0.98420525 l 0.11349869 -0.8888464 l 0.113500595 -0.7899723 l 0.11349869 -0.6879741 l 0.11349869 -0.5832555 l 0.113500595 -0.47623062 l 0.11349869 -0.3673223 l 0.11349869 -0.25696152 l 0.113500595 -0.14558455 l 0.11349869 -0.033631906 l 0.11349869 0.07845374 l 0.113500595 0.19022915 l 0.11349869 0.30125234 l 0.11349869 0.41108418 l 0.113500595 0.5192904 l 0.11349869 0.62544334 l 0.11349869 0.72912264 l 0.113500595 0.82991886 l 0.11349869 0.92743325 l 0.11349869 1.0212798 l 0.113500595 1.1110883 l 0.11349869 1.1965032 l 0.11349869 1.2771859 l 0.113500595 1.3528175 l 0.11349869 1.4231014 l 0.11349869 1.4877567 l 0.113500595 1.5465279 l 0.11349869 1.599184 l 0.11349869 1.6455173 l 0.113500595 1.6853428 l 0.11349869 1.718502 l 0.11349869 1.7448692 l 0.113500595 1.7643318 l 0.11349869 1.7768211 l 0.11349869 1.7822838 l 0.113500595 1.7806969 l 0.11349869 1.7720661 l 0.11349869 1.7564354 l 0.113500595 1.7338524 l 0.11349869 1.7044144 l 0.11349869 1.6682358 l 0.113500595 1.6254616 l 0.11349869 1.5762596 l 0.11349869 1.5208244 l 0.113500595 1.4593773 l 0.11349869 1.3921547 l 0.11349869 1.3194275 l 0.113500595 1.2414856 l 0.11349869 1.1586304 l 0.11349869 1.0711975 l 0.113500595 0.9795265 l 0.11349869 0.8839836 l 0.11349869 0.7849426 l 0.113500595 0.6828003 l 0.11349869 0.57795334 l 0.11349869 0.470829 l 0.113500595 0.36183548 l 0.11349869 0.25141144 l 0.11349869 0.13999557 l 0.113500595 0.028030396 l 0.11349869 -0.084056854 l 0.11349869 -0.19580078 l 0.113500595 -0.30677414 l 0.11349869 -0.41653824 l 0.11349869 -0.5246506 l 0.113500595 -0.6306877 l 0.11349869 -0.73423386 l 0.11349869 -0.834877 l 0.113500595 -0.93221664 l 0.11349869 -1.0258675 l 0.11349869 -1.1154671 l 0.113500595 -1.2006531 l 0.11349869 -1.2810898 l 0.11349869 -1.3564606 l 0.113500595 -1.4264717 l 0.11349869 -1.4908371 l 0.11349869 -1.549305 l 0.113500595 -1.601654 l 0.11349869 -1.6476669 l 0.11349869 -1.6871567 l 0.113500595 -1.719986 l 0.11349869 -1.746006 l 0.11349869 -1.7651234 l 0.113500595 -1.7772598 l 0.11349869 -1.7823715 l 0.11349869 -1.7804317 l 0.113500595 -1.7714539 l 0.11349869 -1.7554684 l 0.11349869 -1.732542 l 0.113500595 -1.7027645 l 0.11349869 -1.666254 l 0.11349869 -1.6231527 l 0.11349869 -1.5736341 l 0.1135025 -1.5178928 l 0.11349869 -1.4561491 l 0.11349869 -1.3886461 l 0.11349869 -1.3156519 l 0.11349869 -1.2374563 l 0.11349869 -1.1543665 l 0.1135025 -1.0667114 l 0.11349869 -0.97483873 l 0.11349869 -0.8791108 l 0.11349869 -0.7799063 l 0.11349869 -0.677618 l 0.11349869 -0.57264996 l 0.1135025 -0.4654174 l 0.11349869 -0.35634446 l 0.11349869 -0.24586229 l 0.11349869 -0.13440791 l 0.11349869 -0.022422008 l 0.11349869 0.08965256 l 0.1135025 0.20137258 l 0.11349869 0.3122963 l 0.11349869 0.42198515 l 0.11349869 0.5300051 l 0.11349869 0.6359292 l 0.11349869 0.7393389 l 0.1135025 0.83982444 l 0.11349869 0.93698907 l 0.11349869 1.0304484 l 0.11349869 1.1198335 l 0.11349869 1.2047896 l 0.11349869 1.2849808 l 0.1135025 1.3600922 l 0.11349869 1.4298248 l 0.11349869 1.4939022 l 0.11349869 1.5520725 l 0.11349869 1.604105 l 0.11349869 1.6497955 l 0.1135025 1.688961 l 0.11349869 1.721447 l 0.11349869 1.7471256 l 0.11349869 1.7658978 l 0.11349869 1.7776833 l 0.11349869 1.7824421 l 0.1135025 1.7801495 l 0.11349869 1.7708206 l 0.11349869 1.7544861 l 0.11349869 1.7312164 l 0.11349869 1.7010956 l 0.11349869 1.6642532 l 0.1135025 1.6208305 l 0.11349869 1.5709915 l 0.11349869 1.514946 l 0.11349869 1.4529114 l 0.11349869 1.3851242 l 0.11349869 1.311863 l 0.1135025 1.2334137 l 0.11349869 1.1500893 l 0.11349869 1.0622177 l 0.11349869 0.97013855 l 0.11349869 0.87422943 l 0.11349869 0.7748642 l 0.1135025 0.67242813 l 0.11349869 0.56733704 l 0.11349869 0.4600067 l 0.11349869 0.35084915 l 0.11349869 0.24031067 l 0.11349869 0.1288147 l 0.1135025 0.016819 l 0.11349869 -0.09525299 l 0.11349869 -0.2069397 l 0.11349869 -0.31781387 l 0.11349869 -0.4274292 l 0.11349869 -0.5353546 l 0.1135025 -0.6411629 l 0.11349869 -0.74443436 l 0.11349869 -0.8447647 l 0.11349869 -0.9417534 l 0.11349869 -1.0350189 l 0.11349869 -1.1241913 l 0.1135025 -1.2089119 l 0.11349869 -1.2888603 l 0.11349869 -1.3637085 l 0.11349869 -1.4331665 l 0.11349869 -1.496952 l 0.11349869 -1.554821 l 0.1135025 -1.6065445 l 0.11349869 -1.6519089 l 0.11349869 -1.6907463 l 0.11349869 -1.7228928 l 0.11349869 -1.74823 l 0.11349869 -1.7666512 l 0.1135025 -1.7780895 l 0.11349869 -1.7824955 l 0.11349869 -1.77985 l 0.11349869 -1.7701683 l 0.11349869 -1.7534885 l 0.11349869 -1.7298698 l 0.1135025 -1.6994152 l 0.11349869 -1.6622372 l 0.11349869 -1.6184864 l 0.11349869 -1.5683374 l 0.11349869 -1.5119839 l 0.11349869 -1.4496536 l 0.1135025 -1.3815899 l 0.11349869 -1.3080616 l 0.11349869 -1.229362 l 0.11349869 -1.1458011 l 0.11349869 -1.0577083 l 0.11349869 -0.9654331 l 0.1135025 -0.8693402 l 0.11349869 -0.7698097 l 0.11349869 -0.667235 l 0.11349869 -0.5620216 l 0.11349869 -0.4545859 l 0.11349869 -0.34535244 l 0.1135025 -0.23475336 l 0.11349869 -0.12322594 l 0.11349869 -0.011211226 l 0.11349869 0.10084782 l 0.11349869 0.21250808 l 0.11349869 0.32332796 l 0.1135025 0.43286926 l 0.11349869 0.5406989 l 0.11349869 0.6463903 l 0.11349869 0.7495253 l 0.11349869 0.8496969 l 0.11349869 0.94650817 l 0.1135025 1.0395765 l 0.11349869 1.1285334 l 0.11349869 1.2130284 l 0.11349869 1.2927265 l 0.11349869 1.3673115 l 0.11349869 1.436491 l 0.1135025 1.4999895 l 0.11349869 1.5575552 l 0.11349869 1.608964 l 0.11349869 1.654007 l 0.11349869 1.6925125 l 0.11349869 1.7243233 l 0.1135025 1.7493172 l 0.11349869 1.7673893 l 0.11349869 1.7784767 l 0.11349869 1.7825298 l 0.11349869 1.7795334 l 0.11349869 1.7695026 l 0.1135025 1.7524681 l 0.11349869 1.7285118 l 0.11349869 1.697712 l 0.11349869 1.6602058 l 0.11349869 1.6161308 l 0.11349869 1.5656624 l 0.1135025 1.5090103 l 0.11349869 1.4463844 l 0.11349869 1.3780403 l 0.11349869 1.304245 l 0.11349869 1.225296 l 0.11349869 1.1415024 l 0.1135025 1.0531921 l 0.11349869 0.96071625 l 0.11349869 0.8644409 l 0.11349869 0.76475143 l 0.11349869 0.6620331 l 0.11349869 0.55669785 l 0.1135025 0.44916534 l 0.11349869 0.33985138 l 0.11349869 0.22919464 l 0.11349869 0.11763382 l 0.11349869 0.0056037903 l 0.11349869 -0.10644531 l 0.1135025 -0.21807098 l 0.11349869 -0.32883835 l 0.11349869 -0.4383049 l 0.11349869 -0.5460396 l 0.11349869 -0.6516113 l 0.11349869 -0.75460815 l 0.1135025 -0.8546181 l 0.11349869 -0.9512558 l 0.11349869 -1.0441246 l 0.11349869 -1.1328659 l 0.11349869 -1.2171288 l 0.11349869 -1.2965813 l 0.1135025 -1.370903 l 0.11349869 -1.4398003 l 0.11349869 -1.5030098 l 0.11349869 -1.560276 l 0.11349869 -1.6113663 l 0.11349869 -1.6560898 l 0.1135025 -1.6942635 l 0.11349869 -1.7257385 l 0.11349869 -1.7503815 l 0.11349869 -1.7681122 l 0.11349869 -1.7788467 l 0.11349869 -1.782547 l 0.1135025 -1.7791996 l 0.11349869 -1.7688141 l 0.11349869 -1.7514362 l 0.11349869 -1.7271328 l 0.11349869 -1.6959953 l 0.11349869 -1.6581554 l 0.1135025 -1.6137581 l 0.11349869 -1.5629768 l 0.11349869 -1.5060167 l 0.11349869 -1.4431009 l 0.11349869 -1.3744774 l 0.11349869 -1.3004198 l 0.1135025 -1.2212195 l 0.11349869 -1.1371899 l 0.11349869 -1.0486631 l 0.11349869 -0.95598936 l 0.11349869 -0.8595357 l 0.11349869 -0.75968266 l 0.1135025 -0.65682554 l 0.11349869 -0.5513712 l 0.11349869 -0.44373637 l 0.11349869 -0.3343468 l 0.11349869 -0.22363514 l 0.1135025 -0.1120391 h 0.11349869 l 0.11349869 0.1120391 l 0.11349869 0.22363514 l 0.11349869 0.3343468 l 0.11349869 0.44373637 l 0.1135025 0.5513712 l 0.11349869 0.65682554 l 0.11349869 0.75968266 l 0.11349869 0.8595357 l 0.11349869 0.95598936 l 0.11349869 1.0486631 l 0.1135025 1.1371899 l 0.11349869 1.2212195 l 0.11349869 1.3004198 l 0.11349869 1.3744774 l 0.11349869 1.4431009 l 0.11349869 1.5060167 l 0.1135025 1.5629768 l 0.11349869 1.6137581 l 0.11349869 1.6581554 l 0.11349869 1.6959953 l 0.11349869 1.7271328 l 0.11349869 1.7514362 l 0.1135025 1.7688141 l 0.11349869 1.7791996 l 0.11349869 1.782547 l 0.11349869 1.7788467 l 0.11349869 1.7681122 l 0.11349869 1.7503815 l 0.1135025 1.7257385 l 0.11349869 1.6942635 l 0.11349869 1.6560898 l 0.11349869 1.6113663 l 0.11349869 1.560276 l 0.11349869 1.5030098 l 0.1135025 1.4398003 l 0.11349869 1.370903 l 0.11349869 1.2965813 l 0.11349869 1.2171288 l 0.11349869 1.1328659 l 0.11349869 1.0441246 l 0.1135025 0.9512558 l 0.11349869 0.8546181 l 0.11349869 0.75460815 l 0.11349869 0.6516113 l 0.11349869 0.5460396 l 0.11349869 0.4383049 l 0.1135025 0.32883835 l 0.11349869 0.21807098 l 0.11349869 0.10644531 l 0.11349869 -0.0056037903 l 0.11349869 -0.11763382 l 0.11349869 -0.22919464 l 0.1135025 -0.33985138 l 0.11349869 -0.44916534 l 0.11349869 -0.55669785 l 0.11349869 -0.6620331 l 0.11349869 -0.76475143 l 0.11349869 -0.8644409 l 0.1135025 -0.96071625 l 0.11349869 -1.0531921 l 0.11349869 -1.1415024 l 0.11349869 -1.225296 l 0.11349869 -1.304245 l 0.11349869 -1.3780403 l 0.1135025 -1.4463844 l 0.11349487 -1.5090103 l 0.1135025 -1.5656624 l 0.1135025 -1.6161308 l 0.11349487 -1.6602058 l 0.1135025 -1.697712 l 0.11349487 -1.7285118 l 0.1135025 -1.7524681 l 0.11349487 -1.7695026 l 0.1135025 -1.7795334 l 0.1135025 -1.7825298 l 0.11349487 -1.7784767 l 0.1135025 -1.7673893 l 0.11349487 -1.7493172 l 0.1135025 -1.7243233 l 0.1135025 -1.6925125 l 0.11349487 -1.654007 l 0.1135025 -1.608964 l 0.11349487 -1.5575552 l 0.1135025 -1.4999895 l 0.11349487 -1.436491 l 0.1135025 -1.3673115 l 0.1135025 -1.2927265 l 0.11349487 -1.2130284 l 0.1135025 -1.1285334 l 0.11349487 -1.0395765 l 0.1135025 -0.94650817 l 0.1135025 -0.8496969 l 0.11349487 -0.7495253 l 0.1135025 -0.6463903 l 0.11349487 -0.5406989 l 0.1135025 -0.43286926 l 0.11349487 -0.32332796 l 0.1135025 -0.21250808 l 0.1135025 -0.10084782 l 0.11349487 0.011211226 l 0.1135025 0.12322594 l 0.11349487 0.23475336 l 0.1135025 0.34535244 l 0.1135025 0.4545859 l 0.11349487 0.5620216 l 0.1135025 0.667235 l 0.11349487 0.7698097 l 0.1135025 0.8693402 l 0.11349487 0.9654331 l 0.1135025 1.0577083 l 0.1135025 1.1458011 l 0.11349487 1.229362 l 0.1135025 1.3080616 l 0.11349487 1.3815899 l 0.1135025 1.4496536 l 0.1135025 1.5119839 l 0.11349487 1.5683374 l 0.1135025 1.6184864 l 0.11349487 1.6622372 l 0.1135025 1.6994152 l 0.11349487 1.7298698 l 0.1135025 1.7534885 l 0.1135025 1.7701683 l 0.11349487 1.77985 l 0.1135025 1.7824955 l 0.11349487 1.7780895 l 0.1135025 1.7666512 l 0.1135025 1.74823 l 0.11349487 1.7228928 l 0.1135025 1.6907463 l 0.11349487 1.6519089 l 0.1135025 1.6065445 l 0.11349487 1.554821 l 0.1135025 1.496952 l 0.1135025 1.4331665 l 0.11349487 1.3637085 l 0.1135025 1.2888603 l 0.11349487 1.2089119 l 0.1135025 1.1241913 l 0.1135025 1.0350189 l 0.11349487 0.9417534 l 0.1135025 0.8447647 l 0.11349487 0.74443436 l 0.1135025 0.6411629 l 0.11349487 0.5353546 l 0.1135025 0.4274292 l 0.1135025 0.31781387 l 0.11349487 0.2069397 l 0.1135025 0.09525299 l 0.11349487 -0.016819 l 0.1135025 -0.1288147 l 0.1135025 -0.24031067 l 0.11349487 -0.35084915 l 0.1135025 -0.4600067 l 0.11349487 -0.56733704 l 0.1135025 -0.67242813 l 0.11349487 -0.7748642 l 0.1135025 -0.87422943 l 0.1135025 -0.97013855 l 0.11349487 -1.0622177 l 0.1135025 -1.1500893 l 0.11349487 -1.2334137 l 0.1135025 -1.311863 l 0.1135025 -1.3851242 l 0.11349487 -1.4529114 l 0.1135025 -1.514946 l 0.11349487 -1.5709915 l 0.1135025 -1.6208305 l 0.11349487 -1.6642532 l 0.1135025 -1.7010956 l 0.1135025 -1.7312164 l 0.11349487 -1.7544861 l 0.1135025 -1.7708206 l 0.11349487 -1.7801495 l 0.1135025 -1.7824421 l 0.1135025 -1.7776833 l 0.11349487 -1.7658978 l 0.1135025 -1.7471256 l 0.11349487 -1.721447 l 0.1135025 -1.688961 l 0.11349487 -1.6497955 l 0.1135025 -1.604105 l 0.1135025 -1.5520725 l 0.11349487 -1.4939022 l 0.1135025 -1.4298248 l 0.11349487 -1.3600922 l 0.1135025 -1.2849808 l 0.1135025 -1.2047896 l 0.11349487 -1.1198335 l 0.1135025 -1.0304484 l 0.11349487 -0.93698907 l 0.1135025 -0.83982444 l 0.11349487 -0.7393389 l 0.1135025 -0.6359292 l 0.1135025 -0.5300051 l 0.11349487 -0.42198515 l 0.1135025 -0.3122963 l 0.11349487 -0.20137258 l 0.1135025 -0.08965256 l 0.1135025 0.022422008 l 0.11349487 0.13440791 l 0.1135025 0.24586229 l 0.11349487 0.35634446 l 0.1135025 0.4654174 l 0.11349487 0.57264996 l 0.1135025 0.677618 l 0.1135025 0.7799063 l 0.11349487 0.8791108 l 0.1135025 0.97483873 l 0.11349487 1.0667114 l 0.1135025 1.1543665 l 0.1135025 1.2374563 l 0.11349487 1.3156519 l 0.1135025 1.3886461 l 0.11349487 1.4561491 l 0.1135025 1.5178928 l 0.11349487 1.5736341 l 0.1135025 1.6231527 l 0.1135025 1.666254 l 0.11349487 1.7027645 l 0.1135025 1.732542 l 0.11349487 1.7554684 l 0.1135025 1.7714539 l 0.1135025 1.7804317 l 0.11349487 1.7823715 l 0.1135025 1.7772598 l 0.11349487 1.7651234 l 0.1135025 1.746006 l 0.11349487 1.719986 l 0.1135025 1.6871567 l 0.1135025 1.6476669 l 0.11349487 1.601654 l 0.1135025 1.549305 l 0.11349487 1.4908371 l 0.1135025 1.4264717 l 0.1135025 1.3564606 l 0.11349487 1.2810898 l 0.1135025 1.2006531 l 0.11349487 1.1154671 l 0.1135025 1.0258675 l 0.11349487 0.93221664 l 0.1135025 0.834877 l 0.1135025 0.73423386 l 0.11349487 0.6306877 l 0.1135025 0.5246506 l 0.11349487 0.41653824 l 0.1135025 0.30677414 l 0.1135025 0.19580078 l 0.11349487 0.084056854 l 0.1135025 -0.028030396 l 0.11349487 -0.13999557 l 0.1135025 -0.25141144 l 0.1135025 -0.36183548 l 0.11349487 -0.470829 l 0.1135025 -0.57795334 l 0.11349487 -0.6828003 l 0.1135025 -0.7849426 l 0.11349487 -0.8839836 l 0.1135025 -0.9795265 l 0.1135025 -1.0711975 l 0.11349487 -1.1586304 l 0.1135025 -1.2414856 l 0.11349487 -1.3194275 l 0.1135025 -1.3921547 l 0.1135025 -1.4593773 l 0.11349487 -1.5208244 l 0.1135025 -1.5762596 l 0.11349487 -1.6254616 l 0.1135025 -1.6682358 l 0.11349487 -1.7044144 l 0.1135025 -1.7338524 l 0.1135025 -1.7564354 l 0.11349487 -1.7720661 l 0.1135025 -1.7806969 l 0.11349487 -1.7822838 l 0.1135025 -1.7768211 l 0.1135025 -1.7643318 l 0.11349487 -1.7448692 l 0.1135025 -1.718502 l 0.11349487 -1.6853428 l 0.1135025 -1.6455173 l 0.11349487 -1.599184 l 0.1135025 -1.5465279 l 0.1135025 -1.4877567 l 0.11349487 -1.4231014 l 0.1135025 -1.3528175 l 0.11349487 -1.2771859 l 0.1135025 -1.1965032 l 0.1135025 -1.1110883 l 0.11349487 -1.0212798 l 0.1135025 -0.92743325 l 0.11349487 -0.82991886 l 0.1135025 -0.72912264 l 0.11349487 -0.62544334 l 0.1135025 -0.5192904 l 0.1135025 -0.41108418 l 0.11349487 -0.30125234 l 0.1135025 -0.19022915 l 0.11349487 -0.07845374 l 0.1135025 0.033631906 l 0.1135025 0.14558455 l 0.11349487 0.25696152 l 0.1135025 0.3673223 l 0.11349487 0.47623062 l 0.1135025 0.5832555 l 0.11349487 0.6879741 l 0.1135025 0.7899723 l 0.1135025 0.8888464 l 0.11349487 0.98420525 l 0.1135025 1.0756726 l 0.11349487 1.1628866 l 0.1135025 1.2455015 l 0.1135025 1.3231907 l 0.11349487 1.395648 l 0.1135025 1.4625864 l 0.11349487 1.5237408 l 0.1135025 1.5788698 l 0.11349487 1.6277561 l 0.1135025 1.6702023 l 0.1135025 1.706049 l 0.11349487 1.7351437 l 0.1135025 1.7573814 l 0.11349487 1.7726669 l 0.1135025 1.7809429 l 0.1135025 1.782177 l 0.11349487 1.7763634 l 0.1135025 1.7635231 l 0.11349487 1.7437134 l 0.1135025 1.7170067 l 0.11349487 1.683506 l 0.1135025 1.6433563 l 0.1135025 1.5966988 l 0.11349487 1.5437317 l 0.1135025 1.4846649 l 0.11349487 1.4197159 l 0.1135025 1.349163 l 0.1135025 1.2732697 l 0.11349487 1.1923409 l 0.1135025 1.1066971 l 0.11349487 1.0166817 l 0.1135025 0.92264175 l 0.11349487 0.824955 l 0.1135025 0.72400284 l 0.1135025 0.62018967 l 0.11349487 0.51392746 l 0.1135025 0.4056282 l 0.11349487 0.29572296 l 0.1135025 0.18465424 l 0.1135025 0.07285309 l 0.11349487 -0.03923416 l 0.1135025 -0.15117264 l 0.11349487 -0.26250458 l 0.1135025 -0.37280655 l 0.11349487 -0.48163223 l 0.1135025 -0.58854675 l 0.1135025 -0.69314194 l 0.11349487 -0.79499435 l 0.1135025 -0.89370346 l 0.11349487 -0.9888725 l 0.1135025 -1.0801392 l 0.1135025 -1.1671257 l 0.11349487 -1.2495079 l 0.1135025 -1.3269386 l 0.11349487 -1.399128 l 0.1135025 -1.465786 l 0.11349487 -1.5266418 l 0.1135025 -1.5814629 l 0.1135025 -1.6300316 l 0.11349487 -1.6721535 l 0.1135025 -1.7076645 l 0.11349487 -1.7364197 l 0.1135025 -1.7583122 l 0.1135025 -1.7732468 l 0.11349487 -1.7811737 l 0.1135025 -1.782053 l 0.11349487 -1.7758884 l 0.1135025 -1.7626991 l 0.11349487 -1.7425404 l 0.1135025 -1.7154903 l 0.1135025 -1.6816578 l 0.11349487 -1.6411743 l 0.1135025 -1.5941992 l 0.11349487 -1.5409231 l 0.1135025 -1.4815512 l 0.1135025 -1.4163218 l 0.11349487 -1.3454914 l 0.1135025 -1.2693391 l 0.11349487 -1.188169 l 0.1135025 -1.1022997 l 0.11349487 -1.0120711 l 0.1135025 -0.9178405 l 0.1135025 -0.8199804 l 0.11349487 -0.7188778 l 0.1135025 -0.6149323 l 0.11349487 -0.5085553 l 0.1135025 -0.400167 l 0.1135025 -0.29019642 l 0.11349487 -0.17907819 l 0.1135025 -0.06725183 l 0.11349487 0.044840466 l 0.1135025 0.15675545 l 0.11349487 0.26805055 l 0.1135025 0.37828568 l 0.1135025 0.48702484 l 0.11349487 0.5938381 l 0.1135025 0.6983031 l 0.11349487 0.80000687 l 0.1135025 0.8985467 l 0.1135025 0.9935336 l 0.11349487 1.0845909 l 0.1135025 1.1713605 l 0.11349487 1.2534966 l 0.1135025 1.330677 l 0.11349487 1.4025955 l 0.1135025 1.4689665 l 0.1135025 1.5295286 l 0.11349487 1.5840425 l 0.1135025 1.6322918 l 0.11349487 1.6740875 l 0.1135025 1.7092648 l 0.1135025 1.7376785 l 0.11349487 1.759222 l 0.1135025 1.7738113 l 0.11349487 1.7813835 l 0.1135025 1.7819138 l 0.11349487 1.7753944 l 0.1135025 1.7618542 l 0.1135025 1.7413521 l 0.11349487 1.7139587 l 0.1135025 1.6797905 l 0.11349487 1.638977 l 0.1135025 1.5916862 l 0.1135025 1.5380974 l 0.11349487 1.4784279 l 0.1135025 1.4129105 l 0.11349487 1.3418045 l 0.1135025 1.2653999 l 0.11349487 1.1839828 l 0.1135025 1.097889 l 0.1135025 1.0074501 l 0.11349487 0.91303253 l 0.1135025 0.8149986 l 0.11349487 0.7137451 l 0.1135025 0.60966873 l 0.1135025 0.50317764 l 0.11349487 0.3947029 l 0.1135025 0.28466415 l 0.11349487 0.17350006 l 0.1135025 0.061649323 l 0.11349487 -0.050441742 l 0.1135025 -0.16233826 l 0.1135025 -0.2735939 l 0.11349487 -0.38375854 l 0.1135025 -0.49241638 l 0.11349487 -0.5991211 l 0.1135025 -0.7034569 l 0.1135025 -0.80501175 l 0.11349487 -0.90338516 l 0.1135025 -0.9981804 l 0.11349487 -1.089035 l 0.1135025 -1.1755791 l 0.11349487 -1.2574768 l 0.1135025 -1.3344002 l 0.1135025 -1.4060478 l 0.11349487 -1.4721375 l 0.1135025 -1.5323982 l 0.11349487 -1.5866051 l 0.1135025 -1.6345367 l 0.1135025 -1.6760063 l 0.11349487 -1.710846 l 0.1135025 -1.7389183 l 0.11349487 -1.7601185 l 0.1135025 -1.7743568 l 0.11349487 -1.7815781 l 0.1135025 -1.7817535 l 0.1135025 -1.7748852 l 0.11349487 -1.7609959 l 0.1135025 -1.7401428 l 0.11349487 -1.7124119 l 0.1135025 -1.677906 l 0.1135025 -1.6367645 l 0.11349487 -1.5891533 l 0.1135025 -1.5352564 l 0.11349487 -1.4752874 l 0.1135025 -1.4094868 l 0.11349487 -1.33811 l 0.1135025 -1.2614436 l 0.1135025 -1.1797876 l 0.11349487 -1.0934672 l 0.1135025 -1.0028219 l 0.11349487 -0.9082117 l 0.1135025 -0.8100097 l 0.1135025 -0.70860434 l 0.11349487 -0.6043973 l 0.1135025 -0.49779987 l 0.11349487 -0.389234 l 0.1135025 -0.279129 l 0.1135025 -0.16792014 l 0.11349487 -0.056047257 "/>
                <path class="typst-shape" fill="none" stroke="#aaaaaa" stroke-width="0.5" stroke-linecap="butt" stroke-linejoin="miter" stroke-miterlimit="4" transform="matrix(1 0 0 1 13.46456692913386 41.095684346456686)" d="M 0 0m 0 5.6692915 v -5.6692915 "/>
                <path class="typst-shape" fill="#ff4136" fill-rule="nonzero" transform="matrix(1 0 0 1 11.46456692913386 13.583873322834648)" d="M 0 0m 2 0 c -1.1035681 0 -2 0.896432 -2 2 c 0 1.1035681 0.896432 2 2 2 c 1.1035681 0 2 -0.8964319 2 -2 c 0 -1.1035681 -0.8964319 -2 -2 -2 Z "/>
                <path class="typst-shape" fill="none" stroke="#aaaaaa" stroke-width="0.5" stroke-linecap="butt" stroke-linejoin="miter" stroke-miterlimit="4" transform="matrix(1 0 0 1 24.80314960629921 41.095684346456686)" d="M 0 0m 0 5.6692915 v -5.6692915 "/>
                <path class="typst-shape" fill="#ff4136" fill-rule="nonzero" transform="matrix(1 0 0 1 22.80314960629921 13.583873322834648)" d="M 0 0m 2 0 c -1.1035681 0 -2 0.896432 -2 2 c 0 1.1035681 0.896432 2 2 2 c 1.1035681 0 2 -0.8964319 2 -2 c 0 -1.1035681 -0.8964319 -2 -2 -2 Z "/>
                <path class="typst-shape" fill="none" stroke="#aaaaaa" stroke-width="0.5" stroke-linecap="butt" stroke-linejoin="miter" stroke-miterlimit="4" transform="matrix(1 0 0 1 36.14173228346458 41.095684346456686)" d="M 0 0m 0 5.6692915 v -5.6692915 "/>
                <path class="typst-shape" fill="#ff4136" fill-rule="nonzero" transform="matrix(1 0 0 1 34.14173228346458 13.583873322834648)" d="M 0 0m 2 0 c -1.1035681 0 -2 0.896432 -2 2 c 0 1.1035681 0.896432 2 2 2 c 1.1035681 0 2 -0.8964319 2 -2 c 0 -1.1035681 -0.8964319 -2 -2 -2 Z "/>
                <path class="typst-shape" fill="none" stroke="#aaaaaa" stroke-width="0.5" stroke-linecap="butt" stroke-linejoin="miter" stroke-miterlimit="4" transform="matrix(1 0 0 1 47.48031496062992 41.095684346456686)" d="M 0 0m 0 5.6692915 v -5.6692915 "/>
                <path class="typst-shape" fill="#ff4136" fill-rule="nonzero" transform="matrix(1 0 0 1 45.48031496062992 13.583873322834648)" d="M 0 0m 2 0 c -1.1035681 0 -2 0.896432 -2 2 c 0 1.1035681 0.896432 2 2 2 c 1.1035681 0 2 -0.8964319 2 -2 c 0 -1.1035681 -0.8964319 -2 -2 -2 Z "/>
                <path class="typst-shape" fill="none" stroke="#aaaaaa" stroke-width="0.5" stroke-linecap="butt" stroke-linejoin="miter" stroke-miterlimit="4" transform="matrix(1 0 0 1 58.81889763779528 41.095684346456686)" d="M 0 0m 0 5.6692915 v -5.6692915 "/>
                <path class="typst-shape" fill="#ff4136" fill-rule="nonzero" transform="matrix(1 0 0 1 56.81889763779528 13.583873322834648)" d="M 0 0m 2 0 c -1.1035681 0 -2 0.896432 -2 2 c 0 1.1035681 0.896432 2 2 2 c 1.1035681 0 2 -0.8964319 2 -2 c 0 -1.1035681 -0.8964319 -2 -2 -2 Z "/>
                <path class="typst-shape" fill="none" stroke="#aaaaaa" stroke-width="0.5" stroke-linecap="butt" stroke-linejoin="miter" stroke-miterlimit="4" transform="matrix(1 0 0 1 70.15748031496065 41.095684346456686)" d="M 0 0m 0 5.6692915 v -5.6692915 "/>
                <path class="typst-shape" fill="#ff4136" fill-rule="nonzero" transform="matrix(1 0 0 1 68.15748031496065 13.583873322834648)" d="M 0 0m 2 0 c -1.1035681 0 -2 0.896432 -2 2 c 0 1.1035681 0.896432 2 2 2 c 1.1035681 0 2 -0.8964319 2 -2 c 0 -1.1035681 -0.8964319 -2 -2 -2 Z "/>
                <path class="typst-shape" fill="none" stroke="#aaaaaa" stroke-width="0.5" stroke-linecap="butt" stroke-linejoin="miter" stroke-miterlimit="4" transform="matrix(1 0 0 1 81.496062992126 41.095684346456686)" d="M 0 0m 0 5.6692915 v -5.6692915 "/>
                <path class="typst-shape" fill="#ff4136" fill-rule="nonzero" transform="matrix(1 0 0 1 79.496062992126 13.583873322834648)" d="M 0 0m 2 0 c -1.1035681 0 -2 0.896432 -2 2 c 0 1.1035681 0.896432 2 2 2 c 1.1035681 0 2 -0.8964319 2 -2 c 0 -1.1035681 -0.8964319 -2 -2 -2 Z "/>
                <path class="typst-shape" fill="none" stroke="#aaaaaa" stroke-width="0.5" stroke-linecap="butt" stroke-linejoin="miter" stroke-miterlimit="4" transform="matrix(1 0 0 1 92.83464566929135 41.095684346456686)" d="M 0 0m 0 5.6692915 v -5.6692915 "/>
                <path class="typst-shape" fill="#ff4136" fill-rule="nonzero" transform="matrix(1 0 0 1 90.83464566929135 13.583873322834648)" d="M 0 0m 2 0 c -1.1035681 0 -2 0.896432 -2 2 c 0 1.1035681 0.896432 2 2 2 c 1.1035681 0 2 -0.8964319 2 -2 c 0 -1.1035681 -0.8964319 -2 -2 -2 Z "/>
                <path class="typst-shape" fill="none" stroke="#aaaaaa" stroke-width="0.5" stroke-linecap="butt" stroke-linejoin="miter" stroke-miterlimit="4" transform="matrix(1 0 0 1 104.17322834645671 41.095684346456686)" d="M 0 0m 0 5.6692915 v -5.6692915 "/>
                <path class="typst-shape" fill="#ff4136" fill-rule="nonzero" transform="matrix(1 0 0 1 102.17322834645671 13.583873322834648)" d="M 0 0m 2 0 c -1.1035681 0 -2 0.896432 -2 2 c 0 1.1035681 0.896432 2 2 2 c 1.1035681 0 2 -0.8964319 2 -2 c 0 -1.1035681 -0.8964319 -2 -2 -2 Z "/>
            </g>
        </g>
    </g>
</svg>
